<svg width="76" height="38" viewBox="0 0 76 38" fill="none" xmlns="http://www.w3.org/2000/svg">
<g clip-path="url(#clip0_383_6802)">
<path d="M19.4014 11.1169H4.58301V24.585H19.4014V11.1169Z" fill="white"/>
<path fill-rule="evenodd" clip-rule="evenodd" d="M23.9918 18.9999C23.9918 25.6186 18.6229 30.984 11.9998 30.984C5.37682 30.984 0.0078125 25.6186 0.0078125 18.9999C0.0078125 12.3813 5.37682 7.01587 11.9998 7.01587C18.6229 7.01587 23.9918 12.3813 23.9918 18.9999ZM8.60163 23.769H6.27432C5.78528 23.769 5.54372 23.769 5.39643 23.6748C5.23734 23.5717 5.14012 23.401 5.12834 23.2125C5.11949 23.0389 5.24029 22.8269 5.48186 22.4029L11.2283 12.2808C11.4728 11.851 11.5965 11.636 11.7527 11.5566C11.9206 11.4712 12.1209 11.4712 12.2888 11.5566C12.445 11.636 12.5687 11.851 12.8132 12.2808L13.9946 14.3416L14.0006 14.3521C14.2647 14.8132 14.3986 15.0471 14.4571 15.2925C14.5219 15.5604 14.5219 15.843 14.4571 16.1109C14.3982 16.3582 14.2656 16.5938 13.9975 17.0619L10.979 22.3941L10.9712 22.4078C10.7054 22.8727 10.5707 23.1083 10.384 23.2861C10.1807 23.4804 9.93616 23.6217 9.66808 23.7013C9.42356 23.769 9.14959 23.769 8.60163 23.769ZM14.4789 23.769H17.8136C18.3056 23.769 18.5531 23.769 18.7005 23.6719C18.8595 23.5688 18.9597 23.3951 18.9686 23.2068C18.9771 23.0387 18.8589 22.835 18.6274 22.4357C18.6194 22.4221 18.6114 22.4082 18.6033 22.3942L16.9328 19.5385L16.9138 19.5063C16.6791 19.1097 16.5606 18.9093 16.4085 18.8319C16.2406 18.7465 16.0431 18.7465 15.8753 18.8319C15.7221 18.9114 15.5983 19.1204 15.3538 19.5414L13.6893 22.3971L13.6836 22.4069C13.44 22.8273 13.3182 23.0373 13.327 23.2096C13.3388 23.3981 13.436 23.5717 13.5951 23.6748C13.7394 23.769 13.9869 23.769 14.4789 23.769Z" fill="#E84142"/>
</g>
<path d="M34.45 25L38.338 12.4H41.002L44.89 25H43.324L42.352 21.814H36.988L36.016 25H34.45ZM37.366 20.446H41.956L39.796 13.318H39.544L37.366 20.446ZM48.7299 25L45.5799 16.198H47.0919L49.7379 23.938H49.9899L52.6359 16.198H54.1479L50.9979 25H48.7299ZM58.6198 25.252C58.0078 25.252 57.4498 25.144 56.9458 24.928C56.4418 24.712 56.0458 24.4 55.7578 23.992C55.4698 23.584 55.3258 23.086 55.3258 22.498C55.3258 21.898 55.4698 21.406 55.7578 21.022C56.0458 20.626 56.4418 20.332 56.9458 20.14C57.4498 19.936 58.0138 19.834 58.6378 19.834H61.6078V19.186C61.6078 18.562 61.4218 18.07 61.0498 17.71C60.6898 17.35 60.1498 17.17 59.4298 17.17C58.7218 17.17 58.1698 17.344 57.7738 17.692C57.3778 18.028 57.1078 18.484 56.9638 19.06L55.6318 18.628C55.7758 18.136 56.0038 17.692 56.3158 17.296C56.6278 16.888 57.0418 16.564 57.5578 16.324C58.0858 16.072 58.7158 15.946 59.4478 15.946C60.5758 15.946 61.4518 16.24 62.0758 16.828C62.6998 17.404 63.0118 18.22 63.0118 19.276V23.254C63.0118 23.614 63.1798 23.794 63.5158 23.794H64.3258V25H63.0838C62.6878 25 62.3698 24.892 62.1298 24.676C61.8898 24.448 61.7698 24.148 61.7698 23.776V23.686H61.5538C61.4218 23.914 61.2418 24.154 61.0138 24.406C60.7978 24.646 60.4978 24.844 60.1138 25C59.7298 25.168 59.2318 25.252 58.6198 25.252ZM58.7818 24.028C59.6218 24.028 60.2998 23.782 60.8158 23.29C61.3438 22.786 61.6078 22.084 61.6078 21.184V20.986H58.6918C58.1278 20.986 57.6598 21.112 57.2878 21.364C56.9278 21.604 56.7478 21.97 56.7478 22.462C56.7478 22.954 56.9338 23.338 57.3058 23.614C57.6898 23.89 58.1818 24.028 58.7818 24.028ZM65.5533 25L69.0813 20.536L65.6613 16.198H67.3713L69.9993 19.6H70.2513L72.8613 16.198H74.5893L71.1513 20.536L74.6793 25H72.9513L70.2513 21.49H69.9993L67.2993 25H65.5533Z" fill="white"/>
<defs>
<clipPath id="clip0_383_6802">
<rect width="24" height="24" fill="white" transform="translate(0 7)"/>
</clipPath>
</defs>
</svg>
