<svg width="597" height="225" viewBox="0 0 597 225" fill="none" xmlns="http://www.w3.org/2000/svg">
<path d="M8.92618 131.124L0 67.9724H15.9419L21.5545 120.302H23.8502L32.0122 67.9724H57.7729L65.9349 120.302H68.2307L73.8433 67.9724H89.7851L80.859 131.124H54.2057L46.0437 78.7948H43.7479L35.5859 131.124H8.92618Z" fill="white"/>
<path d="M132.371 132.907C126.078 132.907 120.532 131.57 115.729 128.896C110.926 126.223 107.185 122.446 104.507 117.564C101.829 112.685 100.49 106.934 100.49 100.311V98.7821C100.49 92.1624 101.807 86.4114 104.443 81.5292C107.076 76.6501 110.775 72.8706 115.536 70.1971C120.298 67.5235 125.821 66.1868 132.114 66.1868C138.407 66.1868 143.718 67.5684 148.309 70.3253C152.901 73.0854 156.471 76.9034 159.021 81.7856C161.57 86.6679 162.848 92.3323 162.848 98.7821V104.257H116.811C116.981 108.585 118.596 112.108 121.656 114.827C124.716 117.545 128.457 118.901 132.878 118.901C137.299 118.901 140.7 117.926 142.825 115.971C144.951 114.019 146.566 111.855 147.671 109.476L160.806 116.352C159.615 118.561 157.894 120.959 155.64 123.546C153.386 126.136 150.39 128.342 146.649 130.166C142.906 131.99 138.147 132.903 132.368 132.903L132.371 132.907ZM116.939 92.2906H146.524C146.184 88.6426 144.717 85.7126 142.125 83.5039C139.531 81.2983 136.153 80.1924 131.986 80.1924C127.818 80.1924 124.206 81.2951 121.656 83.5039C119.107 85.7126 117.53 88.6394 116.936 92.2906H116.939Z" fill="white"/>
<path d="M215.134 132.907C209.438 132.907 205.058 131.929 201.998 129.977C198.938 128.024 196.684 125.861 195.239 123.482H192.943V131.121H177.13V42H193.197V75.2301H195.493C196.427 73.701 197.679 72.2616 199.256 70.9024C200.829 69.5464 202.91 68.4212 205.504 67.5268C208.095 66.6357 211.306 66.1901 215.134 66.1901C220.236 66.1901 224.952 67.4435 229.29 69.9471C233.625 72.4508 237.112 76.1213 239.748 80.9618C242.381 85.7992 243.701 91.656 243.701 98.5322V100.568C243.701 107.444 242.381 113.301 239.748 118.138C237.112 122.976 233.628 126.649 229.29 129.153C224.956 131.656 220.236 132.91 215.134 132.91V132.907ZM210.288 118.901C215.217 118.901 219.343 117.311 222.66 114.128C225.977 110.945 227.633 106.296 227.633 100.186V98.9137C227.633 92.8036 225.996 88.1554 222.724 84.9722C219.449 81.7889 215.307 80.1989 210.292 80.1989C205.276 80.1989 201.237 81.7889 197.923 84.9722C194.607 88.1554 192.95 92.8036 192.95 98.9137V100.186C192.95 106.296 194.607 110.945 197.923 114.128C201.24 117.311 205.363 118.901 210.292 118.901H210.288Z" fill="white"/>
<path d="M301.368 223.003C285.927 223.003 272.245 220.269 260.326 214.809C248.405 209.35 239.074 201.493 232.331 191.248C225.588 181.006 222.217 168.859 222.217 154.812V149.545H259.739V153.642C259.739 164.573 263.55 173.302 271.173 179.835C278.795 186.375 288.858 189.638 301.368 189.638C313.877 189.638 323.889 186.615 330.827 180.566C337.763 174.52 341.234 166.91 341.234 157.739V154.812C341.234 148.57 339.667 143.499 336.543 139.595C333.415 135.693 329.212 132.818 323.937 130.962C318.661 129.109 312.695 128.182 306.055 128.182H265.014V87.2073L331.264 52.0859V47.4024H227.492V14.0344H372.893V63.7898L311.039 96.5679V101.251H321.885C331.068 101.251 340.007 103.107 348.708 106.813C357.4 110.522 364.583 116.228 370.253 123.935C375.92 131.644 378.756 141.643 378.756 153.934V157.444C378.756 170.715 375.532 182.275 369.081 192.126C362.631 201.98 353.589 209.591 341.966 214.954C330.336 220.32 316.802 223.003 301.364 223.003H301.368Z" fill="white"/>
<g filter="url(#filter0_d_152_2775)">
<path d="M413.59 207.154C413.59 208.869 413.16 210.472 412.303 211.969C411.446 213.466 410.187 214.662 408.53 215.563C406.873 216.463 404.867 216.912 402.51 216.912H401.813C399.456 216.912 397.449 216.463 395.793 215.563C394.136 214.662 392.877 213.473 392.02 211.991C391.163 210.51 390.732 208.898 390.732 207.157C390.732 205.849 390.886 204.756 391.191 203.868C391.497 202.984 391.882 202.265 392.347 201.711C392.813 201.159 393.307 200.74 393.831 200.448V199.662H382.442V194.174H412.984V199.576H410.367V200.361C411.182 200.855 411.924 201.618 412.592 202.647C413.26 203.679 413.597 205.179 413.597 207.154H413.59ZM408.79 205.5C408.79 203.817 408.244 202.406 407.153 201.275C406.061 200.143 404.468 199.576 402.375 199.576H401.938C399.845 199.576 398.252 200.137 397.16 201.252C396.069 202.371 395.523 203.785 395.523 205.5C395.523 207.215 396.069 208.593 397.16 209.725C398.252 210.857 399.845 211.424 401.938 211.424H402.375C404.468 211.424 406.061 210.857 407.153 209.725C408.244 208.593 408.79 207.183 408.79 205.5Z" fill="white"/>
<path d="M413.59 178.229C413.59 180.38 413.131 182.275 412.216 183.913C411.301 185.554 410.007 186.83 408.334 187.747C406.661 188.661 404.689 189.119 402.423 189.119H401.899C399.629 189.119 397.661 188.67 395.988 187.77C394.315 186.869 393.021 185.606 392.106 183.98C391.191 182.355 390.732 180.467 390.732 178.316C390.732 176.165 391.204 174.351 392.151 172.783C393.095 171.215 394.405 169.994 396.078 169.125C397.751 168.253 399.693 167.817 401.902 167.817H403.778V183.544C405.261 183.487 406.468 182.935 407.399 181.89C408.331 180.845 408.796 179.566 408.796 178.056C408.796 176.546 408.462 175.386 407.791 174.658C407.123 173.934 406.382 173.379 405.566 173.004L407.923 168.516C408.681 168.923 409.503 169.51 410.389 170.279C411.275 171.049 412.033 172.071 412.659 173.35C413.285 174.629 413.596 176.255 413.596 178.229H413.59ZM399.671 183.5V173.392C398.422 173.507 397.417 174.011 396.659 174.896C395.905 175.78 395.526 176.938 395.526 178.358C395.526 179.778 395.905 181.015 396.659 181.887C397.417 182.759 398.419 183.298 399.671 183.5Z" fill="white"/>
<path d="M412.98 159.018L391.339 165.9V160.063L408.966 155.052V154.267L391.339 149.256V143.419L412.98 150.302V159.015V159.018Z" fill="white"/>
<path d="M413.59 130.442C413.59 132.593 413.131 134.488 412.216 136.126C411.301 137.767 410.007 139.043 408.334 139.96C406.661 140.874 404.689 141.332 402.423 141.332H401.899C399.629 141.332 397.661 140.883 395.988 139.982C394.315 139.082 393.021 137.819 392.106 136.193C391.191 134.568 390.732 132.68 390.732 130.529C390.732 128.378 391.204 126.563 392.151 124.996C393.095 123.428 394.405 122.207 396.078 121.338C397.751 120.466 399.693 120.03 401.902 120.03H403.778V135.757C405.261 135.7 406.468 135.148 407.399 134.103C408.331 133.058 408.796 131.779 408.796 130.269C408.796 128.759 408.462 127.599 407.791 126.871C407.123 126.147 406.382 125.592 405.566 125.217L407.923 120.729C408.681 121.136 409.503 121.723 410.389 122.492C411.275 123.262 412.033 124.284 412.659 125.563C413.285 126.842 413.596 128.468 413.596 130.442H413.59ZM399.671 135.712V125.605C398.422 125.72 397.417 126.224 396.659 127.108C395.905 127.993 395.526 129.15 395.526 130.571C395.526 131.991 395.905 133.228 396.659 134.1C397.417 134.972 398.419 135.511 399.671 135.712Z" fill="white"/>
<path d="M412.98 115.151H382.438V109.663H412.98V115.151Z" fill="white"/>
<path d="M413.59 93.2851C413.59 95.4362 413.153 97.366 412.28 99.0778C411.407 100.793 410.142 102.142 408.485 103.13C406.828 104.117 404.834 104.611 402.506 104.611H401.809C399.482 104.611 397.491 104.117 395.831 103.13C394.174 102.142 392.909 100.793 392.036 99.0778C391.162 97.366 390.726 95.4329 390.726 93.2851C390.726 91.1373 391.162 89.2043 392.036 87.4925C392.909 85.7806 394.174 84.4278 395.831 83.4405C397.488 82.4531 399.482 81.9595 401.809 81.9595H402.506C404.834 81.9595 406.825 82.4531 408.485 83.4405C410.142 84.4278 411.407 85.7774 412.28 87.4925C413.153 89.2075 413.59 91.1373 413.59 93.2851ZM408.703 93.2851C408.703 91.6022 408.157 90.2077 407.066 89.1017C405.974 87.999 404.41 87.4476 402.375 87.4476H401.938C399.902 87.4476 398.339 87.9926 397.247 89.0825C396.155 90.1724 395.609 91.5733 395.609 93.2851C395.609 94.997 396.155 96.3626 397.247 97.4686C398.339 98.5713 399.902 99.1227 401.938 99.1227H402.375C404.41 99.1227 405.974 98.5713 407.066 97.4686C408.157 96.3658 408.703 94.9713 408.703 93.2851Z" fill="white"/>
<path d="M421.704 76.9042H391.336V71.5026H393.953V70.7172C393.108 70.2235 392.36 69.4542 391.705 68.4091C391.05 67.364 390.723 65.867 390.723 63.9211C390.723 62.1773 391.153 60.568 392.01 59.087C392.868 57.606 394.126 56.4166 395.783 55.5158C397.44 54.6151 399.447 54.1663 401.803 54.1663H402.5C404.857 54.1663 406.864 54.6183 408.52 55.5158C410.177 56.4166 411.436 57.606 412.293 59.087C413.15 60.568 413.581 62.1805 413.581 63.9211C413.581 65.2291 413.427 66.3254 413.122 67.2102C412.817 68.0949 412.425 68.8066 411.943 69.3452C411.465 69.8837 410.977 70.3101 410.482 70.6306V71.416H421.695V76.9042H421.704ZM408.79 65.5785C408.79 63.8666 408.244 62.4497 407.153 61.331C406.061 60.2122 404.468 59.6544 402.375 59.6544H401.938C399.845 59.6544 398.252 60.2218 397.16 61.3534C396.069 62.485 395.523 63.8955 395.523 65.5785C395.523 67.2615 396.069 68.672 397.16 69.8036C398.252 70.9352 399.845 71.5026 401.938 71.5026H402.375C404.468 71.5026 406.061 70.9352 407.153 69.8036C408.244 68.672 408.79 67.2615 408.79 65.5785Z" fill="white"/>
<path d="M413.59 39.2663C413.59 41.4173 413.131 43.3119 412.216 44.95C411.301 46.5913 410.007 47.8671 408.334 48.784C406.661 49.6976 404.689 50.156 402.423 50.156H401.899C399.629 50.156 397.661 49.7072 395.988 48.8064C394.315 47.9056 393.021 46.6426 392.106 45.0173C391.191 43.392 390.732 41.5039 390.732 39.3529C390.732 37.2018 391.204 35.3874 392.151 33.8198C393.095 32.2523 394.405 31.0309 396.078 30.1622C397.751 29.2902 399.693 28.8542 401.902 28.8542H403.778V44.5813C405.261 44.5236 406.468 43.9722 407.399 42.9272C408.331 41.8821 408.796 40.6031 408.796 39.0932C408.796 37.5833 408.462 36.4229 407.791 35.6952C407.123 34.9707 406.382 34.4193 405.566 34.041L407.923 29.5531C408.681 29.9602 409.503 30.5468 410.389 31.3162C411.275 32.0856 412.033 33.1082 412.659 34.3873C413.285 35.6663 413.596 37.2916 413.596 39.2663H413.59ZM399.671 44.5364V34.4289C398.422 34.5443 397.417 35.0476 396.659 35.9324C395.905 36.8204 395.526 37.9744 395.526 39.3945C395.526 40.8146 395.905 42.052 396.659 42.924C397.417 43.7959 398.419 44.3345 399.671 44.5364Z" fill="white"/>
<path d="M412.98 23.9784H391.339V18.5768H393.783V17.7914C392.909 17.4708 392.27 16.9419 391.863 16.2014C391.455 15.4609 391.252 14.5985 391.252 13.608V10.9954H396.139V13.6978C396.139 15.0922 396.509 16.2399 397.254 17.1407C397.995 18.0414 399.138 18.4902 400.68 18.4902H412.983V23.9784H412.98Z" fill="white"/>
</g>
<g filter="url(#filter1_d_152_2775)">
<path d="M436.644 34.9708C433.533 34.9708 430.983 34.2977 428.996 32.9545C427.005 31.6081 425.804 29.6879 425.387 27.1907L430.967 25.7481C431.192 26.8701 431.568 27.7484 432.097 28.3896C432.627 29.0307 433.282 29.4859 434.069 29.7584C434.856 30.0309 435.713 30.1655 436.644 30.1655C438.054 30.1655 439.097 29.9187 439.771 29.4218C440.446 28.9249 440.783 28.3094 440.783 27.5721C440.783 26.8348 440.462 26.2674 439.82 25.8667C439.177 25.466 438.15 25.139 436.74 24.8826L435.392 24.6421C433.722 24.3216 432.2 23.8824 430.823 23.3214C429.442 22.7604 428.338 21.9846 427.503 20.9909C426.668 20.0003 426.25 18.718 426.25 17.1473C426.25 14.7783 427.117 12.9606 428.848 11.6944C430.579 10.4314 432.858 9.79663 435.681 9.79663C438.343 9.79663 440.555 10.3897 442.321 11.5726C444.084 12.7587 445.239 14.3102 445.785 16.2304L440.157 17.9583C439.9 16.7433 439.38 15.8778 438.593 15.3649C437.806 14.852 436.837 14.5955 435.684 14.5955C434.531 14.5955 433.648 14.7975 433.038 15.195C432.428 15.5957 432.123 16.1471 432.123 16.8523C432.123 17.6217 432.444 18.1891 433.086 18.5578C433.729 18.9264 434.592 19.2053 435.684 19.3976L437.032 19.6381C438.827 19.9586 440.455 20.3818 441.916 20.9107C443.374 21.4397 444.53 22.193 445.381 23.1675C446.232 24.1453 446.655 25.466 446.655 27.1297C446.655 29.627 445.75 31.5568 443.936 32.9192C442.125 34.2816 439.694 34.9612 436.647 34.9612L436.644 34.9708Z" fill="white"/>
<path d="M461.034 34.6822C459.175 34.6822 457.547 34.2591 456.15 33.4095C454.753 32.56 453.671 31.3836 452.904 29.8801C452.133 28.3766 451.748 26.6456 451.748 24.6933V10.4729H457.81V24.2092C457.81 26.0044 458.25 27.3476 459.133 28.2452C460.016 29.1428 461.275 29.5916 462.909 29.5916C464.768 29.5916 466.213 28.9761 467.24 27.7419C468.268 26.5109 468.778 24.7895 468.778 22.5776V10.4729H474.841V34.2975H468.875V31.1752H468.008C467.623 31.9766 466.9 32.7588 465.844 33.5282C464.784 34.2975 463.182 34.6822 461.034 34.6822Z" fill="white"/>
<path d="M481.577 34.2977V10.4731H487.542V13.0665H488.409C488.827 12.265 489.517 11.5694 490.477 10.9764C491.44 10.3833 492.706 10.0884 494.279 10.0884C495.977 10.0884 497.342 10.4186 498.369 11.0725C499.397 11.7297 500.18 12.5856 500.726 13.6435H501.593C502.139 12.6177 502.906 11.7714 503.902 11.0982C504.894 10.425 506.307 10.0884 508.137 10.0884C509.611 10.0884 510.953 10.3993 512.154 11.0244C513.358 11.6495 514.318 12.5952 515.04 13.8583C515.763 15.1245 516.122 16.7177 516.122 18.6379V34.2977H510.06V19.0739C510.06 17.7628 509.723 16.7754 509.049 16.1215C508.374 15.4643 507.43 15.1373 506.21 15.1373C504.83 15.1373 503.764 15.5765 503.012 16.4581C502.258 17.3396 501.882 18.5963 501.882 20.2279V34.3009H495.82V19.0739C495.82 17.7628 495.483 16.7754 494.809 16.1215C494.134 15.4643 493.19 15.1373 491.97 15.1373C490.59 15.1373 489.524 15.5765 488.772 16.4581C488.018 17.3396 487.642 18.5963 487.642 20.2279V34.3009H481.58L481.577 34.2977Z" fill="white"/>
<path d="M522.663 34.2977V10.4731H528.628V13.0665H529.495C529.913 12.265 530.603 11.5694 531.563 10.9764C532.526 10.3833 533.791 10.0884 535.365 10.0884C537.063 10.0884 538.428 10.4186 539.455 11.0725C540.483 11.7297 541.266 12.5856 541.812 13.6435H542.679C543.225 12.6177 543.992 11.7714 544.988 11.0982C545.98 10.425 547.393 10.0884 549.223 10.0884C550.697 10.0884 552.039 10.3993 553.24 11.0244C554.444 11.6495 555.404 12.5952 556.126 13.8583C556.849 15.1245 557.208 16.7177 557.208 18.6379V34.2977H551.146V19.0739C551.146 17.7628 550.809 16.7754 550.135 16.1215C549.46 15.4643 548.516 15.1373 547.296 15.1373C545.916 15.1373 544.85 15.5765 544.098 16.4581C543.344 17.3396 542.968 18.5963 542.968 20.2279V34.3009H536.906V19.0739C536.906 17.7628 536.569 16.7754 535.895 16.1215C535.22 15.4643 534.276 15.1373 533.056 15.1373C531.675 15.1373 530.609 15.5765 529.858 16.4581C529.104 17.3396 528.728 18.5963 528.728 20.2279V34.3009H522.666L522.663 34.2977Z" fill="white"/>
<path d="M566.78 7.68722C565.688 7.68722 564.767 7.3346 564.012 6.62935C563.257 5.9241 562.882 4.99766 562.882 3.84361C562.882 2.68957 563.257 1.76312 564.012 1.05787C564.767 0.352625 565.688 0 566.78 0C567.871 0 568.832 0.352625 569.57 1.05787C570.309 1.76312 570.678 2.68957 570.678 3.84361C570.678 4.99766 570.309 5.9241 569.57 6.62935C568.832 7.3346 567.9 7.68722 566.78 7.68722ZM563.749 34.2976V10.473H569.811V34.2976H563.749Z" fill="white"/>
<path d="M585.685 34.2975C584.115 34.2975 582.837 33.8103 581.861 32.8325C580.882 31.8548 580.394 30.5501 580.394 28.9184V15.4706H574.428V10.4761H580.394V3.07739H586.456V10.4729H593V15.4674H586.456V27.8605C586.456 28.8222 586.906 29.3031 587.805 29.3031H592.422V34.2975H585.685Z" fill="white"/>
</g>
<g filter="url(#filter2_ddd_152_2775)">
<path d="M441.993 51.5667V57.3561H438.667C436.05 57.3561 434.743 58.664 434.743 61.2735V63.9983H436.194C438.468 63.9983 440.359 64.6779 441.865 66.0403C443.371 67.4027 444.125 69.1338 444.125 71.2335C444.125 73.5031 443.371 75.3496 441.865 76.7665C440.359 78.1866 438.468 78.8951 436.194 78.8951C433.921 78.8951 431.959 78.1706 430.482 76.7248C429.002 75.2791 428.264 73.3332 428.264 70.8937V61.1036C428.264 54.7467 431.446 51.5699 437.813 51.5699H441.99L441.993 51.5667Z" fill="white"/>
</g>
<g filter="url(#filter3_d_152_2775)">
<path d="M3.264 49V48.376C3.264 47.768 3.312 47.256 3.408 46.84C3.504 46.408 3.712 45.912 4.032 45.352L9.84 35.056V34.696H0.672V32.2H12.744V35.512L6.6 46.48C6.392 46.848 6.248 47.176 6.168 47.464C6.104 47.736 6.072 48.08 6.072 48.496V49H3.264ZM27.5411 49.336C25.4611 49.336 23.7971 48.76 22.5491 47.608C21.3171 46.44 20.7011 44.768 20.7011 42.592V38.608C20.7011 36.432 21.3171 34.768 22.5491 33.616C23.7971 32.448 25.4611 31.864 27.5411 31.864C29.6371 31.864 31.3011 32.448 32.5331 33.616C33.7651 34.768 34.3811 36.432 34.3811 38.608V42.592C34.3811 44.768 33.7651 46.44 32.5331 47.608C31.3011 48.76 29.6371 49.336 27.5411 49.336ZM27.5411 46.744C28.7891 46.744 29.7571 46.384 30.4451 45.664C31.1491 44.928 31.5011 43.936 31.5011 42.688V38.512C31.5011 37.264 31.1491 36.28 30.4451 35.56C29.7571 34.824 28.7891 34.456 27.5411 34.456C26.3091 34.456 25.3411 34.824 24.6371 35.56C23.9491 36.28 23.6051 37.264 23.6051 38.512V42.688C23.6051 43.936 23.9491 44.928 24.6371 45.664C25.3411 46.384 26.3091 46.744 27.5411 46.744ZM42.921 49.336C41.769 49.336 40.729 49.096 39.801 48.616C38.873 48.136 38.137 47.44 37.593 46.528C37.065 45.616 36.801 44.52 36.801 43.24V42.904C36.801 41.624 37.065 40.528 37.593 39.616C38.137 38.704 38.873 38.008 39.801 37.528C40.729 37.048 41.769 36.808 42.921 36.808C44.057 36.808 45.025 37.008 45.825 37.408C46.641 37.808 47.297 38.36 47.793 39.064C48.289 39.752 48.609 40.528 48.753 41.392L46.089 41.944C46.025 41.448 45.873 41 45.633 40.6C45.393 40.184 45.049 39.856 44.601 39.616C44.169 39.376 43.633 39.256 42.993 39.256C42.337 39.256 41.745 39.4 41.217 39.688C40.705 39.96 40.297 40.376 39.993 40.936C39.705 41.496 39.561 42.168 39.561 42.952V43.192C39.561 43.976 39.705 44.648 39.993 45.208C40.297 45.752 40.705 46.168 41.217 46.456C41.745 46.744 42.337 46.888 42.993 46.888C43.969 46.888 44.705 46.64 45.201 46.144C45.713 45.632 46.033 44.976 46.161 44.176L48.825 44.8C48.633 45.632 48.289 46.392 47.793 47.08C47.297 47.768 46.641 48.32 45.825 48.736C45.025 49.136 44.057 49.336 42.921 49.336ZM55.1818 49.336C54.3498 49.336 53.5978 49.192 52.9258 48.904C52.2538 48.6 51.7178 48.168 51.3178 47.608C50.9338 47.048 50.7418 46.36 50.7418 45.544C50.7418 44.744 50.9338 44.072 51.3178 43.528C51.7178 42.984 52.2618 42.576 52.9498 42.304C53.6378 42.016 54.4218 41.872 55.3018 41.872H58.7338V41.152C58.7338 40.528 58.5418 40.024 58.1578 39.64C57.7738 39.24 57.1738 39.04 56.3578 39.04C55.5578 39.04 54.9498 39.232 54.5338 39.616C54.1338 39.984 53.8698 40.464 53.7418 41.056L51.1978 40.216C51.3898 39.592 51.6938 39.024 52.1098 38.512C52.5418 38 53.1098 37.592 53.8138 37.288C54.5178 36.968 55.3818 36.808 56.4058 36.808C57.9578 36.808 59.1738 37.2 60.0538 37.984C60.9498 38.752 61.3978 39.872 61.3978 41.344V46C61.3978 46.48 61.6218 46.72 62.0698 46.72H63.0778V49H61.1338C60.5578 49 60.0858 48.856 59.7178 48.568C59.3498 48.28 59.1658 47.888 59.1658 47.392V47.344H58.7578C58.6618 47.568 58.4938 47.84 58.2538 48.16C58.0138 48.48 57.6458 48.76 57.1498 49C56.6698 49.224 56.0138 49.336 55.1818 49.336ZM55.6378 47.08C56.5498 47.08 57.2938 46.824 57.8698 46.312C58.4458 45.784 58.7338 45.08 58.7338 44.2V43.96H55.4698C54.8778 43.96 54.3978 44.088 54.0298 44.344C53.6618 44.6 53.4778 44.976 53.4778 45.472C53.4778 45.952 53.6698 46.344 54.0538 46.648C54.4378 46.936 54.9658 47.08 55.6378 47.08ZM65.3614 49V32.2H68.1214V41.632H68.5294L72.8014 37.144H76.4254L70.6894 42.88L76.6174 49H73.0414L68.5294 44.176H68.1214V49H65.3614ZM84.1894 49V47.056C84.1894 45.872 84.3814 44.904 84.7654 44.152C85.1654 43.384 85.7334 42.76 86.4694 42.28C87.2054 41.784 88.1014 41.376 89.1574 41.056L90.6934 40.576C91.3174 40.368 91.8454 40.12 92.2774 39.832C92.7094 39.544 93.0454 39.192 93.2854 38.776C93.5254 38.344 93.6454 37.84 93.6454 37.264V37.168C93.6454 36.304 93.3494 35.624 92.7574 35.128C92.1654 34.616 91.3734 34.36 90.3814 34.36C89.3894 34.36 88.5814 34.632 87.9574 35.176C87.3334 35.704 87.0214 36.488 87.0214 37.528V37.936H84.2374V37.576C84.2374 36.36 84.5094 35.328 85.0534 34.48C85.5974 33.632 86.3334 32.984 87.2614 32.536C88.1894 32.088 89.2294 31.864 90.3814 31.864C91.5334 31.864 92.5654 32.088 93.4774 32.536C94.4054 32.968 95.1254 33.576 95.6374 34.36C96.1654 35.144 96.4294 36.064 96.4294 37.12V37.36C96.4294 38.432 96.2134 39.336 95.7814 40.072C95.3494 40.808 94.7494 41.416 93.9814 41.896C93.2294 42.36 92.3734 42.744 91.4134 43.048L89.9254 43.504C89.2054 43.728 88.6294 43.968 88.1974 44.224C87.7814 44.48 87.4854 44.776 87.3094 45.112C87.1334 45.432 87.0454 45.84 87.0454 46.336V46.504H96.2854V49H84.1894ZM105.158 49.336C103.19 49.336 101.614 48.784 100.43 47.68C99.2463 46.576 98.6543 44.912 98.6543 42.688V38.512C98.6543 36.336 99.2463 34.688 100.43 33.568C101.614 32.432 103.19 31.864 105.158 31.864C107.142 31.864 108.718 32.432 109.886 33.568C111.07 34.688 111.662 36.336 111.662 38.512V42.688C111.662 44.912 111.07 46.576 109.886 47.68C108.718 48.784 107.142 49.336 105.158 49.336ZM105.158 46.84C106.422 46.84 107.35 46.488 107.942 45.784C108.55 45.08 108.854 44.08 108.854 42.784V38.392C108.854 37.08 108.526 36.08 107.87 35.392C107.214 34.704 106.31 34.36 105.158 34.36C103.974 34.36 103.062 34.712 102.422 35.416C101.782 36.12 101.462 37.112 101.462 38.392V42.784C101.462 44.112 101.766 45.12 102.374 45.808C102.998 46.496 103.926 46.84 105.158 46.84ZM114.002 49V47.056C114.002 45.872 114.194 44.904 114.578 44.152C114.978 43.384 115.546 42.76 116.282 42.28C117.018 41.784 117.914 41.376 118.97 41.056L120.506 40.576C121.13 40.368 121.658 40.12 122.09 39.832C122.522 39.544 122.858 39.192 123.098 38.776C123.338 38.344 123.458 37.84 123.458 37.264V37.168C123.458 36.304 123.162 35.624 122.57 35.128C121.978 34.616 121.186 34.36 120.194 34.36C119.202 34.36 118.394 34.632 117.77 35.176C117.146 35.704 116.834 36.488 116.834 37.528V37.936H114.05V37.576C114.05 36.36 114.322 35.328 114.866 34.48C115.41 33.632 116.146 32.984 117.074 32.536C118.002 32.088 119.042 31.864 120.194 31.864C121.346 31.864 122.378 32.088 123.29 32.536C124.218 32.968 124.938 33.576 125.45 34.36C125.978 35.144 126.242 36.064 126.242 37.12V37.36C126.242 38.432 126.026 39.336 125.594 40.072C125.162 40.808 124.562 41.416 123.794 41.896C123.042 42.36 122.186 42.744 121.226 43.048L119.738 43.504C119.018 43.728 118.442 43.968 118.01 44.224C117.594 44.48 117.298 44.776 117.122 45.112C116.946 45.432 116.858 45.84 116.858 46.336V46.504H126.098V49H114.002ZM134.491 49.336C133.243 49.336 132.131 49.112 131.155 48.664C130.195 48.216 129.443 47.576 128.899 46.744C128.355 45.896 128.083 44.888 128.083 43.72V43.288H130.867V43.648C130.867 44.624 131.195 45.4 131.851 45.976C132.523 46.552 133.403 46.84 134.491 46.84C135.579 46.84 136.427 46.576 137.035 46.048C137.643 45.504 137.947 44.824 137.947 44.008V43.792C137.947 43.216 137.803 42.752 137.515 42.4C137.243 42.048 136.867 41.792 136.387 41.632C135.923 41.456 135.395 41.368 134.803 41.368H131.587V38.248L137.275 35.056V34.696H128.491V32.2H140.347V35.944L134.971 38.968V39.328H135.955C136.755 39.328 137.515 39.488 138.235 39.808C138.971 40.112 139.571 40.584 140.035 41.224C140.499 41.864 140.731 42.696 140.731 43.72V43.984C140.731 45.072 140.467 46.016 139.939 46.816C139.427 47.616 138.699 48.24 137.755 48.688C136.827 49.12 135.739 49.336 134.491 49.336Z" fill="white"/>
</g>
<g filter="url(#filter4_d_152_2775)">
<path d="M1.056 23V11.8H3.168V23H1.056ZM2.112 10.936C1.74933 10.936 1.44 10.8187 1.184 10.584C0.938667 10.3493 0.816 10.04 0.816 9.656C0.816 9.272 0.938667 8.96267 1.184 8.728C1.44 8.49333 1.74933 8.376 2.112 8.376C2.48533 8.376 2.79467 8.49333 3.04 8.728C3.28533 8.96267 3.408 9.272 3.408 9.656C3.408 10.04 3.28533 10.3493 3.04 10.584C2.79467 10.8187 2.48533 10.936 2.112 10.936ZM8.63475 23.224C7.60008 23.224 6.75208 23 6.09075 22.552C5.42942 22.104 5.02942 21.464 4.89075 20.632L6.74675 20.152C6.82142 20.5253 6.94408 20.8187 7.11475 21.032C7.29608 21.2453 7.51475 21.4 7.77075 21.496C8.03742 21.5813 8.32542 21.624 8.63475 21.624C9.10408 21.624 9.45075 21.544 9.67475 21.384C9.89875 21.2133 10.0108 21.0053 10.0108 20.76C10.0108 20.5147 9.90408 20.328 9.69075 20.2C9.47742 20.0613 9.13608 19.9493 8.66675 19.864L8.21875 19.784C7.66408 19.6773 7.15742 19.5333 6.69875 19.352C6.24008 19.16 5.87208 18.8987 5.59475 18.568C5.31742 18.2373 5.17875 17.8107 5.17875 17.288C5.17875 16.4987 5.46675 15.896 6.04275 15.48C6.61875 15.0533 7.37608 14.84 8.31475 14.84C9.20008 14.84 9.93608 15.0373 10.5228 15.432C11.1094 15.8267 11.4934 16.344 11.6748 16.984L9.80275 17.56C9.71742 17.1547 9.54142 16.8667 9.27475 16.696C9.01875 16.5253 8.69875 16.44 8.31475 16.44C7.93075 16.44 7.63742 16.5093 7.43475 16.648C7.23208 16.776 7.13075 16.9573 7.13075 17.192C7.13075 17.448 7.23742 17.64 7.45075 17.768C7.66408 17.8853 7.95208 17.976 8.31475 18.04L8.76275 18.12C9.36008 18.2267 9.89875 18.3707 10.3788 18.552C10.8694 18.7227 11.2534 18.9733 11.5308 19.304C11.8188 19.624 11.9628 20.0613 11.9628 20.616C11.9628 21.448 11.6588 22.0933 11.0508 22.552C10.4534 23 9.64808 23.224 8.63475 23.224ZM16.6131 23C16.0905 23 15.6638 22.84 15.3331 22.52C15.0131 22.1893 14.8531 21.752 14.8531 21.208V16.728H12.8691V15.064H14.8531V12.6H16.8691V15.064H19.0451V16.728H16.8691V20.856C16.8691 21.176 17.0185 21.336 17.3171 21.336H18.8531V23H16.6131ZM23.334 23.224C22.7687 23.224 22.262 23.128 21.814 22.936C21.366 22.7333 21.0087 22.4453 20.742 22.072C20.486 21.688 20.358 21.224 20.358 20.68C20.358 20.136 20.486 19.6827 20.742 19.32C21.0087 18.9467 21.3713 18.6693 21.83 18.488C22.2993 18.296 22.8327 18.2 23.43 18.2H25.606V17.752C25.606 17.3787 25.4887 17.0747 25.254 16.84C25.0193 16.5947 24.646 16.472 24.134 16.472C23.6327 16.472 23.2593 16.5893 23.014 16.824C22.7687 17.048 22.6087 17.3413 22.534 17.704L20.678 17.08C20.806 16.6747 21.0087 16.3067 21.286 15.976C21.574 15.6347 21.9527 15.3627 22.422 15.16C22.902 14.9467 23.4833 14.84 24.166 14.84C25.2113 14.84 26.038 15.1013 26.646 15.624C27.254 16.1467 27.558 16.904 27.558 17.896V20.856C27.558 21.176 27.7073 21.336 28.006 21.336H28.646V23H27.302C26.9073 23 26.582 22.904 26.326 22.712C26.07 22.52 25.942 22.264 25.942 21.944V21.928H25.638C25.5953 22.056 25.4993 22.2267 25.35 22.44C25.2007 22.6427 24.966 22.824 24.646 22.984C24.326 23.144 23.8887 23.224 23.334 23.224ZM23.686 21.592C24.2513 21.592 24.71 21.4373 25.062 21.128C25.4247 20.808 25.606 20.3867 25.606 19.864V19.704H23.574C23.2007 19.704 22.9073 19.784 22.694 19.944C22.4807 20.104 22.374 20.328 22.374 20.616C22.374 20.904 22.486 21.1387 22.71 21.32C22.934 21.5013 23.2593 21.592 23.686 21.592ZM30.12 23V15.064H32.104V16.104H32.392C32.52 15.8267 32.76 15.5653 33.112 15.32C33.464 15.064 33.9973 14.936 34.712 14.936C35.3307 14.936 35.8693 15.08 36.328 15.368C36.7973 15.6453 37.16 16.0347 37.416 16.536C37.672 17.0267 37.8 17.6027 37.8 18.264V23H35.784V18.424C35.784 17.8267 35.6347 17.3787 35.336 17.08C35.048 16.7813 34.632 16.632 34.088 16.632C33.4693 16.632 32.9893 16.84 32.648 17.256C32.3067 17.6613 32.136 18.232 32.136 18.968V23H30.12ZM44.7474 23.224C44.0327 23.224 43.4834 23.1013 43.0994 22.856C42.7154 22.6107 42.4327 22.3387 42.2514 22.04H41.9634V23H39.9794V11.8H41.9954V15.976H42.2834C42.4007 15.784 42.5554 15.6027 42.7474 15.432C42.95 15.2613 43.2114 15.1227 43.5314 15.016C43.862 14.8987 44.2674 14.84 44.7474 14.84C45.3874 14.84 45.9794 15 46.5234 15.32C47.0674 15.6293 47.5047 16.088 47.8354 16.696C48.166 17.304 48.3314 18.04 48.3314 18.904V19.16C48.3314 20.024 48.166 20.76 47.8354 21.368C47.5047 21.976 47.0674 22.44 46.5234 22.76C45.9794 23.0693 45.3874 23.224 44.7474 23.224ZM44.1394 21.464C44.758 21.464 45.2754 21.2667 45.6914 20.872C46.1074 20.4667 46.3154 19.88 46.3154 19.112V18.952C46.3154 18.184 46.1074 17.6027 45.6914 17.208C45.286 16.8027 44.7687 16.6 44.1394 16.6C43.5207 16.6 43.0034 16.8027 42.5874 17.208C42.1714 17.6027 41.9634 18.184 41.9634 18.952V19.112C41.9634 19.88 42.1714 20.4667 42.5874 20.872C43.0034 21.2667 43.5207 21.464 44.1394 21.464ZM53.2065 23.128C52.5878 23.128 52.0438 22.9893 51.5745 22.712C51.1158 22.424 50.7585 22.0293 50.5025 21.528C50.2465 21.0267 50.1185 20.4507 50.1185 19.8V15.064H52.1345V19.64C52.1345 20.2373 52.2785 20.6853 52.5665 20.984C52.8652 21.2827 53.2865 21.432 53.8305 21.432C54.4492 21.432 54.9292 21.2293 55.2705 20.824C55.6118 20.408 55.7825 19.832 55.7825 19.096V15.064H57.7985V23H55.8145V21.96H55.5265C55.3985 22.2267 55.1585 22.488 54.8065 22.744C54.4545 23 53.9212 23.128 53.2065 23.128ZM60.0419 23V11.8H62.0579V23H60.0419ZM68.2904 23V11.8H70.4024V16.248H70.6904L74.3224 11.8H77.0264L72.3544 17.32L77.1864 23H74.4024L70.6904 18.456H70.4024V23H68.2904ZM81.2065 23.128C80.5878 23.128 80.0438 22.9893 79.5745 22.712C79.1158 22.424 78.7585 22.0293 78.5025 21.528C78.2465 21.0267 78.1185 20.4507 78.1185 19.8V15.064H80.1345V19.64C80.1345 20.2373 80.2785 20.6853 80.5665 20.984C80.8652 21.2827 81.2865 21.432 81.8305 21.432C82.4492 21.432 82.9292 21.2293 83.2705 20.824C83.6118 20.408 83.7825 19.832 83.7825 19.096V15.064H85.7985V23H83.8145V21.96H83.5265C83.3985 22.2267 83.1585 22.488 82.8065 22.744C82.4545 23 81.9212 23.128 81.2065 23.128ZM83.6065 14.2C83.2438 14.2 82.9345 14.088 82.6785 13.864C82.4332 13.6293 82.3105 13.3147 82.3105 12.92C82.3105 12.5253 82.4332 12.216 82.6785 11.992C82.9345 11.7573 83.2438 11.64 83.6065 11.64C83.9798 11.64 84.2892 11.7573 84.5345 11.992C84.7798 12.216 84.9025 12.5253 84.9025 12.92C84.9025 13.3147 84.7798 13.6293 84.5345 13.864C84.2892 14.088 83.9798 14.2 83.6065 14.2ZM80.3105 14.2C79.9478 14.2 79.6385 14.088 79.3825 13.864C79.1372 13.6293 79.0145 13.3147 79.0145 12.92C79.0145 12.5253 79.1372 12.216 79.3825 11.992C79.6385 11.7573 79.9478 11.64 80.3105 11.64C80.6838 11.64 80.9932 11.7573 81.2385 11.992C81.4838 12.216 81.6065 12.5253 81.6065 12.92C81.6065 13.3147 81.4838 13.6293 81.2385 13.864C80.9932 14.088 80.6838 14.2 80.3105 14.2ZM88.0419 23V11.8H90.0579V23H88.0419ZM95.3319 23C94.8092 23 94.3825 22.84 94.0519 22.52C93.7319 22.1893 93.5719 21.752 93.5719 21.208V16.728H91.5879V15.064H93.5719V12.6H95.5879V15.064H97.7639V16.728H95.5879V20.856C95.5879 21.176 95.7372 21.336 96.0359 21.336H97.5719V23H95.3319ZM102.613 23.128C101.994 23.128 101.45 22.9893 100.981 22.712C100.522 22.424 100.165 22.0293 99.9088 21.528C99.6528 21.0267 99.5247 20.4507 99.5247 19.8V15.064H101.541V19.64C101.541 20.2373 101.685 20.6853 101.973 20.984C102.271 21.2827 102.693 21.432 103.237 21.432C103.855 21.432 104.335 21.2293 104.677 20.824C105.018 20.408 105.189 19.832 105.189 19.096V15.064H107.205V23H105.221V21.96H104.933C104.805 22.2267 104.565 22.488 104.213 22.744C103.861 23 103.327 23.128 102.613 23.128ZM105.013 14.2C104.65 14.2 104.341 14.088 104.085 13.864C103.839 13.6293 103.717 13.3147 103.717 12.92C103.717 12.5253 103.839 12.216 104.085 11.992C104.341 11.7573 104.65 11.64 105.013 11.64C105.386 11.64 105.695 11.7573 105.941 11.992C106.186 12.216 106.309 12.5253 106.309 12.92C106.309 13.3147 106.186 13.6293 105.941 13.864C105.695 14.088 105.386 14.2 105.013 14.2ZM101.717 14.2C101.354 14.2 101.045 14.088 100.789 13.864C100.543 13.6293 100.421 13.3147 100.421 12.92C100.421 12.5253 100.543 12.216 100.789 11.992C101.045 11.7573 101.354 11.64 101.717 11.64C102.09 11.64 102.399 11.7573 102.645 11.992C102.89 12.216 103.013 12.5253 103.013 12.92C103.013 13.3147 102.89 13.6293 102.645 13.864C102.399 14.088 102.09 14.2 101.717 14.2ZM109.448 23V15.064H111.432V15.96H111.72C111.837 15.64 112.029 15.4053 112.296 15.256C112.573 15.1067 112.893 15.032 113.256 15.032H114.216V16.824H113.224C112.712 16.824 112.291 16.9627 111.96 17.24C111.629 17.5067 111.464 17.9227 111.464 18.488V23H109.448ZM124.11 23.224C123.193 23.224 122.404 23.0587 121.742 22.728C121.092 22.3867 120.59 21.9067 120.238 21.288C119.897 20.6587 119.726 19.9173 119.726 19.064V11.8H121.838V19.128C121.838 19.8107 122.03 20.3493 122.414 20.744C122.809 21.1387 123.374 21.336 124.11 21.336C124.846 21.336 125.406 21.1387 125.79 20.744C126.185 20.3493 126.382 19.8107 126.382 19.128V11.8H128.494V19.064C128.494 19.9173 128.318 20.6587 127.966 21.288C127.625 21.9067 127.124 22.3867 126.462 22.728C125.812 23.0587 125.028 23.224 124.11 23.224ZM125.886 10.936C125.524 10.936 125.214 10.824 124.958 10.6C124.713 10.3653 124.59 10.0507 124.59 9.656C124.59 9.26133 124.713 8.952 124.958 8.728C125.214 8.49333 125.524 8.376 125.886 8.376C126.26 8.376 126.569 8.49333 126.814 8.728C127.06 8.952 127.182 9.26133 127.182 9.656C127.182 10.0507 127.06 10.3653 126.814 10.6C126.569 10.824 126.26 10.936 125.886 10.936ZM122.334 10.936C121.972 10.936 121.662 10.824 121.406 10.6C121.161 10.3653 121.038 10.0507 121.038 9.656C121.038 9.26133 121.161 8.952 121.406 8.728C121.662 8.49333 121.972 8.376 122.334 8.376C122.708 8.376 123.017 8.49333 123.262 8.728C123.508 8.952 123.63 9.26133 123.63 9.656C123.63 10.0507 123.508 10.3653 123.262 10.6C123.017 10.824 122.708 10.936 122.334 10.936ZM130.604 23V15.064H132.588V16.104H132.876C133.004 15.8267 133.244 15.5653 133.596 15.32C133.948 15.064 134.482 14.936 135.196 14.936C135.815 14.936 136.354 15.08 136.812 15.368C137.282 15.6453 137.644 16.0347 137.9 16.536C138.156 17.0267 138.284 17.6027 138.284 18.264V23H136.268V18.424C136.268 17.8267 136.119 17.3787 135.82 17.08C135.532 16.7813 135.116 16.632 134.572 16.632C133.954 16.632 133.474 16.84 133.132 17.256C132.791 17.6613 132.62 18.232 132.62 18.968V23H130.604ZM140.464 23V15.064H142.48V23H140.464ZM141.472 14.136C141.109 14.136 140.8 14.0187 140.544 13.784C140.298 13.5493 140.176 13.24 140.176 12.856C140.176 12.472 140.298 12.1627 140.544 11.928C140.8 11.6933 141.109 11.576 141.472 11.576C141.845 11.576 142.154 11.6933 142.4 11.928C142.645 12.1627 142.768 12.472 142.768 12.856C142.768 13.24 142.645 13.5493 142.4 13.784C142.154 14.0187 141.845 14.136 141.472 14.136ZM146.378 23L143.85 15.064H145.994L147.834 21.528H148.122L149.962 15.064H152.106L149.578 23H146.378ZM156.861 23.224C156.072 23.224 155.373 23.0587 154.765 22.728C154.168 22.3867 153.698 21.912 153.357 21.304C153.026 20.6853 152.861 19.96 152.861 19.128V18.936C152.861 18.104 153.026 17.384 153.357 16.776C153.688 16.1573 154.152 15.6827 154.749 15.352C155.346 15.0107 156.04 14.84 156.829 14.84C157.608 14.84 158.285 15.016 158.861 15.368C159.437 15.7093 159.885 16.1893 160.205 16.808C160.525 17.416 160.685 18.1253 160.685 18.936V19.624H154.909C154.93 20.168 155.133 20.6107 155.517 20.952C155.901 21.2933 156.37 21.464 156.925 21.464C157.49 21.464 157.906 21.3413 158.173 21.096C158.44 20.8507 158.642 20.5787 158.781 20.28L160.429 21.144C160.28 21.4213 160.061 21.7253 159.773 22.056C159.496 22.376 159.122 22.6533 158.653 22.888C158.184 23.112 157.586 23.224 156.861 23.224ZM154.925 18.12H158.637C158.594 17.6613 158.408 17.2933 158.077 17.016C157.757 16.7387 157.336 16.6 156.813 16.6C156.269 16.6 155.837 16.7387 155.517 17.016C155.197 17.2933 155 17.6613 154.925 18.12ZM162.479 23V15.064H164.463V15.96H164.751C164.869 15.64 165.061 15.4053 165.327 15.256C165.605 15.1067 165.925 15.032 166.287 15.032H167.247V16.824H166.255C165.743 16.824 165.322 16.9627 164.991 17.24C164.661 17.5067 164.495 17.9227 164.495 18.488V23H162.479ZM171.932 23.224C170.897 23.224 170.049 23 169.388 22.552C168.726 22.104 168.326 21.464 168.188 20.632L170.044 20.152C170.118 20.5253 170.241 20.8187 170.412 21.032C170.593 21.2453 170.812 21.4 171.068 21.496C171.334 21.5813 171.622 21.624 171.932 21.624C172.401 21.624 172.748 21.544 172.972 21.384C173.196 21.2133 173.308 21.0053 173.308 20.76C173.308 20.5147 173.201 20.328 172.988 20.2C172.774 20.0613 172.433 19.9493 171.964 19.864L171.516 19.784C170.961 19.6773 170.454 19.5333 169.996 19.352C169.537 19.16 169.169 18.8987 168.892 18.568C168.614 18.2373 168.476 17.8107 168.476 17.288C168.476 16.4987 168.764 15.896 169.34 15.48C169.916 15.0533 170.673 14.84 171.612 14.84C172.497 14.84 173.233 15.0373 173.82 15.432C174.406 15.8267 174.79 16.344 174.972 16.984L173.1 17.56C173.014 17.1547 172.838 16.8667 172.572 16.696C172.316 16.5253 171.996 16.44 171.612 16.44C171.228 16.44 170.934 16.5093 170.732 16.648C170.529 16.776 170.428 16.9573 170.428 17.192C170.428 17.448 170.534 17.64 170.748 17.768C170.961 17.8853 171.249 17.976 171.612 18.04L172.06 18.12C172.657 18.2267 173.196 18.3707 173.676 18.552C174.166 18.7227 174.55 18.9733 174.828 19.304C175.116 19.624 175.26 20.0613 175.26 20.616C175.26 21.448 174.956 22.0933 174.348 22.552C173.75 23 172.945 23.224 171.932 23.224ZM177.026 23V15.064H179.042V23H177.026ZM178.034 14.136C177.672 14.136 177.362 14.0187 177.106 13.784C176.861 13.5493 176.738 13.24 176.738 12.856C176.738 12.472 176.861 12.1627 177.106 11.928C177.362 11.6933 177.672 11.576 178.034 11.576C178.408 11.576 178.717 11.6933 178.962 11.928C179.208 12.1627 179.33 12.472 179.33 12.856C179.33 13.24 179.208 13.5493 178.962 13.784C178.717 14.0187 178.408 14.136 178.034 14.136ZM184.316 23C183.794 23 183.367 22.84 183.036 22.52C182.716 22.1893 182.556 21.752 182.556 21.208V16.728H180.572V15.064H182.556V12.6H184.572V15.064H186.748V16.728H184.572V20.856C184.572 21.176 184.722 21.336 185.02 21.336H186.556V23H184.316ZM191.908 23.224C191.119 23.224 190.42 23.0587 189.812 22.728C189.215 22.3867 188.745 21.912 188.404 21.304C188.073 20.6853 187.908 19.96 187.908 19.128V18.936C187.908 18.104 188.073 17.384 188.404 16.776C188.735 16.1573 189.199 15.6827 189.796 15.352C190.393 15.0107 191.087 14.84 191.876 14.84C192.655 14.84 193.332 15.016 193.908 15.368C194.484 15.7093 194.932 16.1893 195.252 16.808C195.572 17.416 195.732 18.1253 195.732 18.936V19.624H189.956C189.977 20.168 190.18 20.6107 190.564 20.952C190.948 21.2933 191.417 21.464 191.972 21.464C192.537 21.464 192.953 21.3413 193.22 21.096C193.487 20.8507 193.689 20.5787 193.828 20.28L195.476 21.144C195.327 21.4213 195.108 21.7253 194.82 22.056C194.543 22.376 194.169 22.6533 193.7 22.888C193.231 23.112 192.633 23.224 191.908 23.224ZM189.972 18.12H193.684C193.641 17.6613 193.455 17.2933 193.124 17.016C192.804 16.7387 192.383 16.6 191.86 16.6C191.316 16.6 190.884 16.7387 190.564 17.016C190.244 17.2933 190.047 17.6613 189.972 18.12ZM200.822 23.224C199.788 23.224 198.94 23 198.278 22.552C197.617 22.104 197.217 21.464 197.078 20.632L198.934 20.152C199.009 20.5253 199.132 20.8187 199.302 21.032C199.484 21.2453 199.702 21.4 199.958 21.496C200.225 21.5813 200.513 21.624 200.822 21.624C201.292 21.624 201.638 21.544 201.862 21.384C202.086 21.2133 202.198 21.0053 202.198 20.76C202.198 20.5147 202.092 20.328 201.878 20.2C201.665 20.0613 201.324 19.9493 200.854 19.864L200.406 19.784C199.852 19.6773 199.345 19.5333 198.886 19.352C198.428 19.16 198.06 18.8987 197.782 18.568C197.505 18.2373 197.366 17.8107 197.366 17.288C197.366 16.4987 197.654 15.896 198.23 15.48C198.806 15.0533 199.564 14.84 200.502 14.84C201.388 14.84 202.124 15.0373 202.71 15.432C203.297 15.8267 203.681 16.344 203.862 16.984L201.99 17.56C201.905 17.1547 201.729 16.8667 201.462 16.696C201.206 16.5253 200.886 16.44 200.502 16.44C200.118 16.44 199.825 16.5093 199.622 16.648C199.42 16.776 199.318 16.9573 199.318 17.192C199.318 17.448 199.425 17.64 199.638 17.768C199.852 17.8853 200.14 17.976 200.502 18.04L200.95 18.12C201.548 18.2267 202.086 18.3707 202.566 18.552C203.057 18.7227 203.441 18.9733 203.718 19.304C204.006 19.624 204.15 20.0613 204.15 20.616C204.15 21.448 203.846 22.0933 203.238 22.552C202.641 23 201.836 23.224 200.822 23.224ZM205.917 23V15.064H207.933V23H205.917ZM206.925 14.136C206.562 14.136 206.253 14.0187 205.997 13.784C205.752 13.5493 205.629 13.24 205.629 12.856C205.629 12.472 205.752 12.1627 205.997 11.928C206.253 11.6933 206.562 11.576 206.925 11.576C207.298 11.576 207.608 11.6933 207.853 11.928C208.098 12.1627 208.221 12.472 208.221 12.856C208.221 13.24 208.098 13.5493 207.853 13.784C207.608 14.0187 207.298 14.136 206.925 14.136Z" fill="white"/>
</g>
<defs>
<filter id="filter0_d_152_2775" x="378.438" y="10.9954" width="47.2656" height="213.917" filterUnits="userSpaceOnUse" color-interpolation-filters="sRGB">
<feFlood flood-opacity="0" result="BackgroundImageFix"/>
<feColorMatrix in="SourceAlpha" type="matrix" values="0 0 0 0 0 0 0 0 0 0 0 0 0 0 0 0 0 0 127 0" result="hardAlpha"/>
<feOffset dy="4"/>
<feGaussianBlur stdDeviation="2"/>
<feComposite in2="hardAlpha" operator="out"/>
<feColorMatrix type="matrix" values="0 0 0 0 0 0 0 0 0 0 0 0 0 0 0 0 0 0 0.25 0"/>
<feBlend mode="normal" in2="BackgroundImageFix" result="effect1_dropShadow_152_2775"/>
<feBlend mode="normal" in="SourceGraphic" in2="effect1_dropShadow_152_2775" result="shape"/>
</filter>
<filter id="filter1_d_152_2775" x="421.387" y="0" width="175.613" height="42.9709" filterUnits="userSpaceOnUse" color-interpolation-filters="sRGB">
<feFlood flood-opacity="0" result="BackgroundImageFix"/>
<feColorMatrix in="SourceAlpha" type="matrix" values="0 0 0 0 0 0 0 0 0 0 0 0 0 0 0 0 0 0 127 0" result="hardAlpha"/>
<feOffset dy="4"/>
<feGaussianBlur stdDeviation="2"/>
<feComposite in2="hardAlpha" operator="out"/>
<feColorMatrix type="matrix" values="0 0 0 0 0 0 0 0 0 0 0 0 0 0 0 0 0 0 0.25 0"/>
<feBlend mode="normal" in2="BackgroundImageFix" result="effect1_dropShadow_152_2775"/>
<feBlend mode="normal" in="SourceGraphic" in2="effect1_dropShadow_152_2775" result="shape"/>
</filter>
<filter id="filter2_ddd_152_2775" x="424.264" y="51.5667" width="26.8618" height="36.3284" filterUnits="userSpaceOnUse" color-interpolation-filters="sRGB">
<feFlood flood-opacity="0" result="BackgroundImageFix"/>
<feColorMatrix in="SourceAlpha" type="matrix" values="0 0 0 0 0 0 0 0 0 0 0 0 0 0 0 0 0 0 127 0" result="hardAlpha"/>
<feOffset dx="3" dy="5"/>
<feGaussianBlur stdDeviation="2"/>
<feComposite in2="hardAlpha" operator="out"/>
<feColorMatrix type="matrix" values="0 0 0 0 0.108974 0 0 0 0 0.0789891 0 0 0 0 0.0789891 0 0 0 0.25 0"/>
<feBlend mode="normal" in2="BackgroundImageFix" result="effect1_dropShadow_152_2775"/>
<feColorMatrix in="SourceAlpha" type="matrix" values="0 0 0 0 0 0 0 0 0 0 0 0 0 0 0 0 0 0 127 0" result="hardAlpha"/>
<feOffset dy="4"/>
<feGaussianBlur stdDeviation="2"/>
<feComposite in2="hardAlpha" operator="out"/>
<feColorMatrix type="matrix" values="0 0 0 0 0 0 0 0 0 0 0 0 0 0 0 0 0 0 0.25 0"/>
<feBlend mode="normal" in2="effect1_dropShadow_152_2775" result="effect2_dropShadow_152_2775"/>
<feColorMatrix in="SourceAlpha" type="matrix" values="0 0 0 0 0 0 0 0 0 0 0 0 0 0 0 0 0 0 127 0" result="hardAlpha"/>
<feOffset dy="4"/>
<feGaussianBlur stdDeviation="2"/>
<feComposite in2="hardAlpha" operator="out"/>
<feColorMatrix type="matrix" values="0 0 0 0 0 0 0 0 0 0 0 0 0 0 0 0 0 0 0.25 0"/>
<feBlend mode="normal" in2="effect2_dropShadow_152_2775" result="effect3_dropShadow_152_2775"/>
<feBlend mode="normal" in="SourceGraphic" in2="effect3_dropShadow_152_2775" result="shape"/>
</filter>
<filter id="filter3_d_152_2775" x="0.671875" y="29.864" width="145.06" height="21.4719" filterUnits="userSpaceOnUse" color-interpolation-filters="sRGB">
<feFlood flood-opacity="0" result="BackgroundImageFix"/>
<feColorMatrix in="SourceAlpha" type="matrix" values="0 0 0 0 0 0 0 0 0 0 0 0 0 0 0 0 0 0 127 0" result="hardAlpha"/>
<feOffset dx="3"/>
<feGaussianBlur stdDeviation="1"/>
<feComposite in2="hardAlpha" operator="out"/>
<feColorMatrix type="matrix" values="0 0 0 0 0 0 0 0 0 0 0 0 0 0 0 0 0 0 0.25 0"/>
<feBlend mode="normal" in2="BackgroundImageFix" result="effect1_dropShadow_152_2775"/>
<feBlend mode="normal" in="SourceGraphic" in2="effect1_dropShadow_152_2775" result="shape"/>
</filter>
<filter id="filter4_d_152_2775" x="0.815918" y="6.37598" width="212.405" height="18.8481" filterUnits="userSpaceOnUse" color-interpolation-filters="sRGB">
<feFlood flood-opacity="0" result="BackgroundImageFix"/>
<feColorMatrix in="SourceAlpha" type="matrix" values="0 0 0 0 0 0 0 0 0 0 0 0 0 0 0 0 0 0 127 0" result="hardAlpha"/>
<feOffset dx="3"/>
<feGaussianBlur stdDeviation="1"/>
<feComposite in2="hardAlpha" operator="out"/>
<feColorMatrix type="matrix" values="0 0 0 0 0 0 0 0 0 0 0 0 0 0 0 0 0 0 0.25 0"/>
<feBlend mode="normal" in2="BackgroundImageFix" result="effect1_dropShadow_152_2775"/>
<feBlend mode="normal" in="SourceGraphic" in2="effect1_dropShadow_152_2775" result="shape"/>
</filter>
</defs>
</svg>
