<svg width="597" height="225" viewBox="0 0 597 225" fill="none" xmlns="http://www.w3.org/2000/svg">
<path d="M8.92618 131.124L0 67.9724H15.9419L21.5545 120.302H23.8502L32.0122 67.9724H57.7729L65.9349 120.302H68.2307L73.8433 67.9724H89.7851L80.859 131.124H54.2057L46.0437 78.7948H43.7479L35.5859 131.124H8.92618Z" fill="white"/>
<path d="M132.371 132.907C126.078 132.907 120.532 131.57 115.729 128.896C110.926 126.223 107.185 122.446 104.507 117.564C101.829 112.685 100.49 106.934 100.49 100.311V98.7821C100.49 92.1624 101.807 86.4114 104.443 81.5292C107.076 76.6501 110.775 72.8706 115.536 70.1971C120.298 67.5235 125.821 66.1868 132.114 66.1868C138.407 66.1868 143.718 67.5684 148.309 70.3253C152.901 73.0854 156.471 76.9034 159.021 81.7856C161.57 86.6679 162.848 92.3323 162.848 98.7821V104.257H116.811C116.981 108.585 118.596 112.108 121.656 114.827C124.716 117.545 128.457 118.901 132.878 118.901C137.299 118.901 140.7 117.926 142.825 115.971C144.951 114.019 146.566 111.855 147.671 109.476L160.806 116.352C159.615 118.561 157.894 120.959 155.64 123.546C153.386 126.136 150.39 128.342 146.649 130.166C142.906 131.99 138.147 132.903 132.368 132.903L132.371 132.907ZM116.939 92.2906H146.524C146.184 88.6426 144.717 85.7126 142.125 83.5039C139.531 81.2983 136.153 80.1924 131.986 80.1924C127.818 80.1924 124.206 81.2951 121.656 83.5039C119.107 85.7126 117.53 88.6394 116.936 92.2906H116.939Z" fill="white"/>
<path d="M215.134 132.907C209.438 132.907 205.058 131.929 201.998 129.977C198.938 128.024 196.684 125.861 195.239 123.482H192.943V131.121H177.13V42H193.197V75.2301H195.493C196.427 73.701 197.679 72.2616 199.256 70.9024C200.829 69.5464 202.91 68.4212 205.504 67.5268C208.095 66.6357 211.306 66.1901 215.134 66.1901C220.236 66.1901 224.952 67.4435 229.29 69.9471C233.625 72.4508 237.112 76.1213 239.748 80.9618C242.381 85.7992 243.701 91.656 243.701 98.5322V100.568C243.701 107.444 242.381 113.301 239.748 118.138C237.112 122.976 233.628 126.649 229.29 129.153C224.956 131.656 220.236 132.91 215.134 132.91V132.907ZM210.288 118.901C215.217 118.901 219.343 117.311 222.66 114.128C225.977 110.945 227.633 106.296 227.633 100.186V98.9137C227.633 92.8036 225.996 88.1554 222.724 84.9722C219.449 81.7889 215.307 80.1989 210.292 80.1989C205.276 80.1989 201.237 81.7889 197.923 84.9722C194.607 88.1554 192.95 92.8036 192.95 98.9137V100.186C192.95 106.296 194.607 110.945 197.923 114.128C201.24 117.311 205.363 118.901 210.292 118.901H210.288Z" fill="white"/>
<path d="M301.368 223.003C285.927 223.003 272.245 220.269 260.326 214.809C248.405 209.35 239.074 201.493 232.331 191.248C225.588 181.006 222.217 168.859 222.217 154.812V149.545H259.739V153.642C259.739 164.573 263.55 173.302 271.173 179.835C278.795 186.375 288.858 189.638 301.368 189.638C313.877 189.638 323.889 186.615 330.827 180.566C337.763 174.52 341.234 166.91 341.234 157.739V154.812C341.234 148.57 339.667 143.499 336.543 139.595C333.415 135.693 329.212 132.818 323.937 130.962C318.661 129.109 312.695 128.182 306.055 128.182H265.014V87.2073L331.264 52.0859V47.4024H227.492V14.0344H372.893V63.7898L311.039 96.5679V101.251H321.885C331.068 101.251 340.007 103.107 348.708 106.813C357.4 110.522 364.583 116.228 370.253 123.935C375.92 131.644 378.756 141.643 378.756 153.934V157.444C378.756 170.715 375.532 182.275 369.081 192.126C362.631 201.98 353.589 209.591 341.966 214.954C330.336 220.32 316.802 223.003 301.364 223.003H301.368Z" fill="white"/>
<g filter="url(#filter0_d_152_2775)">
<path d="M413.59 207.154C413.59 208.869 413.16 210.472 412.303 211.969C411.446 213.466 410.187 214.662 408.53 215.563C406.873 216.463 404.867 216.912 402.51 216.912H401.813C399.456 216.912 397.449 216.463 395.793 215.563C394.136 214.662 392.877 213.473 392.02 211.991C391.163 210.51 390.732 208.898 390.732 207.157C390.732 205.849 390.886 204.756 391.191 203.868C391.497 202.984 391.882 202.265 392.347 201.711C392.813 201.159 393.307 200.74 393.831 200.448V199.662H382.442V194.174H412.984V199.576H410.367V200.361C411.182 200.855 411.924 201.618 412.592 202.647C413.26 203.679 413.597 205.179 413.597 207.154H413.59ZM408.79 205.5C408.79 203.817 408.244 202.406 407.153 201.275C406.061 200.143 404.468 199.576 402.375 199.576H401.938C399.845 199.576 398.252 200.137 397.16 201.252C396.069 202.371 395.523 203.785 395.523 205.5C395.523 207.215 396.069 208.593 397.16 209.725C398.252 210.857 399.845 211.424 401.938 211.424H402.375C404.468 211.424 406.061 210.857 407.153 209.725C408.244 208.593 408.79 207.183 408.79 205.5Z" fill="white"/>
<path d="M413.59 178.229C413.59 180.38 413.131 182.275 412.216 183.913C411.301 185.554 410.007 186.83 408.334 187.747C406.661 188.661 404.689 189.119 402.423 189.119H401.899C399.629 189.119 397.661 188.67 395.988 187.77C394.315 186.869 393.021 185.606 392.106 183.98C391.191 182.355 390.732 180.467 390.732 178.316C390.732 176.165 391.204 174.351 392.151 172.783C393.095 171.215 394.405 169.994 396.078 169.125C397.751 168.253 399.693 167.817 401.902 167.817H403.778V183.544C405.261 183.487 406.468 182.935 407.399 181.89C408.331 180.845 408.796 179.566 408.796 178.056C408.796 176.546 408.462 175.386 407.791 174.658C407.123 173.934 406.382 173.379 405.566 173.004L407.923 168.516C408.681 168.923 409.503 169.51 410.389 170.279C411.275 171.049 412.033 172.071 412.659 173.35C413.285 174.629 413.596 176.255 413.596 178.229H413.59ZM399.671 183.5V173.392C398.422 173.507 397.417 174.011 396.659 174.896C395.905 175.78 395.526 176.938 395.526 178.358C395.526 179.778 395.905 181.015 396.659 181.887C397.417 182.759 398.419 183.298 399.671 183.5Z" fill="white"/>
<path d="M412.98 159.018L391.339 165.9V160.063L408.966 155.052V154.267L391.339 149.256V143.419L412.98 150.302V159.015V159.018Z" fill="white"/>
<path d="M413.59 130.442C413.59 132.593 413.131 134.488 412.216 136.126C411.301 137.767 410.007 139.043 408.334 139.96C406.661 140.874 404.689 141.332 402.423 141.332H401.899C399.629 141.332 397.661 140.883 395.988 139.982C394.315 139.082 393.021 137.819 392.106 136.193C391.191 134.568 390.732 132.68 390.732 130.529C390.732 128.378 391.204 126.563 392.151 124.996C393.095 123.428 394.405 122.207 396.078 121.338C397.751 120.466 399.693 120.03 401.902 120.03H403.778V135.757C405.261 135.7 406.468 135.148 407.399 134.103C408.331 133.058 408.796 131.779 408.796 130.269C408.796 128.759 408.462 127.599 407.791 126.871C407.123 126.147 406.382 125.592 405.566 125.217L407.923 120.729C408.681 121.136 409.503 121.723 410.389 122.492C411.275 123.262 412.033 124.284 412.659 125.563C413.285 126.842 413.596 128.468 413.596 130.442H413.59ZM399.671 135.712V125.605C398.422 125.72 397.417 126.224 396.659 127.108C395.905 127.993 395.526 129.15 395.526 130.571C395.526 131.991 395.905 133.228 396.659 134.1C397.417 134.972 398.419 135.511 399.671 135.712Z" fill="white"/>
<path d="M412.98 115.151H382.438V109.663H412.98V115.151Z" fill="white"/>
<path d="M413.59 93.2851C413.59 95.4362 413.153 97.366 412.28 99.0778C411.407 100.793 410.142 102.142 408.485 103.13C406.828 104.117 404.834 104.611 402.506 104.611H401.809C399.482 104.611 397.491 104.117 395.831 103.13C394.174 102.142 392.909 100.793 392.036 99.0778C391.162 97.366 390.726 95.4329 390.726 93.2851C390.726 91.1373 391.162 89.2043 392.036 87.4925C392.909 85.7806 394.174 84.4278 395.831 83.4405C397.488 82.4531 399.482 81.9595 401.809 81.9595H402.506C404.834 81.9595 406.825 82.4531 408.485 83.4405C410.142 84.4278 411.407 85.7774 412.28 87.4925C413.153 89.2075 413.59 91.1373 413.59 93.2851ZM408.703 93.2851C408.703 91.6022 408.157 90.2077 407.066 89.1017C405.974 87.999 404.41 87.4476 402.375 87.4476H401.938C399.902 87.4476 398.339 87.9926 397.247 89.0825C396.155 90.1724 395.609 91.5733 395.609 93.2851C395.609 94.997 396.155 96.3626 397.247 97.4686C398.339 98.5713 399.902 99.1227 401.938 99.1227H402.375C404.41 99.1227 405.974 98.5713 407.066 97.4686C408.157 96.3658 408.703 94.9713 408.703 93.2851Z" fill="white"/>
<path d="M421.704 76.9042H391.336V71.5026H393.953V70.7172C393.108 70.2235 392.36 69.4542 391.705 68.4091C391.05 67.364 390.723 65.867 390.723 63.9211C390.723 62.1773 391.153 60.568 392.01 59.087C392.868 57.606 394.126 56.4166 395.783 55.5158C397.44 54.6151 399.447 54.1663 401.803 54.1663H402.5C404.857 54.1663 406.864 54.6183 408.52 55.5158C410.177 56.4166 411.436 57.606 412.293 59.087C413.15 60.568 413.581 62.1805 413.581 63.9211C413.581 65.2291 413.427 66.3254 413.122 67.2102C412.817 68.0949 412.425 68.8066 411.943 69.3452C411.465 69.8837 410.977 70.3101 410.482 70.6306V71.416H421.695V76.9042H421.704ZM408.79 65.5785C408.79 63.8666 408.244 62.4497 407.153 61.331C406.061 60.2122 404.468 59.6544 402.375 59.6544H401.938C399.845 59.6544 398.252 60.2218 397.16 61.3534C396.069 62.485 395.523 63.8955 395.523 65.5785C395.523 67.2615 396.069 68.672 397.16 69.8036C398.252 70.9352 399.845 71.5026 401.938 71.5026H402.375C404.468 71.5026 406.061 70.9352 407.153 69.8036C408.244 68.672 408.79 67.2615 408.79 65.5785Z" fill="white"/>
<path d="M413.59 39.2663C413.59 41.4173 413.131 43.3119 412.216 44.95C411.301 46.5913 410.007 47.8671 408.334 48.784C406.661 49.6976 404.689 50.156 402.423 50.156H401.899C399.629 50.156 397.661 49.7072 395.988 48.8064C394.315 47.9056 393.021 46.6426 392.106 45.0173C391.191 43.392 390.732 41.5039 390.732 39.3529C390.732 37.2018 391.204 35.3874 392.151 33.8198C393.095 32.2523 394.405 31.0309 396.078 30.1622C397.751 29.2902 399.693 28.8542 401.902 28.8542H403.778V44.5813C405.261 44.5236 406.468 43.9722 407.399 42.9272C408.331 41.8821 408.796 40.6031 408.796 39.0932C408.796 37.5833 408.462 36.4229 407.791 35.6952C407.123 34.9707 406.382 34.4193 405.566 34.041L407.923 29.5531C408.681 29.9602 409.503 30.5468 410.389 31.3162C411.275 32.0856 412.033 33.1082 412.659 34.3873C413.285 35.6663 413.596 37.2916 413.596 39.2663H413.59ZM399.671 44.5364V34.4289C398.422 34.5443 397.417 35.0476 396.659 35.9324C395.905 36.8204 395.526 37.9744 395.526 39.3945C395.526 40.8146 395.905 42.052 396.659 42.924C397.417 43.7959 398.419 44.3345 399.671 44.5364Z" fill="white"/>
<path d="M412.98 23.9784H391.339V18.5768H393.783V17.7914C392.909 17.4708 392.27 16.9419 391.863 16.2014C391.455 15.4609 391.252 14.5985 391.252 13.608V10.9954H396.139V13.6978C396.139 15.0922 396.509 16.2399 397.254 17.1407C397.995 18.0414 399.138 18.4902 400.68 18.4902H412.983V23.9784H412.98Z" fill="white"/>
</g>
<g filter="url(#filter1_d_152_2775)">
<path d="M436.644 34.9708C433.533 34.9708 430.983 34.2977 428.996 32.9545C427.005 31.6081 425.804 29.6879 425.387 27.1907L430.967 25.7481C431.192 26.8701 431.568 27.7484 432.097 28.3896C432.627 29.0307 433.282 29.4859 434.069 29.7584C434.856 30.0309 435.713 30.1655 436.644 30.1655C438.054 30.1655 439.097 29.9187 439.771 29.4218C440.446 28.9249 440.783 28.3094 440.783 27.5721C440.783 26.8348 440.462 26.2674 439.82 25.8667C439.177 25.466 438.15 25.139 436.74 24.8826L435.392 24.6421C433.722 24.3216 432.2 23.8824 430.823 23.3214C429.442 22.7604 428.338 21.9846 427.503 20.9909C426.668 20.0003 426.25 18.718 426.25 17.1473C426.25 14.7783 427.117 12.9606 428.848 11.6944C430.579 10.4314 432.858 9.79663 435.681 9.79663C438.343 9.79663 440.555 10.3897 442.321 11.5726C444.084 12.7587 445.239 14.3102 445.785 16.2304L440.157 17.9583C439.9 16.7433 439.38 15.8778 438.593 15.3649C437.806 14.852 436.837 14.5955 435.684 14.5955C434.531 14.5955 433.648 14.7975 433.038 15.195C432.428 15.5957 432.123 16.1471 432.123 16.8523C432.123 17.6217 432.444 18.1891 433.086 18.5578C433.729 18.9264 434.592 19.2053 435.684 19.3976L437.032 19.6381C438.827 19.9586 440.455 20.3818 441.916 20.9107C443.374 21.4397 444.53 22.193 445.381 23.1675C446.232 24.1453 446.655 25.466 446.655 27.1297C446.655 29.627 445.75 31.5568 443.936 32.9192C442.125 34.2816 439.694 34.9612 436.647 34.9612L436.644 34.9708Z" fill="white"/>
<path d="M461.034 34.6822C459.175 34.6822 457.547 34.2591 456.15 33.4095C454.753 32.56 453.671 31.3836 452.904 29.8801C452.133 28.3766 451.748 26.6456 451.748 24.6933V10.4729H457.81V24.2092C457.81 26.0044 458.25 27.3476 459.133 28.2452C460.016 29.1428 461.275 29.5916 462.909 29.5916C464.768 29.5916 466.213 28.9761 467.24 27.7419C468.268 26.5109 468.778 24.7895 468.778 22.5776V10.4729H474.841V34.2975H468.875V31.1752H468.008C467.623 31.9766 466.9 32.7588 465.844 33.5282C464.784 34.2975 463.182 34.6822 461.034 34.6822Z" fill="white"/>
<path d="M481.577 34.2977V10.4731H487.542V13.0665H488.409C488.827 12.265 489.517 11.5694 490.477 10.9764C491.44 10.3833 492.706 10.0884 494.279 10.0884C495.977 10.0884 497.342 10.4186 498.369 11.0725C499.397 11.7297 500.18 12.5856 500.726 13.6435H501.593C502.139 12.6177 502.906 11.7714 503.902 11.0982C504.894 10.425 506.307 10.0884 508.137 10.0884C509.611 10.0884 510.953 10.3993 512.154 11.0244C513.358 11.6495 514.318 12.5952 515.04 13.8583C515.763 15.1245 516.122 16.7177 516.122 18.6379V34.2977H510.06V19.0739C510.06 17.7628 509.723 16.7754 509.049 16.1215C508.374 15.4643 507.43 15.1373 506.21 15.1373C504.83 15.1373 503.764 15.5765 503.012 16.4581C502.258 17.3396 501.882 18.5963 501.882 20.2279V34.3009H495.82V19.0739C495.82 17.7628 495.483 16.7754 494.809 16.1215C494.134 15.4643 493.19 15.1373 491.97 15.1373C490.59 15.1373 489.524 15.5765 488.772 16.4581C488.018 17.3396 487.642 18.5963 487.642 20.2279V34.3009H481.58L481.577 34.2977Z" fill="white"/>
<path d="M522.663 34.2977V10.4731H528.628V13.0665H529.495C529.913 12.265 530.603 11.5694 531.563 10.9764C532.526 10.3833 533.791 10.0884 535.365 10.0884C537.063 10.0884 538.428 10.4186 539.455 11.0725C540.483 11.7297 541.266 12.5856 541.812 13.6435H542.679C543.225 12.6177 543.992 11.7714 544.988 11.0982C545.98 10.425 547.393 10.0884 549.223 10.0884C550.697 10.0884 552.039 10.3993 553.24 11.0244C554.444 11.6495 555.404 12.5952 556.126 13.8583C556.849 15.1245 557.208 16.7177 557.208 18.6379V34.2977H551.146V19.0739C551.146 17.7628 550.809 16.7754 550.135 16.1215C549.46 15.4643 548.516 15.1373 547.296 15.1373C545.916 15.1373 544.85 15.5765 544.098 16.4581C543.344 17.3396 542.968 18.5963 542.968 20.2279V34.3009H536.906V19.0739C536.906 17.7628 536.569 16.7754 535.895 16.1215C535.22 15.4643 534.276 15.1373 533.056 15.1373C531.675 15.1373 530.609 15.5765 529.858 16.4581C529.104 17.3396 528.728 18.5963 528.728 20.2279V34.3009H522.666L522.663 34.2977Z" fill="white"/>
<path d="M566.78 7.68722C565.688 7.68722 564.767 7.3346 564.012 6.62935C563.257 5.9241 562.882 4.99766 562.882 3.84361C562.882 2.68957 563.257 1.76312 564.012 1.05787C564.767 0.352625 565.688 0 566.78 0C567.871 0 568.832 0.352625 569.57 1.05787C570.309 1.76312 570.678 2.68957 570.678 3.84361C570.678 4.99766 570.309 5.9241 569.57 6.62935C568.832 7.3346 567.9 7.68722 566.78 7.68722ZM563.749 34.2976V10.473H569.811V34.2976H563.749Z" fill="white"/>
<path d="M585.685 34.2975C584.115 34.2975 582.837 33.8103 581.861 32.8325C580.882 31.8548 580.394 30.5501 580.394 28.9184V15.4706H574.428V10.4761H580.394V3.07739H586.456V10.4729H593V15.4674H586.456V27.8605C586.456 28.8222 586.906 29.3031 587.805 29.3031H592.422V34.2975H585.685Z" fill="white"/>
</g>
<g filter="url(#filter2_ddd_152_2775)">
<path d="M441.993 51.5667V57.3561H438.667C436.05 57.3561 434.743 58.664 434.743 61.2735V63.9983H436.194C438.468 63.9983 440.359 64.6779 441.865 66.0403C443.371 67.4027 444.125 69.1338 444.125 71.2335C444.125 73.5031 443.371 75.3496 441.865 76.7665C440.359 78.1866 438.468 78.8951 436.194 78.8951C433.921 78.8951 431.959 78.1706 430.482 76.7248C429.002 75.2791 428.264 73.3332 428.264 70.8937V61.1036C428.264 54.7467 431.446 51.5699 437.813 51.5699H441.99L441.993 51.5667Z" fill="white"/>
<path d="M452.31 112.349V105.198C452.31 101.056 452.994 97.6065 454.355 94.8528C455.72 92.0991 457.695 89.8295 460.282 88.0407C462.867 86.2519 466.04 84.7934 469.79 83.6553L475.502 81.8666C477.605 81.187 479.368 80.3503 480.79 79.3565C482.209 78.3628 483.304 77.1574 484.072 75.7373C484.839 74.3204 485.221 72.7015 485.221 70.8839V70.5441C485.221 67.7071 484.255 65.4503 482.322 63.7769C480.389 62.1035 477.746 61.2669 474.391 61.2669C471.036 61.2669 468.435 62.1612 466.418 63.95C464.399 65.7388 463.391 68.3065 463.391 71.6533V73.1856H452.477V71.8232C452.477 67.5115 453.443 63.8506 455.376 60.8405C457.309 57.8336 459.939 55.5351 463.262 53.9451C466.589 52.3583 470.297 51.5601 474.391 51.5601C478.485 51.5601 482.177 52.3422 485.475 53.9002C488.772 55.4614 491.373 57.6444 493.277 60.4558C495.181 63.264 496.132 66.5723 496.132 70.3742V71.2269C496.132 75.0288 495.348 78.2506 493.788 80.8888C492.224 83.5271 490.105 85.6845 487.433 87.3579C484.762 89.0313 481.721 90.4097 478.308 91.4868L472.85 93.189C470.406 93.9263 468.502 94.7374 467.138 95.6157C465.773 96.4973 464.819 97.4622 464.28 98.5105C463.741 99.5619 463.471 100.825 463.471 102.3V102.639H495.618V112.346H452.3L452.31 112.349Z" fill="white"/>
<path d="M502.961 112.349V105.198C502.961 101.056 503.645 97.6065 505.006 94.8528C506.371 92.0991 508.345 89.8295 510.933 88.0407C513.518 86.2519 516.69 84.7934 520.441 83.6553L526.153 81.8666C528.256 81.187 530.019 80.3503 531.441 79.3565C532.86 78.3628 533.955 77.1574 534.723 75.7373C535.49 74.3204 535.872 72.7015 535.872 70.8839V70.5441C535.872 67.7071 534.906 65.4503 532.973 63.7769C531.04 62.1035 528.397 61.2669 525.042 61.2669C521.686 61.2669 519.086 62.1612 517.069 63.95C515.05 65.7388 514.041 68.3065 514.041 71.6533V73.1856H503.128V71.8232C503.128 67.5115 504.094 63.8506 506.027 60.8405C507.96 57.8336 510.59 55.5351 513.913 53.9451C517.239 52.3583 520.948 51.5601 525.042 51.5601C529.136 51.5601 532.828 52.3422 536.126 53.9002C539.423 55.4614 542.024 57.6444 543.928 60.4558C545.832 63.264 546.783 66.5723 546.783 70.3742V71.2269C546.783 75.0288 545.999 78.2506 544.439 80.8888C542.875 83.5271 540.756 85.6845 538.084 87.3579C535.413 89.0313 532.372 90.4097 528.959 91.4868L523.501 93.189C521.057 93.9263 519.153 94.7374 517.789 95.6157C516.424 96.4973 515.47 97.4622 514.931 98.5105C514.391 99.5619 514.122 100.825 514.122 102.3V102.639H546.269V112.346H502.951L502.961 112.349Z" fill="white"/>
</g>
<defs>
<filter id="filter0_d_152_2775" x="378.438" y="10.9954" width="47.2656" height="213.917" filterUnits="userSpaceOnUse" color-interpolation-filters="sRGB">
<feFlood flood-opacity="0" result="BackgroundImageFix"/>
<feColorMatrix in="SourceAlpha" type="matrix" values="0 0 0 0 0 0 0 0 0 0 0 0 0 0 0 0 0 0 127 0" result="hardAlpha"/>
<feOffset dy="4"/>
<feGaussianBlur stdDeviation="2"/>
<feComposite in2="hardAlpha" operator="out"/>
<feColorMatrix type="matrix" values="0 0 0 0 0 0 0 0 0 0 0 0 0 0 0 0 0 0 0.25 0"/>
<feBlend mode="normal" in2="BackgroundImageFix" result="effect1_dropShadow_152_2775"/>
<feBlend mode="normal" in="SourceGraphic" in2="effect1_dropShadow_152_2775" result="shape"/>
</filter>
<filter id="filter1_d_152_2775" x="421.387" y="0" width="175.613" height="42.9709" filterUnits="userSpaceOnUse" color-interpolation-filters="sRGB">
<feFlood flood-opacity="0" result="BackgroundImageFix"/>
<feColorMatrix in="SourceAlpha" type="matrix" values="0 0 0 0 0 0 0 0 0 0 0 0 0 0 0 0 0 0 127 0" result="hardAlpha"/>
<feOffset dy="4"/>
<feGaussianBlur stdDeviation="2"/>
<feComposite in2="hardAlpha" operator="out"/>
<feColorMatrix type="matrix" values="0 0 0 0 0 0 0 0 0 0 0 0 0 0 0 0 0 0 0.25 0"/>
<feBlend mode="normal" in2="BackgroundImageFix" result="effect1_dropShadow_152_2775"/>
<feBlend mode="normal" in="SourceGraphic" in2="effect1_dropShadow_152_2775" result="shape"/>
</filter>
<filter id="filter2_ddd_152_2775" x="424.264" y="51.5601" width="129.519" height="69.7893" filterUnits="userSpaceOnUse" color-interpolation-filters="sRGB">
<feFlood flood-opacity="0" result="BackgroundImageFix"/>
<feColorMatrix in="SourceAlpha" type="matrix" values="0 0 0 0 0 0 0 0 0 0 0 0 0 0 0 0 0 0 127 0" result="hardAlpha"/>
<feOffset dx="3" dy="5"/>
<feGaussianBlur stdDeviation="2"/>
<feComposite in2="hardAlpha" operator="out"/>
<feColorMatrix type="matrix" values="0 0 0 0 0.108974 0 0 0 0 0.0789891 0 0 0 0 0.0789891 0 0 0 0.25 0"/>
<feBlend mode="normal" in2="BackgroundImageFix" result="effect1_dropShadow_152_2775"/>
<feColorMatrix in="SourceAlpha" type="matrix" values="0 0 0 0 0 0 0 0 0 0 0 0 0 0 0 0 0 0 127 0" result="hardAlpha"/>
<feOffset dy="4"/>
<feGaussianBlur stdDeviation="2"/>
<feComposite in2="hardAlpha" operator="out"/>
<feColorMatrix type="matrix" values="0 0 0 0 0 0 0 0 0 0 0 0 0 0 0 0 0 0 0.25 0"/>
<feBlend mode="normal" in2="effect1_dropShadow_152_2775" result="effect2_dropShadow_152_2775"/>
<feColorMatrix in="SourceAlpha" type="matrix" values="0 0 0 0 0 0 0 0 0 0 0 0 0 0 0 0 0 0 127 0" result="hardAlpha"/>
<feOffset dy="4"/>
<feGaussianBlur stdDeviation="2"/>
<feComposite in2="hardAlpha" operator="out"/>
<feColorMatrix type="matrix" values="0 0 0 0 0 0 0 0 0 0 0 0 0 0 0 0 0 0 0.25 0"/>
<feBlend mode="normal" in2="effect2_dropShadow_152_2775" result="effect3_dropShadow_152_2775"/>
<feBlend mode="normal" in="SourceGraphic" in2="effect3_dropShadow_152_2775" result="shape"/>
</filter>
</defs>
</svg>
