<svg width="1440" height="346" viewBox="0 0 1440 346" fill="none" xmlns="http://www.w3.org/2000/svg">
<rect x="-50" y="247" width="1545" height="112" fill="url(#paint0_linear_169_2737)"/>
<rect x="-50" y="251" width="1545" height="108" fill="url(#paint1_linear_169_2737)"/>
<path fill-rule="evenodd" clip-rule="evenodd" d="M1313.78 65.951V222.089H1322.95V65.951H1313.78ZM1336.72 46.7323V58.8978H1340.41V46.7323H1336.72ZM1296.32 46.7323V58.8978H1300.01V46.7323H1296.32ZM1303.05 46.7323V58.8978H1306.75V46.7323H1303.05ZM1309.79 46.7323V58.8978H1313.48V46.7323H1309.79ZM1316.52 46.7323V58.8978H1320.21V46.7323H1316.52ZM1323.26 46.7323V58.8978H1326.95V46.7323H1323.26ZM1329.99 46.7323V58.8978H1333.68V46.7323H1329.99ZM1331.25 65.951V222.089H1340.42V65.951H1331.25ZM1296.32 65.951V222.089H1305.49V65.951H1296.32ZM1295 39.6623C1296.84 27.1556 1306.21 17.5687 1317.6 17.2191L1318.37 0L1319.14 17.2275C1330.42 17.7113 1339.67 27.2479 1341.49 39.6623H1347.51V237.552H1354.02V90.573L1391.37 139.064V237.552H1398.25V203.617H1435.61V216.191H1467.38V237.552H1494.88V247.732L1289.25 247.732V247.737H1055.13V247.732H1041.49V247.735H958.653V247.732H938.042L957.953 242.952L958.653 245.253V228.972L957.221 228.74L958.619 222.123V216.636L960.099 214.98V203.905L960.078 203.876C948.712 202.149 936.733 200.584 924.221 199.185V248.988H921.735V206.064H911.306V248.988H908.82V197.574C872.049 193.98 831.238 191.745 788.242 190.976C754.555 190.372 722.174 192.319 691.997 195.415V248.99H686.722V211.859H668.227V248.99H662.952V198.796C637.827 202.045 614.629 205.825 593.964 209.192L593.961 209.193L593.96 209.193C591.146 209.652 588.378 210.103 585.659 210.543L585.659 238.573L601.114 247.838H585.659L585.659 247.841L585.659 247.844H536.464V247.841H-50V238.81H127.852V227.377C127.852 227.377 142.732 218.048 143.483 206.436C144.325 193.406 151.245 30.2011 151.245 30.2011L157.309 26.3193L161.009 28.0337L163.314 26.7332L191.51 40.5236C191.51 40.5236 195.423 204.35 195.423 206.433C195.423 221.401 207.369 222.094 207.369 222.094H229.177V210.1L231.166 184.756C231.166 184.756 230.383 184.544 230.383 184.203C230.383 183.862 230.941 183.266 230.941 183.266V143.016C230.941 143.016 230.493 142.941 230.493 142.558C230.493 142.174 231.014 142.037 231.014 142.037V139.185C231.014 139.018 230.76 138.733 230.49 138.43L230.489 138.43C230.346 138.269 230.198 138.104 230.082 137.949C229.82 137.599 229.803 137.372 229.803 136.925C229.803 136.478 229.803 135.966 229.727 135.924C229.654 135.882 229.243 135.563 229.448 135.116C229.618 134.747 229.609 134.422 229.601 134.104C229.599 134.037 229.598 133.969 229.598 133.902C229.598 133.683 229.561 133.442 229.529 133.237L229.529 133.237V133.236L229.529 133.236C229.506 133.083 229.485 132.949 229.485 132.859C229.485 132.845 229.485 132.832 229.485 132.818C229.483 132.614 229.48 132.378 229.95 132.221C230.454 132.05 231.57 131.816 231.57 131.816V113.671C231.57 113.671 230.956 112.499 230.88 112.328C230.806 112.158 230.88 111.903 231.066 111.797C231.252 111.691 231.421 111.649 231.421 111.649L235.798 86.9038V85.8187C235.798 85.8187 235.475 85.6789 235.444 85.3713C235.387 84.8287 235.806 84.6777 235.806 84.6777V84.37C235.806 84.37 235.6 84.37 235.6 84.0932C235.6 83.8163 235.842 83.8583 235.842 83.8583L235.852 83.4528C235.852 83.4528 235.664 83.4304 235.676 83.1115C235.686 82.8459 235.965 82.8235 235.965 82.8235L236.068 81.0672C236.068 81.0672 235.649 80.9945 235.63 80.5554C235.61 80.1499 235.835 79.8422 235.835 79.8422C235.835 79.8422 235.798 80.2673 235.891 80.4715C235.984 80.6729 236.185 80.6729 236.185 80.6729C236.185 80.6729 236.381 80.6729 236.474 80.4715C236.567 80.2701 236.53 79.8422 236.53 79.8422C236.53 79.8422 236.753 80.1527 236.736 80.5554C236.716 80.9945 236.298 81.0672 236.298 81.0672L236.4 82.8235C236.4 82.8235 236.679 82.8459 236.689 83.1115C236.701 83.4304 236.513 83.4528 236.513 83.4528L236.523 83.8583C236.523 83.8583 236.765 83.8163 236.765 84.0932C236.765 84.37 236.559 84.37 236.559 84.37V84.6777C236.559 84.6777 236.978 84.8259 236.922 85.3713C236.89 85.6789 236.567 85.8187 236.567 85.8187V86.9038L240.944 111.649C240.944 111.649 241.113 111.691 241.299 111.797C241.485 111.903 241.561 112.161 241.485 112.328C241.412 112.499 240.795 113.671 240.795 113.671V131.816C240.795 131.816 241.913 132.05 242.415 132.221C242.886 132.38 242.883 132.613 242.88 132.816L242.88 132.841L242.88 132.859C242.88 132.949 242.859 133.083 242.836 133.236C242.804 133.442 242.767 133.682 242.767 133.902L242.767 133.94C242.767 133.964 242.767 133.988 242.766 134.012C242.765 134.043 242.765 134.073 242.764 134.104C242.756 134.422 242.747 134.747 242.917 135.116C243.122 135.563 242.711 135.882 242.638 135.924C242.564 135.966 242.564 136.478 242.564 136.925C242.564 137.372 242.547 137.596 242.285 137.949C242.169 138.104 242.021 138.269 241.878 138.429C241.608 138.732 241.353 139.017 241.353 139.185V142.037C241.353 142.037 241.874 142.186 241.874 142.558C241.874 142.929 241.426 143.016 241.426 143.016V183.266C241.426 183.266 241.984 183.862 241.984 184.203C241.984 184.544 241.201 184.756 241.201 184.756L242.691 203.709L243.09 199.94C243.09 199.94 242.618 199.755 242.569 199.363C242.542 199.14 242.997 198.916 242.997 198.916V165.887C242.997 165.887 242.829 165.739 242.829 165.504C242.829 165.269 243.108 165.163 243.108 165.163V162.819C243.108 162.819 242.138 161.776 242.138 161.628V160.414C242.138 160.414 241.933 159.902 241.97 159.754C242.006 159.606 242.156 159.265 242.156 159.265V158.264C242.156 158.264 241.97 157.794 242.082 157.668C242.195 157.539 243.572 157.243 243.572 157.243V142.72C243.572 142.72 243.237 142.208 243.164 141.995C243.088 141.783 243.015 141.442 243.051 141.4C243.088 141.358 243.555 141.229 243.555 141.229L247.133 119.421V118.378C247.133 118.378 246.824 118.296 246.856 117.936C246.883 117.608 247.169 117.567 247.169 117.567V117.332C247.169 117.332 246.971 117.346 246.993 117.102C247.008 116.923 247.226 116.99 247.226 116.99V116.672C247.226 116.672 247.094 116.644 247.118 116.49C247.138 116.37 247.292 116.409 247.292 116.409L247.444 114.202L247.593 116.409C247.593 116.409 247.747 116.37 247.767 116.49C247.793 116.644 247.661 116.672 247.661 116.672V116.99C247.661 116.99 247.879 116.923 247.894 117.102C247.913 117.346 247.718 117.332 247.718 117.332V117.567C247.718 117.567 248.004 117.608 248.031 117.936C248.06 118.294 247.754 118.378 247.754 118.378V119.421L251.332 141.229C251.332 141.229 251.797 141.358 251.836 141.4C251.873 141.442 251.799 141.783 251.723 141.995C251.647 142.208 251.312 142.72 251.312 142.72V157.243C251.312 157.243 252.692 157.542 252.802 157.668C252.915 157.797 252.729 158.264 252.729 158.264V159.265C252.729 159.265 252.878 159.606 252.915 159.754C252.952 159.902 252.746 160.414 252.746 160.414V161.628C252.746 161.776 251.777 162.819 251.777 162.819V165.163C251.777 165.163 252.056 165.269 252.056 165.504C252.056 165.739 251.887 165.887 251.887 165.887V198.916C251.887 198.916 252.345 199.14 252.316 199.363C252.267 199.752 251.794 199.94 251.794 199.94L252.45 208.542L256.527 207.01H259.116L262.451 208.394L267.705 206.201V194.872L267.071 194.234V193.745H267.91V190.912H269.922L270.22 191.572L270.761 191.53V192.979L271.71 192.573V185.204L271.617 184.673H272.065C272.065 184.673 272.442 183.353 273.374 182.734C273.981 182.332 274.828 182.158 274.828 182.158V181.711H275.183V181.403C275.183 181.403 275.014 181.456 275.014 181.221C275.014 180.987 275.229 180.975 275.229 180.975L275.403 179.432L275.562 180.975C275.562 180.975 275.777 180.987 275.777 181.221C275.777 181.456 275.608 181.403 275.608 181.403V181.711H275.963V182.158C275.963 182.158 276.81 182.332 277.417 182.734C278.349 183.353 278.741 184.631 278.741 184.631L279.971 184.054V182.01L280.718 181.521V179.241C280.718 179.241 281.574 178.092 282.692 178.156C283.296 178.19 284.043 177.458 284.744 176.771C284.967 176.552 285.186 176.338 285.394 176.154C287.033 174.705 289.008 173.514 292.772 172.278C296.452 171.07 304.659 169.808 304.659 169.808L305.031 161.843L305.293 169.68L306.56 169.722V165.25H307.008V164.612L307.38 163.972H308.126L309.132 160.266L308.574 159.117C308.574 159.117 310.774 157.114 312.301 156.093C313.828 155.073 317.405 152.858 317.405 152.858C317.405 152.858 321.653 145.15 328.659 140.166C333.281 136.877 343.938 134.651 343.938 134.651V133.138C343.938 132.277 344.723 131.693 345.227 131.317L345.227 131.317L345.228 131.316C345.41 131.181 345.555 131.072 345.614 130.988C345.837 130.669 345.969 129.539 345.969 129.539C345.969 129.539 345.671 129.444 345.671 128.974C345.671 128.504 346.118 128.496 346.118 128.496V127.581C346.118 127.581 345.803 127.559 345.803 127.304C345.803 127.05 346.194 127.05 346.194 127.05V126.219C346.194 126.219 345.71 126.219 345.71 125.708C345.71 125.159 346.214 125.131 346.214 125.131V124.13C346.214 124.13 346.008 124.136 346.008 123.976C346.008 123.828 346.214 123.811 346.214 123.811V123.235C346.214 123.235 346.008 123.266 346.008 123.087C346.008 122.939 346.214 122.917 346.214 122.917V122.128C346.214 122.128 346.008 122.064 346.008 121.851C346.008 121.638 346.231 121.552 346.231 121.552L346.353 120.744L346.476 121.552C346.476 121.552 346.698 121.636 346.698 121.851C346.698 122.066 346.493 122.128 346.493 122.128V122.917C346.493 122.917 346.698 122.939 346.698 123.087C346.698 123.269 346.493 123.235 346.493 123.235V123.811C346.493 123.811 346.698 123.828 346.698 123.976C346.698 124.136 346.493 124.13 346.493 124.13V125.131C346.493 125.131 346.997 125.157 346.997 125.708C346.997 126.219 346.512 126.219 346.512 126.219V127.05C346.512 127.05 346.904 127.05 346.904 127.304C346.904 127.559 346.588 127.581 346.588 127.581V128.496C346.588 128.496 347.036 128.524 347.036 128.974C347.036 129.424 346.737 129.539 346.737 129.539C346.737 129.539 346.867 130.669 347.092 130.988C347.151 131.072 347.297 131.181 347.479 131.317L347.479 131.317C347.984 131.693 348.768 132.277 348.768 133.138V134.651C348.768 134.651 359.425 136.877 364.047 140.166C371.053 145.15 375.301 152.858 375.301 152.858C375.301 152.858 378.879 155.073 380.405 156.093C381.932 157.117 384.132 159.117 384.132 159.117L383.574 160.266L384.237 162.708C384.237 162.708 385.456 160.649 388.4 160.649C391.344 160.649 392.498 163.93 392.498 163.93H393.467V164.525L392.721 165.121V173.511L395.888 174.277V175.81L401.476 179.432L406.879 181.434L409.972 182.242L411.463 182.371L412.319 182.754V182.978H411.649V183.649H412.804V184.245L412.246 184.798V187.396L413.178 187.95L414.781 188.079L415.488 188.887L414.93 189.354V191.824C414.93 191.824 416.102 191.194 417.389 190.845C418.684 190.492 419.141 190.568 419.141 190.568L419.205 188.247L419.281 190.568C419.281 190.568 419.738 190.492 421.033 190.845C422.32 191.194 423.487 191.824 423.487 191.824C423.487 191.824 423.913 193.272 424.172 193.826C424.434 194.38 424.955 195.146 424.955 195.146V197.445L431.888 198.852L434.016 199.489L433.862 166.908C433.862 166.908 432.11 165.225 432.11 164.928V162.607C432.11 162.372 433.936 162.053 433.936 162.053V149.787C433.936 149.787 433.508 149.594 433.527 149.51C433.547 149.426 435.688 127.299 435.688 127.299V126.586C435.688 126.586 435.455 126.639 435.446 126.331C435.436 126.038 435.651 126.032 435.651 126.032L435.666 125.473C435.666 125.473 435.475 125.478 435.465 125.277C435.45 124.98 435.693 124.994 435.693 124.994L435.715 124.306C435.715 124.306 435.421 124.312 435.416 123.965C435.411 123.546 435.732 123.56 435.732 123.56L435.876 121.378L436.018 123.56C436.018 123.56 436.341 123.543 436.334 123.965C436.329 124.312 436.035 124.306 436.035 124.306L436.057 124.994C436.057 124.994 436.3 124.978 436.285 125.277C436.275 125.478 436.084 125.473 436.084 125.473L436.099 126.032C436.099 126.032 436.314 126.038 436.304 126.331C436.295 126.639 436.062 126.586 436.062 126.586V127.299C436.062 127.299 438.206 149.426 438.223 149.51C438.242 149.594 437.814 149.787 437.814 149.787V162.053C437.814 162.053 439.64 162.372 439.64 162.607V164.928C439.64 165.227 437.888 166.908 437.888 166.908L439.779 208.053L442.835 210.95V204.305L450.666 201.665L450.661 151.747C450.661 151.747 449.993 149.219 449.677 148.822C449.608 148.735 449.531 148.644 449.452 148.55C449.17 148.215 448.87 147.859 448.87 147.633C448.87 147.345 448.823 146.459 448.823 146.459C448.823 146.459 448.571 146.369 448.571 146.025V144.311C448.571 144.166 448.586 143.785 449.362 143.57C450.137 143.352 451.145 143.209 451.145 143.209V130.395C451.145 130.395 450.893 130.358 450.893 130.196C450.893 130.034 451.099 129.889 451.099 129.889V127.833L450.661 127.615V127.162L451.099 127.016L453.531 100.319V99.5056C453.531 99.5056 453.279 99.5196 453.279 99.2315C453.279 98.8959 453.548 98.8904 453.548 98.8904V98.0821C453.548 98.0821 453.279 98.0709 453.279 97.8164C453.279 97.5172 453.612 97.5032 453.612 97.5032V96.7089C453.612 96.7089 453.289 96.7481 453.279 96.295C453.269 95.842 453.644 95.8448 453.644 95.8448V94.8324C453.644 94.8324 453.465 94.8044 453.487 94.5136C453.504 94.2674 453.786 94.2898 453.786 94.2898L453.957 92.8468L454.116 94.2898C454.116 94.2898 454.397 94.2674 454.415 94.5136C454.437 94.8016 454.258 94.8324 454.258 94.8324V95.8448C454.258 95.8448 454.632 95.842 454.623 96.295C454.613 96.7481 454.29 96.7089 454.29 96.7089V97.5032C454.29 97.5032 454.623 97.5172 454.623 97.8164C454.623 98.0709 454.353 98.0821 454.353 98.0821V98.8904C454.353 98.8904 454.623 98.8959 454.623 99.2315C454.623 99.5196 454.371 99.5056 454.371 99.5056V100.319L456.803 127.016L457.241 127.162V127.615L456.803 127.833V129.889C456.803 129.889 457.008 130.034 457.008 130.196C457.008 130.358 456.756 130.395 456.756 130.395V143.209C456.756 143.209 457.764 143.355 458.54 143.57C459.316 143.788 459.331 144.166 459.331 144.311V146.025C459.331 146.369 459.076 146.459 459.076 146.459C459.076 146.459 459.03 147.345 459.03 147.633C459.03 147.861 458.724 148.223 458.439 148.561L458.438 148.562C458.363 148.651 458.289 148.739 458.222 148.822C457.906 149.219 457.745 151.747 457.745 151.747V187.268C457.745 187.268 462.624 180.5 468.328 177.301C474.179 174.02 477.869 173.553 477.869 173.553V161.799L477.162 161.715V160.862L478.243 160.392H478.951C478.951 160.392 479.433 156.728 482.303 156.728C485.173 156.728 485.663 160.392 485.663 160.392H486.37L487.451 160.862V161.715L486.744 161.799V173.553C486.744 173.553 490.65 173.561 496.285 177.301C506.046 183.775 511.711 195.7 511.711 195.7V205.41L519.164 208.307V238.81H536.464V137.504C536.464 137.504 536.117 137.37 536.124 136.81C536.129 136.472 536.435 136.223 536.435 136.223C536.435 136.223 535.995 135.583 535.434 135.009C535.342 134.915 535.248 134.825 535.156 134.736C534.793 134.387 534.445 134.052 534.252 133.555C534.01 132.931 534.282 132.411 534.708 132.168C535.131 131.925 536.768 131.648 536.768 131.648V113.492C536.768 113.339 536.685 113.175 536.605 113.019C536.54 112.891 536.478 112.769 536.464 112.661C536.435 112.418 536.587 112.107 536.587 112.107C536.587 112.107 536.406 111.934 536.222 111.831C536.179 111.806 536.076 111.753 535.945 111.685C535.526 111.471 534.813 111.104 534.766 111C534.729 110.915 534.626 110.296 534.529 109.721L534.527 109.708L534.527 109.706C534.466 109.338 534.407 108.991 534.372 108.816C534.301 108.46 534.418 108.406 534.619 108.314C534.673 108.29 534.732 108.262 534.796 108.226C535.099 108.052 536.403 107.845 536.403 107.845C536.403 107.845 536.19 105.161 536.176 104.814C536.159 104.411 539.631 104.277 539.631 104.277V97.4501C539.631 97.4501 537.889 96.4797 537.857 95.8896C537.827 95.2995 538.554 94.8492 539.389 94.6423C540.223 94.4353 543.754 94.1584 543.754 94.1584L548.318 79.9514L548.499 72.7444L550.559 73.0212L560.685 37.9706C560.685 37.9706 559.395 37.744 559.366 36.2031C559.336 34.6621 560.609 34.2986 560.609 34.2986V32.7744C560.609 32.6798 560.41 32.4004 560.212 32.1221C560.013 31.841 559.814 31.5611 559.821 31.4739C559.824 31.44 559.841 31.2171 559.868 30.8793C559.976 29.4935 560.236 26.1738 560.261 26.0344C560.291 25.861 560.717 25.861 560.717 25.861V25.3073C560.717 25.3073 560.474 25.2373 560.474 24.8402C560.474 24.4431 560.731 24.2865 560.731 24.2865V23.8894C560.731 23.8894 560.55 23.8026 560.55 23.5426C560.55 23.2825 560.748 23.1426 560.748 23.1426V17.6332C560.748 17.3899 560.929 17.3899 561.066 17.3899C561.203 17.3899 561.372 17.3899 561.372 17.6332V23.1426C561.372 23.1426 561.568 23.2825 561.568 23.5426C561.568 23.8026 561.387 23.8894 561.387 23.8894V24.2865C561.387 24.2865 561.644 24.4431 561.644 24.8402C561.644 25.2373 561.402 25.3073 561.402 25.3073V25.861C561.402 25.861 561.828 25.861 561.857 26.0344C561.877 26.1515 562.063 28.5114 562.187 30.0854L562.187 30.0892L562.19 30.1294C562.231 30.6442 562.264 31.0702 562.283 31.2983C562.291 31.396 562.296 31.4574 562.297 31.4739C562.305 31.5608 562.107 31.8383 561.908 32.118C561.709 32.3969 561.509 32.678 561.509 32.7744V34.2986C561.509 34.2986 562.782 34.6621 562.752 36.2031C562.723 37.744 561.434 37.9706 561.434 37.9706L571.559 73.0212L573.622 72.7444L573.803 79.9514L578.367 94.1584C578.367 94.1584 581.898 94.4353 582.732 94.6423C583.567 94.8492 584.293 95.2995 584.264 95.8896C584.235 96.4797 582.49 97.4501 582.49 97.4501V104.277C582.49 104.277 585.965 104.411 585.945 104.814C585.93 105.161 585.717 107.845 585.717 107.845C585.717 107.845 587.022 108.052 587.325 108.226C587.389 108.262 587.448 108.289 587.502 108.314C587.704 108.406 587.822 108.46 587.748 108.816C587.713 108.991 587.655 109.339 587.593 109.708C587.497 110.286 587.392 110.915 587.354 111C587.307 111.108 586.577 111.481 586.16 111.694L586.152 111.699C586.092 111.73 586.038 111.757 585.995 111.779C585.952 111.802 585.919 111.819 585.898 111.831C585.717 111.934 585.534 112.107 585.534 112.107C585.534 112.107 585.686 112.418 585.656 112.661C585.643 112.771 585.58 112.894 585.515 113.022C585.436 113.177 585.353 113.34 585.353 113.492V131.648C585.353 131.648 586.99 131.925 587.416 132.168C587.839 132.411 588.113 132.931 587.871 133.555C587.676 134.056 587.324 134.394 586.958 134.746C586.921 134.782 586.883 134.818 586.845 134.855L586.787 134.912C586.754 134.944 586.721 134.976 586.689 135.009C586.129 135.58 585.688 136.223 585.688 136.223C585.688 136.223 585.994 136.472 585.999 136.81C586.006 137.37 585.659 137.504 585.659 137.504V199.581C590.814 198.768 596.144 197.984 601.638 197.235C603.563 195.599 606.754 192.747 610.64 188.739C631.432 167.3 644.555 141.067 655.454 111.859C659.413 101.245 661.973 92.9643 662.954 89.6698V81.8476H668.23V87.1025L686.724 87.1137V81.8476H692V87.894C695.712 92.0526 702.365 99.2764 711.316 108.075C725.585 122.103 745.684 140.127 769.014 156.124C793.582 172.971 814.45 183.739 832.036 187.687C853.699 187.836 869.869 181.655 884.348 171.07C892.464 165.135 902.49 155.568 908.82 146.414V144.247H911.306V146.932L911.661 148.059H920.132C920.69 147.256 921.226 146.456 921.735 145.659V144.247H924.221V146.789C924.767 148.604 930.006 165.924 934.814 177.175C939.128 187.271 943.009 196.673 944.096 199.319C949.465 200.056 954.718 200.817 959.846 201.598L960.033 201.433V192.344L959.436 191.508V190.204L960.322 189.329V183.489L952.846 176.327H952.3V175.217H952.778V169.805L956.047 169.26H958.856V156.141H958.176L958.193 155.615L959.265 155.383V154.508C959.265 154.351 957.902 153.534 957.902 153.534V152.969C957.902 152.969 959.399 152.424 959.808 152.192C960.015 152.074 960.046 151.729 960.111 151.014C960.174 150.317 960.269 149.267 960.591 147.734C961.169 144.974 962.347 143.539 963.369 142.294L963.381 142.279C963.436 142.213 963.49 142.147 963.543 142.082C963.583 142.033 963.622 141.985 963.661 141.937C963.74 141.838 963.818 141.741 963.894 141.643C964.697 140.611 965.94 138.801 965.94 138.801V135.219C965.94 134.948 966.077 134.693 966.229 134.693H967.626C967.626 134.693 967.795 133.955 967.863 133.622C967.932 133.292 968.169 131.597 968.169 131.597L966.332 131.032L965.394 130.37V129.765H965.974V125.154L969.515 123.985H971.881V120.853L974.113 118.965L974.25 74.3159C974.25 74.3159 974.13 74.1593 973.978 73.9272C973.824 73.6923 973.775 73.3623 973.775 73.3623H973.521V72.7778H973.315V71.8437C973.315 71.8437 972.769 71.455 972.769 70.6943C972.769 69.7126 973.433 69.4302 973.433 69.4302V69.0023L974.164 68.0682V67.6599C974.164 67.6599 974.086 67.6543 973.893 67.6011C973.638 67.534 973.655 67.2991 973.69 66.8432C973.697 66.7514 973.721 66.4464 973.755 66.0309L973.756 66.0137L973.759 65.976L973.761 65.9544C973.87 64.5956 974.064 62.1873 974.064 61.9966C974.064 61.7421 974.301 61.6862 974.301 61.6862V60.4808C974.181 60.4417 974.13 60.3242 974.147 60.1312C974.156 60.0341 974.214 58.6996 974.273 57.3567L974.274 57.3436L974.277 57.2761L974.278 57.2465C974.336 55.9216 974.393 54.6213 974.402 54.5267C974.419 54.3309 974.58 54.2806 974.58 54.2806V53.8863C974.58 53.8863 974.213 53.8667 974.235 53.3857C974.252 52.9802 974.605 52.9634 974.605 52.9634L974.803 51.4196L975.001 52.9634C975.001 52.9634 975.351 52.9802 975.371 53.3857C975.393 53.8667 975.026 53.8863 975.026 53.8863V54.2806C975.026 54.2806 975.187 54.3309 975.204 54.5267C975.213 54.6232 975.272 55.9761 975.332 57.329C975.391 58.6819 975.45 60.0348 975.459 60.1312C975.476 60.327 975.425 60.4417 975.307 60.4808V61.6862C975.307 61.6862 975.544 61.7449 975.544 61.9966C975.544 62.1801 975.728 64.4657 975.839 65.8412L975.844 65.9032L975.852 66.0079L975.855 66.0431L975.896 66.5497L975.91 66.7264L975.919 66.8432C975.953 67.3019 975.97 67.534 975.713 67.6011C975.638 67.6218 975.58 67.6353 975.538 67.644C975.471 67.6578 975.442 67.6599 975.442 67.6599V68.0682L976.173 69.0023V69.4302C976.173 69.4302 976.836 69.7126 976.836 70.6943C976.836 71.4522 976.291 71.8437 976.291 71.8437V72.7778H976.085V73.3623H975.831C975.831 73.3623 975.779 73.6923 975.628 73.9272C975.474 74.1621 975.356 74.3159 975.356 74.3159L975.493 118.965L977.725 120.853V123.985H980.091L983.632 125.154V129.765H984.212V130.37L983.274 131.032L981.434 131.597C981.434 131.597 981.672 133.289 981.74 133.622C981.809 133.952 981.978 134.693 981.978 134.693H983.375C983.529 134.693 983.663 134.945 983.663 135.219V138.801C983.663 138.801 984.907 140.611 985.709 141.643C985.876 141.858 986.052 142.072 986.233 142.292C987.255 143.538 988.432 144.973 989.013 147.734C989.334 149.267 989.429 150.316 989.493 151.013C989.557 151.727 989.589 152.073 989.796 152.192C990.204 152.427 991.702 152.969 991.702 152.969V153.534C991.702 153.534 990.339 154.351 990.339 154.508V155.383L991.411 155.615L991.428 156.141H990.748V169.26H993.557L996.826 169.805V175.217H997.303V176.327H996.757L989.282 183.489V189.329L990.168 190.204V191.508L989.571 192.344V201.433L990.168 201.959V203.01L989.505 203.905H1034.53L1037.12 212.39H1038.48L1037.19 213.87V221.656H1041.48H1041.49V237.552H1055.13V228.753L1055.12 228.751L1056.44 218.056C1056.44 218.056 1056.07 218.126 1056.07 217.883C1056.07 217.64 1056.35 217.259 1056.35 217.259L1056.69 183.095H1056.17C1056.1 183.095 1055.62 179.907 1055.62 179.907C1055.62 179.907 1055.39 179.457 1055.39 179.143V176.926C1055.39 176.545 1055.6 176.405 1055.8 176.405H1056.92V160.361C1056.92 160.361 1056.67 160.154 1056.67 159.877C1056.67 159.6 1056.6 159.08 1056.6 159.08C1056.6 159.08 1056.28 159.01 1056.28 158.49V157.276C1056.28 157.276 1056.02 157.276 1056.01 156.826C1055.99 156.367 1055.98 155.856 1055.98 155.856C1055.98 155.856 1055.71 155.612 1055.71 155.058V153.014C1055.71 152.701 1055.87 152.53 1056.19 152.53H1057.45L1057.63 135.515C1057.63 135.515 1057.4 135.482 1057.4 135.255C1057.4 135.029 1057.62 134.962 1057.62 134.962V132.45L1057.48 132.19C1057.48 132.19 1057.45 131.583 1057.45 131.533C1057.45 131.483 1057.55 131.413 1057.61 131.413C1057.67 131.413 1060.15 105.373 1060.15 105.373L1060.2 103.986C1060.2 103.986 1059.87 104.039 1059.87 103.457C1059.87 102.954 1060.22 102.929 1060.22 102.929V102.338C1060.22 102.338 1060.03 102.285 1060.03 101.975C1060.03 101.62 1060.29 101.541 1060.29 101.541V100.778C1060.29 100.778 1060.09 100.812 1060.09 100.431C1060.09 100.051 1060.42 99.7376 1060.42 99.7376V99.3209C1060.42 99.3209 1060.26 99.3125 1060.26 99.1391C1060.26 98.9657 1060.43 98.9042 1060.43 98.9042V98.2469C1060.43 98.2469 1060.12 98.2134 1060.14 97.6401C1060.16 97.2597 1060.32 97.1367 1060.32 97.1367C1060.32 97.1367 1060.21 97.4192 1060.27 97.752C1060.31 97.9645 1060.43 97.9841 1060.51 97.9785C1060.6 97.9813 1060.72 97.9645 1060.76 97.752C1060.82 97.4192 1060.71 97.1367 1060.71 97.1367C1060.71 97.1367 1060.87 97.2569 1060.88 97.6401C1060.91 98.2106 1060.6 98.2469 1060.6 98.2469V98.9042C1060.6 98.9042 1060.77 98.9657 1060.77 99.1391C1060.77 99.3125 1060.61 99.3209 1060.61 99.3209V99.7376C1060.61 99.7376 1060.94 100.051 1060.94 100.431C1060.94 100.812 1060.73 100.778 1060.73 100.778V101.541C1060.73 101.541 1061 101.62 1061 101.975C1061 102.285 1060.81 102.338 1060.81 102.338V102.929C1060.81 102.929 1061.15 102.954 1061.15 103.457C1061.15 104.039 1060.82 103.986 1060.82 103.986L1060.88 105.373C1060.88 105.373 1063.36 131.413 1063.42 131.413C1063.48 131.413 1063.58 131.483 1063.58 131.533C1063.58 131.555 1063.57 131.687 1063.56 131.826L1063.55 132.064L1063.54 132.19L1063.41 132.45V134.962C1063.41 134.962 1063.62 135.032 1063.62 135.255C1063.62 135.479 1063.4 135.515 1063.4 135.515L1063.58 152.53H1064.84C1065.16 152.53 1065.32 152.704 1065.32 153.014V155.058C1065.32 155.612 1065.04 155.856 1065.04 155.856C1065.04 155.856 1065.04 156.367 1065.02 156.826C1065 157.276 1064.75 157.276 1064.75 157.276V158.49C1064.75 159.01 1064.43 159.08 1064.43 159.08C1064.43 159.08 1064.36 159.6 1064.36 159.877C1064.36 160.154 1064.11 160.361 1064.11 160.361V176.405H1065.23C1065.43 176.405 1065.64 176.545 1065.64 176.926V179.143C1065.64 179.457 1065.41 179.907 1065.41 179.907C1065.41 179.907 1064.93 183.095 1064.86 183.095H1064.34L1064.67 215.724L1069.06 215.36C1069.06 215.36 1070.43 212.264 1072.34 211.246C1074.12 210.295 1075.08 210.346 1075.08 210.346V210.122H1075.31L1075.38 208.824C1075.38 208.824 1075.22 208.721 1075.22 208.531C1075.24 208.142 1075.51 208.117 1075.51 208.117L1075.54 207.72C1075.54 207.72 1075.43 207.65 1075.45 207.521C1075.49 207.356 1075.63 207.393 1075.63 207.393L1075.68 206.685L1075.73 207.393C1075.73 207.393 1075.87 207.359 1075.91 207.521C1075.93 207.65 1075.82 207.72 1075.82 207.72L1075.85 208.117C1075.85 208.117 1076.12 208.142 1076.14 208.531C1076.15 208.721 1075.98 208.824 1075.98 208.824L1076.05 210.122H1076.28V210.346C1076.28 210.346 1077.25 210.293 1079.03 211.246C1079.32 211.4 1079.6 211.604 1079.86 211.836C1080.26 211.414 1080.71 211.014 1081.21 210.751C1082.99 209.8 1083.95 209.854 1083.95 209.854V209.63H1084.18L1084.25 208.332C1084.25 208.332 1084.09 208.229 1084.1 208.039C1084.11 207.65 1084.38 207.625 1084.38 207.625L1084.41 207.228C1084.41 207.228 1084.3 207.158 1084.33 207.029C1084.36 206.864 1084.5 206.9 1084.5 206.9L1084.56 206.19L1084.6 206.9C1084.6 206.9 1084.74 206.867 1084.78 207.029C1084.8 207.158 1084.69 207.228 1084.69 207.228L1084.72 207.625C1084.72 207.625 1084.99 207.65 1085.01 208.039C1085.02 208.229 1084.85 208.332 1084.85 208.332L1084.92 209.63H1085.15V209.854C1085.15 209.854 1086.12 209.8 1087.9 210.751C1087.93 210.769 1087.96 210.787 1087.99 210.805C1088.04 210.831 1088.08 210.858 1088.13 210.886C1088.33 210.858 1088.44 210.858 1088.44 210.858V210.634H1088.67L1088.74 209.336C1088.74 209.336 1088.58 209.233 1088.59 209.043C1088.6 208.654 1088.87 208.629 1088.87 208.629L1088.9 208.232C1088.9 208.232 1088.79 208.162 1088.82 208.033C1088.85 207.868 1088.99 207.904 1088.99 207.904L1089.04 207.194L1089.09 207.904C1089.09 207.904 1089.23 207.871 1089.27 208.033C1089.3 208.162 1089.18 208.232 1089.18 208.232L1089.21 208.629C1089.21 208.629 1089.48 208.654 1089.5 209.043C1089.51 209.233 1089.34 209.336 1089.34 209.336L1089.4 210.379C1091.19 209.417 1092.15 209.468 1092.15 209.468V209.244H1092.38L1092.46 207.946C1092.46 207.946 1092.29 207.843 1092.3 207.653C1092.31 207.264 1092.59 207.239 1092.59 207.239L1092.62 206.842C1092.62 206.842 1092.5 206.772 1092.53 206.643C1092.57 206.478 1092.7 206.514 1092.7 206.514L1092.76 205.804L1092.81 206.514C1092.81 206.514 1092.94 206.481 1092.98 206.643C1093.01 206.772 1092.89 206.842 1092.89 206.842L1092.92 207.239C1092.92 207.239 1093.2 207.264 1093.21 207.653C1093.22 207.843 1093.05 207.946 1093.05 207.946L1093.12 209.244H1093.36V209.468C1093.36 209.468 1094.32 209.417 1096.1 210.368C1096.27 210.46 1096.44 210.567 1096.6 210.687C1096.91 210.413 1097.23 210.167 1097.57 209.985C1099.35 209.034 1100.31 209.087 1100.31 209.087V208.864H1100.54L1100.61 207.566C1100.61 207.566 1100.45 207.462 1100.46 207.272C1100.47 206.884 1100.74 206.858 1100.74 206.858L1100.77 206.461C1100.77 206.461 1100.66 206.391 1100.69 206.263C1100.72 206.098 1100.86 206.134 1100.86 206.134L1100.92 205.424L1100.96 206.134C1100.96 206.134 1101.1 206.1 1101.14 206.263C1101.17 206.391 1101.05 206.461 1101.05 206.461L1101.08 206.858C1101.08 206.858 1101.35 206.884 1101.37 207.272C1101.38 207.462 1101.21 207.566 1101.21 207.566L1101.28 208.864H1101.52V209.087C1101.52 209.087 1101.95 209.065 1102.78 209.336C1102.86 209.216 1102.98 209.205 1102.98 209.205L1103.01 208.808C1103.01 208.808 1102.89 208.738 1102.92 208.609C1102.96 208.444 1103.1 208.48 1103.1 208.48L1103.15 207.773L1103.2 208.48C1103.2 208.48 1103.34 208.447 1103.37 208.609C1103.4 208.738 1103.28 208.808 1103.28 208.808L1103.31 209.205C1103.31 209.205 1103.59 209.23 1103.61 209.619L1104.38 210.108C1104.64 209.873 1104.92 209.672 1105.21 209.515C1106.99 208.564 1107.95 208.615 1107.95 208.615V208.391H1108.18L1108.26 207.093C1108.26 207.093 1108.09 206.99 1108.1 206.8C1108.11 206.411 1108.39 206.386 1108.39 206.386L1108.42 205.989C1108.42 205.989 1108.3 205.919 1108.33 205.79C1108.37 205.625 1108.5 205.661 1108.5 205.661L1108.56 204.951L1108.61 205.661C1108.61 205.661 1108.74 205.628 1108.78 205.79C1108.81 205.919 1108.69 205.989 1108.69 205.989L1108.72 206.386C1108.72 206.386 1109 206.411 1109.01 206.8C1109.02 206.99 1108.85 207.093 1108.85 207.093L1108.92 208.391H1109.16V208.615C1109.16 208.615 1110.12 208.562 1111.91 209.515C1112.06 209.403 1112.22 209.297 1112.38 209.213C1114.16 208.262 1115.13 208.315 1115.13 208.315V208.092H1115.36L1115.43 206.794C1115.43 206.794 1115.27 206.691 1115.27 206.5C1115.29 206.112 1115.56 206.087 1115.56 206.087L1115.59 205.689C1115.59 205.689 1115.48 205.619 1115.5 205.491C1115.54 205.326 1115.68 205.362 1115.68 205.362L1115.73 204.655L1115.78 205.362C1115.78 205.362 1115.92 205.329 1115.96 205.491C1115.98 205.619 1115.87 205.689 1115.87 205.689L1115.9 206.087C1115.9 206.087 1116.17 206.112 1116.19 206.5C1116.19 206.691 1116.03 206.794 1116.03 206.794L1116.1 208.092H1116.33V208.315C1116.33 208.315 1117.29 208.262 1119.07 209.213C1119.22 209.104 1119.35 209.015 1119.51 208.931C1121.29 207.98 1122.25 208.033 1122.25 208.033V207.809H1122.49L1122.56 206.512C1122.56 206.512 1122.39 206.408 1122.4 206.218C1122.42 205.829 1122.69 205.804 1122.69 205.804L1122.72 205.407C1122.72 205.407 1122.6 205.337 1122.63 205.208C1122.67 205.043 1122.81 205.08 1122.81 205.08L1122.86 204.372L1122.91 205.08C1122.91 205.08 1123.05 205.046 1123.08 205.208C1123.11 205.337 1123 205.407 1123 205.407L1123.02 205.804C1123.02 205.804 1123.3 205.829 1123.31 206.218C1123.32 206.408 1123.15 206.512 1123.15 206.512L1123.23 207.809H1123.46V208.033C1123.46 208.033 1123.63 208.036 1123.93 208.089C1125.05 207.641 1125.65 207.675 1125.65 207.675V207.451H1125.88L1125.95 206.154C1125.95 206.154 1125.78 206.05 1125.79 205.86C1125.81 205.471 1126.08 205.446 1126.08 205.446L1126.11 205.049C1126.11 205.049 1125.99 204.979 1126.02 204.85C1126.06 204.685 1126.2 204.722 1126.2 204.722L1126.25 204.014L1126.3 204.722C1126.3 204.722 1126.44 204.688 1126.47 204.85C1126.5 204.979 1126.39 205.049 1126.39 205.049L1126.42 205.446C1126.42 205.446 1126.69 205.471 1126.7 205.86C1126.71 206.05 1126.55 206.154 1126.55 206.154L1126.62 207.451H1126.85V207.675C1126.85 207.675 1126.88 207.673 1126.92 207.671C1126.94 207.67 1126.97 207.669 1127 207.669C1127.08 207.668 1127.18 207.671 1127.26 207.686L1127.27 183.758H1126.31C1126.26 183.758 1125.89 180.956 1125.89 180.956C1125.89 180.956 1125.71 180.559 1125.71 180.284V178.335C1125.71 178 1125.87 177.879 1126.03 177.879H1127.44L1127.45 164.229H1127.04C1126.99 164.229 1126.62 161.426 1126.62 161.426C1126.62 161.426 1126.44 161.029 1126.44 160.755V158.806C1126.44 158.47 1126.6 158.35 1126.76 158.35H1127.62V145.583C1127.62 145.583 1127.43 145.402 1127.43 145.158C1127.43 144.915 1127.38 144.459 1127.38 144.459C1127.38 144.459 1127.13 144.398 1127.13 143.942V142.876C1127.13 142.876 1126.93 142.876 1126.92 142.479C1126.91 142.076 1126.9 141.626 1126.9 141.626C1126.9 141.626 1126.69 141.414 1126.69 140.927V139.129C1126.69 138.855 1126.81 138.704 1127.06 138.704H1128.03L1128.17 126.972C1128.17 126.972 1127.99 126.941 1127.99 126.742C1127.99 126.544 1128.16 126.482 1128.16 126.482V124.273L1128.06 124.043L1128.05 123.928L1128.04 123.736C1128.03 123.608 1128.03 123.485 1128.03 123.465C1128.03 123.42 1128.11 123.358 1128.15 123.358C1128.19 123.358 1130.11 100.468 1130.11 100.468L1130.15 99.2482C1130.15 99.2482 1129.9 99.2929 1129.9 98.7839C1129.9 98.342 1130.16 98.3197 1130.16 98.3197V97.8023C1130.16 97.8023 1130.02 97.7575 1130.02 97.4835C1130.02 97.1702 1130.22 97.1031 1130.22 97.1031V96.4319C1130.22 96.4319 1130.06 96.4627 1130.06 96.1271C1130.06 95.7915 1130.32 95.5174 1130.32 95.5174V95.151C1130.32 95.151 1130.2 95.1427 1130.2 94.9917C1130.2 94.8406 1130.33 94.7847 1130.33 94.7847V94.2058C1130.33 94.2058 1130.09 94.175 1130.11 93.6716C1130.12 93.336 1130.25 93.2297 1130.25 93.2297C1130.25 93.2297 1130.16 93.4787 1130.21 93.7695C1130.24 93.9569 1130.33 93.9737 1130.39 93.9709C1130.46 93.9737 1130.55 93.9569 1130.58 93.7695C1130.63 93.4787 1130.54 93.2297 1130.54 93.2297C1130.54 93.2297 1130.67 93.336 1130.68 93.6716C1130.7 94.175 1130.46 94.2058 1130.46 94.2058V94.7847C1130.46 94.7847 1130.59 94.8378 1130.59 94.9917C1130.59 95.1455 1130.47 95.151 1130.47 95.151V95.5174C1130.47 95.5174 1130.73 95.7915 1130.73 96.1271C1130.73 96.4627 1130.57 96.4319 1130.57 96.4319V97.1031C1130.57 97.1031 1130.77 97.173 1130.77 97.4835C1130.77 97.7575 1130.63 97.8023 1130.63 97.8023V98.3197C1130.63 98.3197 1130.89 98.342 1130.89 98.7839C1130.89 99.2929 1130.64 99.2482 1130.64 99.2482L1130.68 100.468C1130.68 100.468 1132.59 123.358 1132.64 123.358C1132.68 123.358 1132.76 123.42 1132.76 123.465C1132.76 123.476 1132.76 123.518 1132.76 123.575L1132.75 123.715C1132.74 123.871 1132.73 124.043 1132.73 124.043L1132.63 124.273V126.482C1132.63 126.482 1132.8 126.544 1132.8 126.742C1132.8 126.941 1132.62 126.972 1132.62 126.972L1132.76 138.704H1133.73C1133.98 138.704 1134.1 138.855 1134.1 139.129V140.927C1134.1 141.414 1133.89 141.626 1133.89 141.626L1133.89 141.748C1133.89 141.82 1133.88 141.918 1133.88 142.03C1133.88 142.114 1133.88 142.205 1133.88 142.298C1133.88 142.358 1133.87 142.419 1133.87 142.479C1133.86 142.873 1133.66 142.876 1133.66 142.876V143.942C1133.66 144.398 1133.41 144.459 1133.41 144.459C1133.41 144.459 1133.36 144.915 1133.36 145.158C1133.36 145.402 1133.16 145.583 1133.16 145.583V158.35H1134.03C1134.19 158.35 1134.35 158.473 1134.35 158.806V160.755C1134.35 161.029 1134.17 161.426 1134.17 161.426C1134.17 161.426 1133.8 164.229 1133.75 164.229H1133.34L1133.35 177.879H1134.76C1134.92 177.879 1135.08 178.002 1135.08 178.335V180.284C1135.08 180.559 1134.9 180.956 1134.9 180.956C1134.9 180.956 1134.53 183.758 1134.48 183.758H1133.52L1133.52 200.272L1137.9 200.065V195.213L1137.53 194.953V194.573L1138.97 194.329V191.435L1138.71 191.158V190.881C1138.71 190.881 1139.18 190.794 1139.35 190.604C1139.38 190.566 1139.41 190.449 1139.45 190.287L1139.45 190.285L1139.45 190.283C1139.61 189.644 1139.92 188.316 1141.38 188.316C1142.83 188.316 1143.22 189.583 1143.42 190.207C1143.47 190.375 1143.51 190.496 1143.55 190.534C1143.81 190.778 1144.17 190.898 1144.17 190.898V191.211L1143.9 191.471V193.585H1147.96V188.613H1147.69V188.163L1150.1 187.159H1154.55L1155.94 187.002C1155.94 187.002 1155.87 186.132 1156.13 185.872C1156.39 185.612 1156.57 185.176 1156.6 185.036C1156.62 184.896 1156.62 184.74 1156.62 184.74C1156.62 184.74 1156.55 184.74 1156.55 184.625C1156.55 184.51 1156.65 184.502 1156.65 184.502V183.397C1156.65 183.397 1156.35 183.397 1156.35 182.919C1156.35 182.441 1156.75 182.354 1156.75 182.354V181.632C1156.75 181.632 1156.47 181.624 1156.47 181.258C1156.47 180.919 1156.78 180.902 1156.78 180.902V180.016C1156.78 180.016 1156.47 179.963 1156.47 179.694C1156.47 179.426 1156.88 178.799 1156.88 178.799V178.408C1156.88 178.408 1156.82 178.413 1156.82 178.316C1156.82 178.212 1156.89 178.232 1156.89 178.232V177.597C1156.89 177.597 1156.73 177.544 1156.73 177.239C1156.73 177.014 1156.86 176.794 1156.95 176.663L1156.95 176.661C1156.98 176.615 1157 176.58 1157 176.559C1157.03 176.481 1157.12 175.768 1157.12 175.768C1157.12 175.768 1157.21 176.481 1157.23 176.559C1157.24 176.58 1157.26 176.616 1157.29 176.663C1157.37 176.794 1157.51 177.014 1157.51 177.239C1157.51 177.544 1157.34 177.597 1157.34 177.597V178.232C1157.34 178.232 1157.42 178.209 1157.42 178.316C1157.42 178.354 1157.41 178.377 1157.4 178.39C1157.39 178.394 1157.39 178.397 1157.39 178.399C1157.38 178.4 1157.38 178.402 1157.38 178.403C1157.38 178.404 1157.37 178.405 1157.37 178.405C1157.36 178.408 1157.36 178.408 1157.36 178.408V178.799C1157.36 178.799 1157.77 179.426 1157.77 179.694C1157.77 179.963 1157.46 180.016 1157.46 180.016V180.902C1157.46 180.902 1157.76 180.919 1157.76 181.258C1157.76 181.624 1157.49 181.632 1157.49 181.632V182.354C1157.49 182.354 1157.89 182.441 1157.89 182.919C1157.89 183.397 1157.59 183.397 1157.59 183.397V184.091H1158.79C1158.79 184.091 1159.87 183.076 1160.21 183.076H1161.99V182.01L1161.65 181.87V181.42H1163.53C1163.53 181.42 1164.91 180.866 1165.16 180.589C1165.4 180.312 1166.81 178.285 1166.81 178.285V169.987L1166.6 169.847V169.38C1166.6 169.38 1167.28 169.31 1167.37 168.93C1167.39 168.833 1167.42 168.692 1167.44 168.528L1167.47 168.4C1167.54 167.936 1167.64 167.349 1167.78 167.042C1167.98 166.592 1168.37 166.212 1168.37 166.212L1168.15 165.093C1168.15 165.093 1167.99 164.749 1167.99 164.511V162.816C1167.99 162.526 1168.14 162.419 1168.28 162.419H1169.07V151.412C1169.07 151.412 1168.9 151.252 1168.9 151.04C1168.9 150.827 1168.85 150.43 1168.85 150.43C1168.85 150.43 1168.62 150.377 1168.62 149.98V149.054C1168.62 149.054 1168.44 149.054 1168.43 148.71C1168.41 148.36 1168.41 147.969 1168.41 147.969C1168.41 147.969 1168.22 147.784 1168.22 147.359V145.796C1168.22 145.558 1168.33 145.424 1168.56 145.424H1169.45L1169.58 133.991C1169.58 133.991 1169.41 133.966 1169.41 133.793C1169.41 133.619 1169.57 133.569 1169.57 133.569V131.648L1169.47 131.449C1169.47 131.449 1169.45 130.985 1169.45 130.946C1169.45 130.921 1169.47 130.892 1169.51 130.873C1169.52 130.861 1169.54 130.853 1169.56 130.853C1169.6 130.853 1171.35 110.947 1171.35 110.947L1171.4 109.887C1171.4 109.887 1171.16 109.926 1171.16 109.484C1171.16 109.101 1171.4 109.081 1171.4 109.081V108.631C1171.4 108.631 1171.27 108.592 1171.27 108.354C1171.27 108.083 1171.46 108.021 1171.46 108.021V107.44C1171.46 107.44 1171.31 107.465 1171.31 107.174C1171.31 106.883 1171.55 106.645 1171.55 106.645V106.327C1171.55 106.327 1171.44 106.321 1171.44 106.187C1171.44 106.052 1171.56 106.008 1171.56 106.008V105.504C1171.56 105.504 1171.34 105.476 1171.35 105.04C1171.37 104.749 1171.48 104.657 1171.48 104.657C1171.48 104.657 1171.4 104.872 1171.44 105.127C1171.47 105.289 1171.55 105.303 1171.62 105.3C1171.68 105.3 1171.76 105.289 1171.79 105.127C1171.83 104.872 1171.75 104.657 1171.75 104.657C1171.75 104.657 1171.87 104.749 1171.88 105.04C1171.9 105.476 1171.68 105.504 1171.68 105.504V106.008C1171.68 106.008 1171.8 106.055 1171.8 106.187C1171.8 106.318 1171.69 106.327 1171.69 106.327V106.645C1171.69 106.645 1171.92 106.883 1171.92 107.174C1171.92 107.465 1171.78 107.44 1171.78 107.44V108.021C1171.78 108.021 1171.96 108.08 1171.96 108.354C1171.96 108.592 1171.83 108.631 1171.83 108.631V109.081C1171.83 109.081 1172.07 109.101 1172.07 109.484C1172.07 109.929 1171.84 109.887 1171.84 109.887L1171.88 110.947C1171.88 110.947 1173.64 130.853 1173.67 130.853C1173.71 130.853 1173.79 130.906 1173.79 130.946L1173.79 130.969L1173.78 131.023L1173.78 131.14L1173.77 131.347L1173.76 131.449L1173.66 131.648V133.569C1173.66 133.569 1173.82 133.622 1173.82 133.793C1173.82 133.963 1173.66 133.991 1173.66 133.991L1173.79 145.424H1174.68C1174.9 145.424 1175.02 145.555 1175.02 145.796V147.359C1175.02 147.782 1174.82 147.969 1174.82 147.969C1174.82 147.969 1174.82 148.115 1174.82 148.308C1174.82 148.431 1174.81 148.574 1174.81 148.71C1174.8 149.054 1174.61 149.054 1174.61 149.054V149.98C1174.61 150.377 1174.39 150.43 1174.39 150.43C1174.39 150.43 1174.34 150.827 1174.34 151.04C1174.34 151.252 1174.16 151.412 1174.16 151.412V162.419H1174.95C1175.1 162.419 1175.24 162.526 1175.24 162.816V164.511C1175.24 164.749 1175.08 165.093 1175.08 165.093L1175.65 165.649V164.117L1180.68 162.375V161.986C1180.68 161.986 1180.36 161.899 1180.34 161.759C1180.31 161.619 1180.34 161.474 1180.34 161.474C1180.34 161.474 1180.25 161.474 1180.26 161.326C1180.27 161.178 1180.51 161.066 1180.71 161.013C1180.92 160.959 1181.5 160.848 1182.05 160.778C1182.1 160.771 1182.15 160.766 1182.21 160.761L1182.24 160.758C1182.69 160.717 1183.07 160.683 1183.69 159.67C1183.83 159.426 1184.01 159.088 1184.22 158.686L1184.23 158.671L1184.23 158.669C1185.02 157.177 1186.26 154.817 1188.13 153.07C1190.51 150.844 1192.17 149.328 1194.35 148.358C1196.52 147.387 1198.35 146.805 1198.35 146.805L1198.58 128.787C1198.58 128.787 1198.28 128.747 1198.28 128.499C1198.28 128.25 1198.56 128.174 1198.56 128.174V125.397L1198.38 125.109C1198.38 125.109 1198.34 124.438 1198.34 124.382C1198.34 124.326 1198.47 124.248 1198.55 124.248C1198.62 124.248 1201.86 95.4699 1201.86 95.4699L1201.94 93.9373C1201.94 93.9373 1201.5 93.996 1201.5 93.3528C1201.5 92.7962 1201.95 92.7683 1201.95 92.7683V92.1167C1201.95 92.1167 1201.71 92.0579 1201.71 91.7139C1201.71 91.3224 1202.05 91.2357 1202.05 91.2357V90.3939C1202.05 90.3939 1201.79 90.4331 1201.79 90.0108C1201.79 89.5885 1202.22 89.2445 1202.22 89.2445V88.7858C1202.22 88.7858 1202.01 88.7774 1202.01 88.5845C1202.01 88.3915 1202.24 88.3272 1202.24 88.3272V87.6C1202.24 87.6 1201.83 87.5609 1201.86 86.9288C1201.88 86.5065 1202.09 86.3723 1202.09 86.3723C1202.09 86.3723 1201.94 86.6855 1202.03 87.0519C1202.08 87.2868 1202.23 87.3092 1202.35 87.3036C1202.46 87.3064 1202.61 87.2868 1202.67 87.0519C1202.75 86.6855 1202.6 86.3723 1202.6 86.3723C1202.6 86.3723 1202.81 86.5065 1202.83 86.9288C1202.86 87.5609 1202.46 87.6 1202.46 87.6V88.3272C1202.46 88.3272 1202.68 88.3943 1202.68 88.5845C1202.68 88.7747 1202.47 88.7858 1202.47 88.7858V89.2445C1202.47 89.2445 1202.9 89.5885 1202.9 90.0108C1202.9 90.4331 1202.63 90.3939 1202.63 90.3939V91.2357C1202.63 91.2357 1202.98 91.3224 1202.98 91.7139C1202.98 92.0579 1202.74 92.1167 1202.74 92.1167V92.7683C1202.74 92.7683 1203.19 92.7962 1203.19 93.3528C1203.19 93.9932 1202.75 93.9373 1202.75 93.9373L1202.83 95.4699C1202.83 95.4699 1206.07 124.248 1206.14 124.248C1206.22 124.248 1206.35 124.323 1206.35 124.382C1206.35 124.441 1206.31 125.109 1206.31 125.109L1206.13 125.397V128.174C1206.13 128.174 1206.41 128.25 1206.41 128.499C1206.41 128.747 1206.11 128.787 1206.11 128.787L1206.34 146.389C1206.34 146.389 1209.48 147.222 1211.66 148.193C1213.83 149.163 1215.52 150.366 1217.9 152.595C1219.97 154.531 1221.57 157.262 1222.41 158.698C1222.53 158.912 1222.64 159.098 1222.73 159.248C1223.35 160.264 1223.73 160.297 1224.18 160.337C1224.24 160.342 1224.3 160.347 1224.37 160.355C1224.91 160.425 1225.5 160.537 1225.7 160.59C1225.91 160.643 1226.15 160.755 1226.16 160.904C1226.16 161.052 1226.07 161.052 1226.07 161.052C1226.07 161.052 1226.08 161.093 1226.09 161.152C1226.09 161.179 1226.09 161.21 1226.09 161.243C1226.09 161.274 1226.09 161.306 1226.08 161.337C1226.06 161.477 1225.73 161.564 1225.73 161.564V163.98L1228.95 165.694L1229.13 166.838C1229.13 166.838 1229.88 165.988 1230.54 165.694C1231.14 165.431 1231.66 165.487 1231.66 165.487V165.02C1231.66 164.9 1231.83 164.64 1232.04 164.553C1232.26 164.466 1232.31 164.355 1232.31 164.243V163.809C1232.31 163.809 1232.08 163.784 1232.08 163.558C1232.08 163.331 1232.36 163.082 1232.36 163.082V162.52C1232.36 162.52 1232.21 162.528 1232.22 162.324C1232.23 162.148 1232.41 162.145 1232.41 162.145V161.625C1232.41 161.625 1232.23 161.53 1232.36 161.295L1232.54 160.993L1232.72 161.295C1232.85 161.53 1232.67 161.625 1232.67 161.625V162.145C1232.67 162.145 1232.85 162.145 1232.85 162.324C1232.87 162.528 1232.72 162.52 1232.72 162.52V163.082C1232.72 163.082 1233 163.334 1233 163.558C1233 163.781 1232.77 163.809 1232.77 163.809V164.243C1232.77 164.355 1232.82 164.466 1233.03 164.553C1233.25 164.64 1233.41 164.9 1233.41 165.02V165.487C1233.41 165.487 1235.13 165.669 1236.12 167.325C1236.9 168.633 1237.06 169.383 1237.14 169.764C1237.16 169.865 1237.18 169.94 1237.2 169.993C1237.29 170.244 1238.05 170.669 1238.05 170.669V171.12L1237.79 171.318V175.415L1238.88 176.246L1238.89 163.476H1238.48C1238.43 163.476 1238.06 160.674 1238.06 160.674C1238.06 160.674 1237.88 160.277 1237.88 160.003V158.054C1237.88 157.718 1238.04 157.598 1238.2 157.598H1239.06V143.732C1239.06 143.732 1238.87 143.55 1238.87 143.307C1238.87 143.064 1238.82 142.605 1238.82 142.605C1238.82 142.605 1238.57 142.543 1238.57 142.088V141.022C1238.57 141.022 1238.37 141.022 1238.36 140.625C1238.35 140.44 1238.35 140.246 1238.35 140.089C1238.34 139.904 1238.34 139.772 1238.34 139.772C1238.34 139.772 1238.13 139.559 1238.13 139.073V137.274C1238.13 137 1238.25 136.849 1238.5 136.849H1239.47L1239.61 121.266C1239.61 121.266 1239.43 121.236 1239.43 121.037C1239.43 120.838 1239.6 120.777 1239.6 120.777V118.568L1239.5 118.338L1239.49 118.166L1239.48 117.958C1239.47 117.859 1239.47 117.776 1239.47 117.759C1239.47 117.733 1239.5 117.7 1239.53 117.678C1239.54 117.672 1239.55 117.668 1239.55 117.664C1239.57 117.657 1239.58 117.653 1239.59 117.653C1239.63 117.653 1241.55 94.7623 1241.55 94.7623L1241.59 93.543C1241.59 93.543 1241.34 93.5877 1241.34 93.0787C1241.34 92.6368 1241.6 92.6145 1241.6 92.6145V92.0971C1241.6 92.0971 1241.46 92.0524 1241.46 91.7783C1241.46 91.4651 1241.66 91.3979 1241.66 91.3979V90.7267C1241.66 90.7267 1241.5 90.7575 1241.5 90.4219C1241.5 90.0863 1241.76 89.8122 1241.76 89.8122V89.4458C1241.76 89.4458 1241.63 89.4375 1241.63 89.2864C1241.63 89.1354 1241.77 89.0795 1241.77 89.0795V88.5006C1241.77 88.5006 1241.53 88.4698 1241.55 87.9664C1241.56 87.6308 1241.68 87.5245 1241.68 87.5245C1241.68 87.5245 1241.6 87.7734 1241.64 88.0643C1241.68 88.2517 1241.76 88.2684 1241.83 88.2656C1241.9 88.2684 1241.99 88.2517 1242.02 88.0643C1242.07 87.7734 1241.98 87.5245 1241.98 87.5245C1241.98 87.5245 1242.1 87.6308 1242.12 87.9664C1242.14 88.4698 1241.9 88.5006 1241.9 88.5006V89.0795C1241.9 89.0795 1242.03 89.1326 1242.03 89.2864C1242.03 89.4403 1241.91 89.4458 1241.91 89.4458V89.8122C1241.91 89.8122 1242.16 90.0863 1242.16 90.4219C1242.16 90.7575 1242 90.7267 1242 90.7267V91.3979C1242 91.3979 1242.21 91.4678 1242.21 91.7783C1242.21 92.0524 1242.07 92.0971 1242.07 92.0971V92.6145C1242.07 92.6145 1242.33 92.6368 1242.33 93.0787C1242.33 93.5877 1242.07 93.543 1242.07 93.543L1242.12 94.7623C1242.12 94.7623 1244.03 117.653 1244.07 117.653C1244.12 117.653 1244.2 117.715 1244.2 117.759C1244.2 117.779 1244.19 117.896 1244.19 118.019C1244.18 118.173 1244.17 118.338 1244.17 118.338L1244.06 118.568V120.777C1244.06 120.777 1244.23 120.838 1244.23 121.037C1244.23 121.236 1244.06 121.266 1244.06 121.266L1244.2 136.849H1245.17C1245.42 136.849 1245.54 137 1245.54 137.274V139.073C1245.54 139.559 1245.32 139.772 1245.32 139.772C1245.32 139.772 1245.32 140.222 1245.31 140.625C1245.3 141.019 1245.1 141.022 1245.1 141.022V142.088C1245.1 142.543 1244.85 142.605 1244.85 142.605C1244.85 142.605 1244.8 143.061 1244.8 143.307C1244.8 143.553 1244.6 143.732 1244.6 143.732V157.598H1245.47C1245.63 157.598 1245.78 157.721 1245.78 158.054V160.003C1245.78 160.277 1245.61 160.674 1245.61 160.674C1245.61 160.674 1245.24 163.476 1245.19 163.476H1244.78L1244.78 179.641H1246.2C1246.36 179.641 1246.52 179.764 1246.52 180.097V182.046C1246.52 182.32 1246.34 182.718 1246.34 182.718C1246.34 182.718 1245.97 185.52 1245.92 185.52C1245.86 185.52 1245.92 188.031 1245.92 188.031H1254.9L1257.56 189.013V189.449H1257.06V194.265H1261.78L1261.8 192.302L1261.54 192.025V191.748C1261.54 191.748 1262.01 191.661 1262.17 191.471C1262.21 191.432 1262.24 191.314 1262.28 191.15C1262.43 190.511 1262.75 189.183 1264.21 189.183C1265.65 189.183 1266.05 190.45 1266.24 191.074C1266.3 191.242 1266.33 191.363 1266.37 191.401V185.33H1265.53C1265.49 185.33 1265.16 183.173 1265.16 183.173C1265.16 183.173 1265.01 182.824 1265.01 182.583V180.866C1265.01 180.57 1265.15 180.463 1265.28 180.463H1266.53L1266.53 167.157H1266.18C1266.13 167.157 1265.8 164.687 1265.8 164.687C1265.8 164.687 1265.65 164.338 1265.65 164.097V162.38C1265.65 162.087 1265.79 161.977 1265.93 161.977H1266.69V149.756C1266.69 149.756 1266.52 149.594 1266.52 149.381C1266.52 149.169 1266.47 148.763 1266.47 148.763C1266.47 148.763 1266.25 148.71 1266.25 148.307V147.368C1266.25 147.368 1266.08 147.368 1266.07 147.018C1266.05 146.663 1266.05 146.266 1266.05 146.266C1266.05 146.266 1265.86 146.078 1265.86 145.648V144.065C1265.86 143.824 1265.97 143.69 1266.19 143.69H1267.04L1267.17 129.01C1267.17 129.01 1267.01 128.982 1267.01 128.809C1267.01 128.636 1267.16 128.58 1267.16 128.58V126.633L1267.07 126.432C1267.07 126.432 1267.06 126.282 1267.05 126.145C1267.05 126.039 1267.04 125.94 1267.04 125.923C1267.04 125.884 1267.11 125.83 1267.15 125.83C1267.19 125.83 1268.87 105.655 1268.87 105.655L1268.91 104.581C1268.91 104.581 1268.68 104.621 1268.68 104.173C1268.68 103.784 1268.92 103.765 1268.92 103.765V103.309C1268.92 103.309 1268.79 103.27 1268.79 103.026C1268.79 102.752 1268.97 102.691 1268.97 102.691V102.101C1268.97 102.101 1268.83 102.129 1268.83 101.832C1268.83 101.536 1269.06 101.295 1269.06 101.295V100.974C1269.06 100.974 1268.95 100.968 1268.95 100.834C1268.95 100.7 1269.06 100.652 1269.06 100.652V100.143C1269.06 100.143 1268.85 100.115 1268.87 99.6733C1268.88 99.3768 1268.99 99.2845 1268.99 99.2845C1268.99 99.2845 1268.91 99.5027 1268.96 99.7599C1268.98 99.9249 1269.06 99.9389 1269.12 99.9361C1269.18 99.9389 1269.26 99.9249 1269.29 99.7599C1269.33 99.5027 1269.25 99.2845 1269.25 99.2845C1269.25 99.2845 1269.36 99.3796 1269.37 99.6733C1269.39 100.115 1269.18 100.143 1269.18 100.143V100.652C1269.18 100.652 1269.29 100.7 1269.29 100.834C1269.29 100.968 1269.19 100.974 1269.19 100.974V101.295C1269.19 101.295 1269.41 101.536 1269.41 101.832C1269.41 102.129 1269.27 102.101 1269.27 102.101V102.691C1269.27 102.691 1269.45 102.752 1269.45 103.026C1269.45 103.267 1269.32 103.309 1269.32 103.309V103.765C1269.32 103.765 1269.56 103.784 1269.56 104.173C1269.56 104.623 1269.33 104.581 1269.33 104.581L1269.37 105.655C1269.37 105.655 1271.05 125.83 1271.09 125.83C1271.13 125.83 1271.2 125.884 1271.2 125.923C1271.2 125.962 1271.17 126.432 1271.17 126.432L1271.08 126.633V128.58C1271.08 128.58 1271.23 128.633 1271.23 128.809C1271.23 128.985 1271.07 129.01 1271.07 129.01L1271.2 143.69H1272.05C1272.27 143.69 1272.38 143.824 1272.38 144.065V145.648C1272.38 146.078 1272.19 146.266 1272.19 146.266C1272.19 146.266 1272.19 146.663 1272.18 147.018C1272.16 147.368 1271.99 147.368 1271.99 147.368V148.307C1271.99 148.71 1271.77 148.763 1271.77 148.763C1271.77 148.763 1271.73 149.166 1271.73 149.381C1271.73 149.597 1271.55 149.756 1271.55 149.756V161.977H1272.31C1272.45 161.977 1272.59 162.084 1272.59 162.38V164.097C1272.59 164.338 1272.44 164.687 1272.44 164.687C1272.44 164.687 1272.11 167.157 1272.07 167.157H1271.71L1271.72 180.463H1272.96C1273.1 180.463 1273.24 180.57 1273.24 180.866V182.583C1273.24 182.824 1273.08 183.173 1273.08 183.173C1273.08 183.173 1272.76 185.33 1272.71 185.33H1271.87V214.51L1279.79 222.095H1289.23V39.6623H1295ZM571.373 149.807C571.373 147.972 573.343 147.555 573.343 147.555V147.558C574.221 147.799 575.283 148.459 575.283 149.706V154.715C574.023 154.642 572.717 154.578 571.373 154.525V149.807ZM559.246 149.412C559.246 147.578 561.216 147.161 561.216 147.161C562.094 147.401 563.156 148.061 563.156 149.309V154.334C562.51 154.329 561.857 154.329 561.201 154.329C560.545 154.329 559.892 154.329 559.246 154.334V149.412ZM547.119 149.807C547.119 147.972 549.088 147.555 549.088 147.555V147.552C549.967 147.793 551.029 148.453 551.029 149.7V154.522C549.686 154.578 548.379 154.639 547.119 154.712V149.807ZM579.83 106.936C578.783 106.85 577.689 106.769 576.556 106.696V100.854C576.556 100.437 577.011 99.3631 578.193 99.3631C579.013 99.3631 579.83 99.8832 579.83 100.854V106.936ZM561.201 106.237H560.183V100.149C560.183 99.7322 560.638 98.6583 561.82 98.6583C562.64 98.6583 563.457 99.1785 563.457 100.149V106.246C562.711 106.237 561.96 106.237 561.201 106.237ZM545.57 106.713C544.437 106.788 543.343 106.869 542.296 106.959V100.854C542.296 100.437 542.751 99.3631 543.933 99.3631C544.752 99.3631 545.57 99.8832 545.57 100.854V106.713ZM571.642 106.441C570.575 106.397 569.482 106.36 568.368 106.33V100.384C568.368 99.9671 568.823 98.8932 570.005 98.8932C570.825 98.8932 571.642 99.4134 571.642 100.384V106.441ZM554.513 106.318C553.4 106.346 552.309 106.38 551.239 106.422V100.384C551.239 99.9671 551.695 98.8932 552.876 98.8932C553.696 98.8932 554.513 99.4134 554.513 100.384V106.318ZM579.83 130.921C578.783 130.834 577.689 130.753 576.556 130.68V124.838C576.556 124.421 577.011 123.347 578.193 123.347C579.013 123.347 579.83 123.867 579.83 124.838V130.921ZM561.201 130.221H560.183V124.133C560.183 123.716 560.638 122.643 561.82 122.643C562.64 122.643 563.457 123.163 563.457 124.133V130.23C562.711 130.221 561.96 130.221 561.201 130.221ZM545.57 130.7C544.437 130.772 543.343 130.856 542.296 130.946V124.841C542.296 124.424 542.751 123.35 543.933 123.35C544.752 123.35 545.57 123.87 545.57 124.841V130.7ZM571.642 130.426C570.575 130.384 569.482 130.347 568.368 130.317V124.368C568.368 123.951 568.823 122.877 570.005 122.877C570.825 122.877 571.642 123.398 571.642 124.368V130.426ZM554.513 130.305C553.4 130.333 552.309 130.367 551.239 130.409V124.371C551.239 123.954 551.695 122.88 552.876 122.88C553.696 122.88 554.513 123.4 554.513 124.371V130.305ZM504.473 199.615H501.267V191.949C501.267 191.013 501.715 189.771 502.833 189.771C503.951 189.771 504.473 190.842 504.473 191.949V199.615ZM498.808 199.615H495.602V191.949C495.602 191.013 496.05 189.771 497.168 189.771C498.287 189.771 498.808 190.842 498.808 191.949V199.615ZM493.143 199.615H489.937V191.949C489.937 191.013 490.385 189.771 491.504 189.771C492.622 189.771 493.143 190.842 493.143 191.949V199.615ZM487.478 199.615H484.273V191.949C484.273 191.013 484.721 189.771 485.839 189.771C486.957 189.771 487.478 190.842 487.478 191.949V199.615ZM481.813 199.615H478.608V191.949C478.608 191.013 479.056 189.771 480.174 189.771C481.292 189.771 481.813 190.842 481.813 191.949V199.615ZM476.149 199.615H472.943V191.949C472.943 191.013 473.391 189.771 474.509 189.771C475.628 189.771 476.149 190.842 476.149 191.949V199.615ZM470.484 199.615H467.278V191.949C467.278 191.013 467.726 189.771 468.844 189.771C469.963 189.771 470.484 190.842 470.484 191.949V199.615ZM464.819 199.615H461.614V191.949C461.614 191.013 462.061 189.771 463.18 189.771C464.298 189.771 464.819 190.842 464.819 191.949V199.615ZM331.343 199.327H328.909V194.922C328.909 194.385 329.249 193.672 330.098 193.672C330.947 193.672 331.343 194.287 331.343 194.922V199.327ZM297.232 216.32H292.463H292.461V208.058C292.461 207.376 292.61 204.99 294.847 204.99C297.418 204.99 297.232 208.058 297.232 208.058V216.32ZM305.021 216.32H300.252H300.25V211.593C300.25 210.911 300.399 208.525 302.635 208.525C305.207 208.525 305.021 211.593 305.021 211.593V216.32ZM289.593 216.32H284.824H284.821V211.593C284.821 210.911 284.971 208.525 287.207 208.525C289.779 208.525 289.593 211.593 289.593 211.593V216.32ZM276.164 204.934H273.837H273.834V200.902C273.834 200.569 273.908 199.405 274.999 199.405C276.254 199.405 276.164 200.902 276.164 200.902V204.934ZM322.451 165.353H319.245V157.688C319.245 156.751 319.693 155.509 320.812 155.509C321.93 155.509 322.451 156.58 322.451 157.688V165.353ZM328.116 165.353H324.91V157.688C324.91 156.751 325.358 155.509 326.476 155.509C327.595 155.509 328.116 156.58 328.116 157.688V165.353ZM333.781 165.353H330.575V157.688C330.575 156.751 331.023 155.509 332.141 155.509C333.259 155.509 333.781 156.58 333.781 157.688V165.353ZM339.445 165.353H336.24V157.688C336.24 156.751 336.688 155.509 337.806 155.509C338.924 155.509 339.445 156.58 339.445 157.688V165.353ZM345.11 165.353H341.905V157.688C341.905 156.751 342.352 155.509 343.471 155.509C344.589 155.509 345.11 156.58 345.11 157.688V165.353ZM350.775 165.353H347.569V157.688C347.569 156.751 348.017 155.509 349.135 155.509C350.254 155.509 350.775 156.58 350.775 157.688V165.353ZM356.44 165.353H353.234V157.688C353.234 156.751 353.682 155.509 354.8 155.509C355.918 155.509 356.44 156.58 356.44 157.688V165.353ZM362.104 165.353H358.899V157.688C358.899 156.751 359.347 155.509 360.465 155.509C361.583 155.509 362.104 156.58 362.104 157.688V165.353ZM367.769 165.353H364.564V157.688C364.564 156.751 365.011 155.509 366.13 155.509C367.248 155.509 367.769 156.58 367.769 157.688V165.353ZM373.434 165.353H370.228V157.688C370.228 156.751 370.676 155.509 371.795 155.509C372.913 155.509 373.434 156.58 373.434 157.688V165.353ZM288.032 188.882H284.826V181.216C284.826 180.279 285.274 179.037 286.392 179.037C287.511 179.037 288.032 180.108 288.032 181.216V188.882ZM293.697 188.882H290.491V181.216C290.491 180.279 290.939 179.037 292.057 179.037C293.175 179.037 293.697 180.108 293.697 181.216V188.882ZM299.361 188.882H296.156V181.216C296.156 180.279 296.604 179.037 297.722 179.037C298.84 179.037 299.361 180.108 299.361 181.216V188.882ZM305.026 188.882H301.82V181.216C301.82 180.279 302.268 179.037 303.387 179.037C304.505 179.037 305.026 180.108 305.026 181.216V188.882ZM352.613 189.349H348.553V181.031C348.553 180.013 349.118 178.668 350.535 178.668C351.952 178.668 352.613 179.829 352.613 181.031V189.349ZM345.607 189.349H342.47V182.922C342.47 182.136 342.908 181.096 344.002 181.096C345.095 181.096 345.607 181.993 345.607 182.922V189.349ZM358.693 189.349H355.556V182.922C355.556 182.136 355.994 181.096 357.088 181.096C358.182 181.096 358.693 181.993 358.693 182.922V189.349ZM365.503 189.827H363.069V185.422C363.069 184.882 363.409 184.169 364.258 184.169C365.107 184.169 365.503 184.784 365.503 185.422V189.827ZM338.1 189.827H335.665V185.422C335.665 184.882 336.005 184.169 336.854 184.169C337.703 184.169 338.1 184.784 338.1 185.422V189.827ZM338.161 199.324H335.726V194.92C335.726 194.383 336.066 193.669 336.915 193.669C337.764 193.669 338.161 194.285 338.161 194.92V199.324ZM344.98 199.324H342.546V194.92C342.546 194.383 342.886 193.669 343.735 193.669C344.584 193.669 344.98 194.285 344.98 194.92V199.324ZM351.8 199.324H349.365V194.92C349.365 194.383 349.706 193.669 350.555 193.669C351.404 193.669 351.8 194.285 351.8 194.92V199.324ZM358.62 199.324H356.185V194.92C356.185 194.383 356.525 193.669 357.374 193.669C358.224 193.669 358.62 194.285 358.62 194.92V199.324ZM365.44 199.324H363.005V194.92C363.005 194.383 363.345 193.669 364.194 193.669C365.043 193.669 365.44 194.285 365.44 194.92V199.324ZM372.259 199.324H369.825V194.92C369.825 194.383 370.165 193.669 371.014 193.669C371.863 193.669 372.259 194.285 372.259 194.92V199.324ZM480.888 170.958H479.472V164.388C479.472 163.586 479.67 162.94 480.164 162.94C480.659 162.94 480.888 163.44 480.888 164.388V170.958ZM483.013 170.958H481.596V164.388C481.596 163.586 481.794 162.94 482.288 162.94C482.782 162.94 483.013 163.44 483.013 164.388V170.958ZM485.136 170.958H483.72V164.388C483.72 163.586 483.918 162.94 484.412 162.94C484.906 162.94 485.136 163.44 485.136 164.388V170.958ZM824.998 187.43C808.66 182.438 789.84 172.244 768.302 157.472C744.887 141.417 724.723 123.333 710.416 109.269C702.165 101.159 695.859 94.3794 691.995 90.0921V109.395C704.044 120.279 719.546 133.72 737.274 147.804C769.826 173.668 797.117 185.24 823.276 187.307C823.853 187.352 824.428 187.394 824.998 187.433V187.43ZM908.818 161.561V148.819C907.704 150.313 906.194 152.245 904.308 154.455C899.884 159.631 893.387 166.326 885.087 172.395C872.196 181.82 857.986 187.791 839.92 189.024C843.287 189.396 846.522 189.483 849.63 189.279C870.471 187.903 884.127 181.227 897.928 171.106C901.466 168.511 905.216 165.212 908.818 161.561ZM911.304 151.535V158.957C911.908 158.303 912.508 157.64 913.097 156.972C912.417 154.95 911.808 153.09 911.304 151.535ZM918.17 150.766H912.52C912.98 152.192 913.535 153.895 914.157 155.752C915.561 154.111 916.907 152.441 918.17 150.766ZM920.235 172.387H921.733V150.766H919.902C918.929 152.077 917.749 153.607 916.384 155.277C915.845 155.934 915.278 156.614 914.683 157.307C916.325 162.154 918.331 167.789 920.235 172.387ZM911.304 172.387H918.716C916.966 168.094 915.153 163.015 913.623 158.527C912.887 159.363 912.114 160.216 911.304 161.08V172.387ZM686.722 195.971C680.455 196.648 674.289 197.37 668.227 198.127V202.991H686.722V195.971ZM921.735 198.913C918.297 198.536 914.82 198.172 911.306 197.823V201.257H921.735V198.913ZM930.598 197.546C934.621 198.052 938.583 198.569 942.486 199.101C941.052 195.624 937.494 187.033 933.579 177.866C930.004 169.498 926.189 157.797 924.221 151.524V181.756C927.016 188.471 929.622 195.059 930.598 197.546ZM924.221 196.76C925.827 196.953 927.424 197.149 929.013 197.347C928.051 194.911 926.25 190.378 924.221 185.436V196.76ZM911.306 195.272C914.82 195.658 918.297 196.055 921.735 196.461V179.46C921.378 178.615 921.021 177.779 920.668 176.957H911.306V195.269V195.272ZM855.329 190.33C873.904 191.578 891.794 193.163 908.82 195.001V163.647C905.808 166.659 902.399 169.696 898.67 172.429C885.985 181.731 873.368 188.182 855.329 190.33ZM788.247 187.472C754.56 186.868 722.178 187.48 692.002 189.035V111.397C703.946 122.159 719.159 135.32 736.496 149.093C767.029 173.352 793.058 185.17 817.929 188.331C808.168 187.942 798.268 187.651 788.247 187.472ZM668.23 190.484C674.291 190.056 680.457 189.667 686.724 189.318V148.931H668.23V190.484ZM681.815 100.054C682.863 96.8657 683.638 94.3542 684.128 92.7266H674.044C676.263 94.8493 678.864 97.3075 681.815 100.054ZM668.227 135.437C671.293 128.563 674.125 121.513 676.797 114.35C678.593 109.54 680.098 105.208 681.302 101.603C677.619 98.1773 674.465 95.1848 671.903 92.7266H668.227V135.437ZM628.87 193.941C629.912 192.965 631.038 191.874 632.235 190.672C644.886 177.927 654.752 162.903 662.954 146.588V94.4074C661.608 98.6667 659.511 104.993 656.719 112.474C651.527 126.393 643.926 144.325 634.31 160.325C623.176 178.847 610.554 191.315 604.322 196.874C612.189 195.826 620.381 194.847 628.872 193.944L628.87 193.941ZM662.954 149.63C660.671 154.088 658.234 158.524 655.652 162.817C647.132 176.993 637.887 187.288 631.283 193.686C641.44 192.629 652.014 191.684 662.954 190.864V149.63ZM682.427 102.644C681.245 106.167 679.787 110.348 678.064 114.966C675.402 122.103 672.106 130.294 668.23 138.74V140.057H686.724V106.601C685.227 105.231 683.793 103.91 682.427 102.644ZM685.584 92.7238C685.085 94.399 684.196 97.2991 682.944 101.097C684.15 102.216 685.413 103.382 686.727 104.587V92.7238H685.586H685.584ZM180.186 222.097V39.9503L182.077 40.8144V222.097H180.186ZM186.007 222.097V42.6127L187.898 43.4769V222.097H186.007ZM168.543 222.097V34.6282L170.434 35.4924V222.097H168.543ZM174.364 222.097V37.2906L176.256 38.1548V222.097H174.364ZM1374.15 222.089V215.156H1379.03V222.089H1374.15ZM1366.35 222.089V215.156H1371.23V222.089H1366.35ZM1358.54 222.089V215.156H1363.42V222.089H1358.54ZM1381.96 213.288V206.355H1386.84V213.288H1381.96ZM1374.15 213.288V206.355H1379.03V213.288H1374.15ZM1366.35 213.288V206.355H1371.23V213.288H1366.35ZM1358.54 213.288V206.355H1363.42V213.288H1358.54ZM1381.96 204.487V197.554H1386.84V204.487H1381.96ZM1374.15 204.487V197.554H1379.03V204.487H1374.15ZM1366.35 204.487V197.554H1371.23V204.487H1366.35ZM1358.54 204.487V197.554H1363.42V204.487H1358.54ZM1381.96 195.686V188.753H1386.84V195.686H1381.96ZM1374.15 195.686V188.753H1379.03V195.686H1374.15ZM1366.35 195.686V188.753H1371.23V195.686H1366.35ZM1358.54 195.686V188.753H1363.42V195.686H1358.54ZM1381.96 186.885V179.952H1386.84V186.885H1381.96ZM1374.15 186.885V179.952H1379.03V186.885H1374.15ZM1366.35 186.885V179.952H1371.23V186.885H1366.35ZM1358.54 186.885V179.952H1363.42V186.885H1358.54ZM1381.96 178.084V171.151H1386.84V178.084H1381.96ZM1374.15 178.084V171.151H1379.03V178.084H1374.15ZM1366.35 178.084V171.151H1371.23V178.084H1366.35ZM1358.54 178.084V171.151H1363.42V178.084H1358.54ZM1381.96 169.282V162.349H1386.84V169.282H1381.96ZM1374.15 169.282V162.349H1379.03V169.282H1374.15ZM1366.35 169.282V162.349H1371.23V169.282H1366.35ZM1358.54 169.282V162.349H1363.42V169.282H1358.54ZM1381.96 160.481V153.548H1386.84V160.481H1381.96ZM1374.15 160.481V153.548H1379.03V160.481H1374.15ZM1366.35 160.481V153.548H1371.23V160.481H1366.35ZM1358.54 160.481V153.548H1363.42V160.481H1358.54ZM1381.96 151.68V144.747H1386.84V151.68H1381.96ZM1374.15 151.68V144.747H1379.03V151.68H1374.15ZM1366.35 151.68V144.747H1371.23V151.68H1366.35ZM1358.54 151.68V144.747H1363.42V151.68H1358.54ZM1381.97 222.086V215.153H1386.85V222.086H1381.97ZM982.567 159.799V174.163H986.637V159.799H982.567ZM971.524 138.547H973.907V134.889C973.907 134.422 973.653 133.527 972.645 133.527C971.999 133.527 971.49 134.111 971.49 134.889C971.49 135.98 971.524 138.547 971.524 138.547ZM1030.45 217.061V221.653H1033.31V217.061H1030.45ZM1020.43 230.689V239.331H1024.11V230.689H1020.43ZM1027.24 230.689V239.331H1030.92V230.689H1027.24ZM1034.06 230.689V239.331H1037.73V230.689H1034.06ZM965.871 230.689V239.331H969.549V230.689H965.871ZM972.684 230.689V239.331H976.362V230.689H972.684ZM979.496 230.689V239.331H983.174V230.689H979.496ZM998.913 230.689V242.038H1005.45V230.689H998.913ZM971.526 188.372H973.91V184.714C973.91 184.247 973.655 183.352 972.647 183.352C972.001 183.352 971.492 183.937 971.492 184.714C971.492 185.805 971.526 188.372 971.526 188.372ZM972.072 159.802V174.244H977.522V159.802H972.072ZM962.952 159.802V174.165H967.022V159.802H962.952ZM1181.08 187.494H1179.45H1179.45V184.127C1179.45 183.716 1179.68 183.171 1180.24 183.171C1180.81 183.171 1181.08 183.64 1181.08 184.127V187.494ZM1177.69 187.494H1176.06H1176.06V184.127C1176.06 183.716 1176.29 183.171 1176.86 183.171C1177.42 183.171 1177.69 183.64 1177.69 184.127V187.494ZM1194.64 187.494H1193.01H1193.01V184.127C1193.01 183.716 1193.24 183.171 1193.81 183.171C1194.37 183.171 1194.64 183.64 1194.64 184.127V187.494ZM1185.36 168.65H1183.35V164.201C1183.35 163.658 1183.63 162.937 1184.33 162.937C1185.03 162.937 1185.36 163.558 1185.36 164.201V168.65ZM1189.54 168.65H1187.53V164.201C1187.53 163.658 1187.81 162.937 1188.51 162.937C1189.21 162.937 1189.54 163.558 1189.54 164.201V168.65ZM1193.73 168.65H1191.72H1191.72V164.201C1191.72 163.658 1192 162.937 1192.7 162.937C1193.4 162.937 1193.73 163.558 1193.73 164.201V168.65ZM1197.91 168.65H1195.9H1195.9V164.201C1195.9 163.658 1196.18 162.937 1196.88 162.937C1197.58 162.937 1197.91 163.558 1197.91 164.201V168.65ZM1202.1 168.65H1200.09V164.201C1200.09 163.658 1200.37 162.937 1201.07 162.937C1201.77 162.937 1202.1 163.558 1202.1 164.201V168.65ZM1206.28 168.65H1204.27H1204.27V164.201C1204.27 163.658 1204.55 162.937 1205.25 162.937C1205.95 162.937 1206.28 163.558 1206.28 164.201V168.65ZM1210.47 168.65H1208.46H1208.46V164.201C1208.46 163.658 1208.74 162.937 1209.44 162.937C1210.14 162.937 1210.47 163.558 1210.47 164.201V168.65ZM1214.65 168.65H1212.65H1212.64V164.201C1212.64 163.658 1212.92 162.937 1213.62 162.937C1214.33 162.937 1214.65 163.558 1214.65 164.201V168.65ZM1218.84 168.65H1216.83H1216.83V164.201C1216.83 163.658 1217.11 162.937 1217.81 162.937C1218.51 162.937 1218.84 163.558 1218.84 164.201V168.65ZM1156.94 200.846H1155.31H1155.31V197.481C1155.31 197.07 1155.54 196.525 1156.11 196.525C1156.67 196.525 1156.94 196.995 1156.94 197.481V200.846ZM1150.16 200.846H1148.53V197.481C1148.53 197.07 1148.76 196.525 1149.32 196.525C1149.89 196.525 1150.16 196.995 1150.16 197.481V200.846ZM1153.55 200.846H1151.92H1151.92V197.481C1151.92 197.07 1152.15 196.525 1152.71 196.525C1153.28 196.525 1153.55 196.995 1153.55 197.481V200.846ZM1223.02 168.65H1221.02H1221.01V164.201C1221.01 163.658 1221.3 162.937 1222 162.937C1222.7 162.937 1223.02 163.558 1223.02 164.201V168.65ZM1241.88 187.623H1240.25H1240.25V184.258C1240.25 183.847 1240.48 183.302 1241.05 183.302C1241.62 183.302 1241.88 183.772 1241.88 184.258V187.623ZM1235.1 187.623H1233.47H1233.47V184.258C1233.47 183.847 1233.7 183.302 1234.27 183.302C1234.83 183.302 1235.1 183.772 1235.1 184.258V187.623ZM1238.49 187.623H1236.86H1236.86V184.258C1236.86 183.847 1237.09 183.302 1237.66 183.302C1238.22 183.302 1238.49 183.772 1238.49 184.258V187.623ZM1192.6 199.363H1190.98H1190.97V195.999C1190.97 195.588 1191.2 195.042 1191.77 195.042C1192.34 195.042 1192.6 195.512 1192.6 195.999V199.363ZM1179.04 199.363H1177.42H1177.41V195.999C1177.41 195.588 1177.64 195.042 1178.21 195.042C1178.78 195.042 1179.04 195.512 1179.04 195.999V199.363ZM1182.43 199.363H1180.81H1180.8V195.999C1180.8 195.588 1181.03 195.042 1181.6 195.042C1182.17 195.042 1182.43 195.512 1182.43 195.999V199.363ZM1185.82 199.363H1184.2V195.999C1184.2 195.588 1184.42 195.042 1184.99 195.042C1185.56 195.042 1185.82 195.512 1185.82 195.999V199.363ZM1189.21 199.363H1187.59V195.999C1187.59 195.588 1187.81 195.042 1188.38 195.042C1188.95 195.042 1189.21 195.512 1189.21 195.999V199.363ZM1232.26 201.788H1230.63H1230.63V198.424C1230.63 198.013 1230.86 197.467 1231.43 197.467C1231.99 197.467 1232.26 197.937 1232.26 198.424V201.788ZM1218.7 201.788H1217.07V198.424C1217.07 198.013 1217.3 197.467 1217.87 197.467C1218.43 197.467 1218.7 197.937 1218.7 198.424V201.788ZM1222.09 201.788H1220.46H1220.46V198.424C1220.46 198.013 1220.69 197.467 1221.25 197.467C1221.82 197.467 1222.09 197.937 1222.09 198.424V201.788ZM1225.48 201.788H1223.85H1223.85V198.424C1223.85 198.013 1224.08 197.467 1224.65 197.467C1225.21 197.467 1225.48 197.937 1225.48 198.424V201.788ZM1228.87 201.788H1227.24H1227.24V198.424C1227.24 198.013 1227.47 197.467 1228.03 197.467C1228.6 197.467 1228.87 197.937 1228.87 198.424V201.788ZM1191.25 187.494H1189.62V184.127C1189.62 183.716 1189.85 183.171 1190.42 183.171C1190.98 183.171 1191.25 183.64 1191.25 184.127V187.494ZM1187.86 187.494H1186.23H1186.23V184.127C1186.23 183.716 1186.46 183.171 1187.03 183.171C1187.59 183.171 1187.86 183.64 1187.86 184.127V187.494ZM1184.47 187.494H1182.84H1182.84V184.127C1182.84 183.716 1183.07 183.171 1183.64 183.171C1184.2 183.171 1184.47 183.64 1184.47 184.127V187.494ZM1102.96 236.794H1099.02V228.642C1099.02 227.646 1099.57 226.326 1100.94 226.326C1102.32 226.326 1102.96 227.464 1102.96 228.642V236.794ZM1094.47 236.794H1090.53V228.642C1090.53 227.646 1091.08 226.326 1092.45 226.326C1093.82 226.326 1094.47 227.464 1094.47 228.642V236.794ZM1085.98 236.794H1082.04V228.642C1082.04 227.646 1082.59 226.326 1083.96 226.326C1085.34 226.326 1085.98 227.464 1085.98 228.642V236.794ZM1077.49 236.794H1073.55V228.642C1073.55 227.646 1074.1 226.326 1075.48 226.326C1076.85 226.326 1077.49 227.464 1077.49 228.642V236.794ZM1069 236.794H1065.07V228.642C1065.07 227.646 1065.62 226.326 1066.99 226.326C1068.36 226.326 1069 227.464 1069 228.642V236.794ZM1111.45 236.794H1107.51V228.642C1107.51 227.646 1108.06 226.326 1109.43 226.326C1110.81 226.326 1111.45 227.464 1111.45 228.642V236.794Z" fill="url(#paint2_linear_169_2737)"/>
<defs>
<linearGradient id="paint0_linear_169_2737" x1="-50" y1="303.184" x2="1495" y2="303.184" gradientUnits="userSpaceOnUse">
<stop stop-color="#90ECFF"/>
<stop offset="0.26" stop-color="#4B79FF"/>
<stop offset="0.52" stop-color="#8848FB"/>
<stop offset="0.79" stop-color="#D343FF"/>
<stop offset="1" stop-color="#FFA7FF"/>
</linearGradient>
<linearGradient id="paint1_linear_169_2737" x1="722.5" y1="251" x2="722.035" y2="317.536" gradientUnits="userSpaceOnUse">
<stop stop-color="#110D38" stop-opacity="0"/>
<stop offset="1" stop-color="#110D38" stop-opacity="0.96"/>
</linearGradient>
<linearGradient id="paint2_linear_169_2737" x1="-50" y1="124.904" x2="1494.88" y2="124.904" gradientUnits="userSpaceOnUse">
<stop stop-color="#90ECFF"/>
<stop offset="0.26" stop-color="#4B79FF"/>
<stop offset="0.52" stop-color="#8848FB"/>
<stop offset="0.79" stop-color="#D343FF"/>
<stop offset="1" stop-color="#FFA7FF"/>
</linearGradient>
</defs>
</svg>
