<svg width="240" height="61" viewBox="0 0 240 61" fill="none" xmlns="http://www.w3.org/2000/svg">
<path d="M68.7833 34.8543C66.3569 44.4971 56.5 50.3656 46.7667 47.9609C37.0375 45.5568 31.1147 35.7897 33.5422 26.1475C35.9674 16.5036 45.8244 10.6346 55.5547 13.0386C65.2874 15.4427 71.2096 25.2109 68.7833 34.8543Z" fill="#F7931A"/>
<path d="M59.1725 27.9353C59.5341 25.5402 57.6937 24.2526 55.1771 23.3937L55.9934 20.1493L54.0002 19.6571L53.2054 22.816C52.6815 22.6867 52.1433 22.5646 51.6085 22.4437L52.4089 19.2639L50.4169 18.7717L49.6 22.015C49.1662 21.9172 48.7405 21.8204 48.3272 21.7186L48.3295 21.7085L45.5807 21.0284L45.0504 23.1378C45.0504 23.1378 46.5293 23.4736 46.4981 23.4944C47.3053 23.6941 47.4512 24.2234 47.4268 24.643L46.4969 28.3391C46.5526 28.3532 46.6247 28.3735 46.7041 28.405C46.6377 28.3886 46.5668 28.3706 46.4935 28.3532L45.1901 33.5309C45.0913 33.7739 44.841 34.1384 44.2767 34.0001C44.2965 34.0287 42.8279 33.6417 42.8279 33.6417L41.8384 35.9024L44.4322 36.5431C44.9147 36.6629 45.3876 36.7883 45.8531 36.9064L45.0283 40.188L47.0192 40.6802L47.8361 37.4335C48.38 37.5797 48.9079 37.7148 49.4246 37.8419L48.6105 41.0734L50.6037 41.5656L51.4285 38.2902C54.8274 38.9275 57.3831 38.6704 58.4589 35.6245C59.3258 33.1721 58.4158 31.7574 56.6275 30.8349C57.9298 30.5374 58.9108 29.6886 59.1725 27.9353ZM54.6184 34.2627C54.0025 36.7152 49.835 35.3894 48.4839 35.057L49.5784 30.7095C50.9295 31.0436 55.2622 31.7051 54.6184 34.2627ZM55.235 27.8998C54.6729 30.1307 51.2043 28.9973 50.0791 28.7194L51.0715 24.7763C52.1966 25.0542 55.8203 25.5728 55.235 27.8998Z" fill="white"/>
<path d="M86.2348 23.3902C87.7079 23.3902 88.9807 23.6518 90.0503 24.1653C91.1249 24.6839 92.0117 25.3826 92.723 26.2612C93.4247 27.1443 93.947 28.1764 94.2842 29.3594C94.6191 30.5457 94.7872 31.8208 94.7872 33.186C94.7872 35.283 94.3994 37.2641 93.6166 39.1315C92.8337 41.0018 91.7715 42.624 90.4204 44.0078C89.0704 45.3898 87.4763 46.4793 85.6381 47.2843C83.8027 48.0898 81.8073 48.4925 79.6648 48.4925C79.3877 48.4925 78.9006 48.4846 78.2126 48.4706C77.5245 48.4565 76.7337 48.3862 75.8481 48.2675C74.9568 48.1443 74.0145 47.9621 73.0193 47.7179C72.0247 47.4783 71.08 47.1425 70.1904 46.7161L78.145 13.5989L85.2697 12.5049L82.4215 24.257C83.0312 23.9848 83.6455 23.7738 84.2586 23.6203C84.8723 23.469 85.5308 23.3902 86.2348 23.3902ZM80.2586 42.8923C81.3315 42.8923 82.3426 42.6308 83.2924 42.1172C84.245 41.6031 85.067 40.909 85.7556 40.0444C86.4442 39.176 86.9892 38.1978 87.3866 37.1049C87.784 36.012 87.985 34.8718 87.985 33.6855C87.985 32.2281 87.7392 31.0913 87.2492 30.2695C86.7593 29.4511 85.8527 29.0393 84.5362 29.0393C84.1047 29.0393 83.549 29.1209 82.8598 29.2665C82.1683 29.4212 81.5495 29.7424 80.9949 30.2256L77.9622 42.7062C78.145 42.7382 78.3068 42.7686 78.4448 42.7973C78.5799 42.8282 78.7292 42.8502 78.8779 42.8653C79.0352 42.8828 79.2152 42.8918 79.4326 42.8918C79.65 42.8918 79.9219 42.8923 80.2586 42.8923Z" fill="white"/>
<path d="M102.176 47.8586H95.3706L101.117 23.8982H107.969L102.176 47.8586ZM105.487 20.9789C104.537 20.9789 103.676 20.6988 102.912 20.1374C102.142 19.5794 101.76 18.7205 101.76 17.5629C101.76 16.9261 101.891 16.3288 102.15 15.7651C102.412 15.2026 102.756 14.7184 103.186 14.3066C103.616 13.8982 104.114 13.572 104.679 13.3262C105.248 13.0843 105.853 12.9634 106.498 12.9634C107.447 12.9634 108.304 13.2435 109.071 13.8049C109.835 14.369 110.219 15.228 110.219 16.3794C110.219 17.0184 110.089 17.618 109.828 18.1805C109.569 18.743 109.225 19.2273 108.795 19.639C108.369 20.0479 107.866 20.3731 107.302 20.6166C106.733 20.8624 106.13 20.9789 105.487 20.9789Z" fill="white"/>
<path d="M113.933 17.9285L121.06 16.8345L119.31 23.8971H126.943L125.565 29.4534H117.978L115.957 37.8345C115.77 38.5331 115.665 39.1856 115.635 39.792C115.602 40.4012 115.68 40.9243 115.864 41.3647C116.046 41.8063 116.375 42.1466 116.852 42.3873C117.326 42.632 118.006 42.7552 118.897 42.7552C119.631 42.7552 120.347 42.686 121.038 42.5488C121.726 42.4138 122.422 42.2259 123.127 41.9801L123.635 47.1753C122.715 47.5094 121.719 47.7968 120.646 48.0387C119.572 48.2839 118.299 48.402 116.829 48.402C114.715 48.402 113.076 48.091 111.908 47.4717C110.742 46.8479 109.918 45.9957 109.425 44.9169C108.938 43.8419 108.721 42.6028 108.781 41.2067C108.844 39.8072 109.057 38.3363 109.425 36.7872L113.933 17.9285Z" fill="white"/>
<path d="M126.644 38.2906C126.644 36.2268 126.981 34.2806 127.655 32.4587C128.327 30.6351 129.296 29.0404 130.554 27.6719C131.807 26.3101 133.333 25.2312 135.13 24.4392C136.918 23.6518 138.921 23.2546 141.127 23.2546C142.508 23.2546 143.742 23.384 144.828 23.6433C145.918 23.9049 146.904 24.2429 147.795 24.6671L145.449 29.9545C144.835 29.7081 144.199 29.491 143.541 29.2941C142.883 29.0933 142.079 28.9966 141.128 28.9966C138.856 28.9966 137.061 29.7722 135.724 31.3185C134.393 32.8659 133.723 34.9488 133.723 37.5616C133.723 39.1101 134.06 40.3622 134.737 41.3202C135.41 42.2781 136.654 42.7545 138.46 42.7545C139.351 42.7545 140.211 42.6623 141.035 42.4823C141.865 42.3 142.598 42.0705 143.243 41.7994L143.751 47.2196C142.891 47.5503 141.941 47.849 140.9 48.1106C139.857 48.3631 138.615 48.4942 137.174 48.4942C135.273 48.4942 133.664 48.2186 132.347 47.6758C131.03 47.1245 129.942 46.3927 129.085 45.4657C128.223 44.5365 127.604 43.4515 127.221 42.2061C126.839 40.9619 126.644 39.6546 126.644 38.2906Z" fill="white"/>
<path d="M156.873 48.4942C155.249 48.4942 153.839 48.2489 152.642 47.7635C151.449 47.2781 150.46 46.5969 149.678 45.7138C148.896 44.8352 148.31 43.794 147.908 42.5942C147.507 41.395 147.314 40.0669 147.314 38.6118C147.314 36.7865 147.61 34.9618 148.208 33.1421C148.802 31.3185 149.685 29.68 150.854 28.2237C152.013 26.7652 153.443 25.5727 155.127 24.6429C156.809 23.7192 158.743 23.2546 160.917 23.2546C162.511 23.2546 163.915 23.5004 165.128 23.9859C166.335 24.4702 167.33 25.157 168.116 26.0356C168.894 26.9187 169.485 27.9554 169.882 29.1569C170.283 30.3538 170.48 31.6853 170.48 33.1415C170.48 34.9612 170.188 36.7859 169.609 38.6112C169.03 40.4275 168.17 42.07 167.034 43.5296C165.901 44.9859 164.484 46.1779 162.782 47.1037C161.082 48.0296 159.111 48.4942 156.873 48.4942ZM160.275 28.9971C159.266 28.9971 158.374 29.2873 157.61 29.8605C156.844 30.4405 156.2 31.1695 155.681 32.0486C155.157 32.9317 154.768 33.8947 154.505 34.9415C154.244 35.9906 154.117 36.9822 154.117 37.9244C154.117 39.4448 154.364 40.6289 154.851 41.481C155.344 42.3287 156.23 42.7551 157.518 42.7551C158.531 42.7551 159.418 42.4671 160.186 41.8877C160.948 41.3123 161.592 40.5827 162.115 39.7019C162.636 38.8233 163.028 37.8575 163.291 36.809C163.548 35.7633 163.68 34.766 163.68 33.8255C163.68 32.3091 163.433 31.1222 162.942 30.2712C162.452 29.4235 161.562 28.9971 160.275 28.9971Z" fill="white"/>
<path d="M177.896 47.8586H171.085L176.832 23.8982H183.687L177.896 47.8586ZM181.202 20.9789C180.253 20.9789 179.392 20.6988 178.629 20.1374C177.863 19.5794 177.478 18.7205 177.478 17.5629C177.478 16.9261 177.61 16.3288 177.87 15.7651C178.129 15.2026 178.475 14.7184 178.905 14.3066C179.332 13.8982 179.835 13.572 180.399 13.3262C180.965 13.0843 181.57 12.9634 182.212 12.9634C183.164 12.9634 184.023 13.2435 184.789 13.8049C185.554 14.369 185.941 15.228 185.941 16.3794C185.941 17.0184 185.804 17.618 185.547 18.1805C185.289 18.743 184.944 19.2273 184.515 19.639C184.084 20.0479 183.587 20.3731 183.022 20.6166C182.452 20.8624 181.848 20.9789 181.202 20.9789Z" fill="white"/>
<path d="M188.591 24.9879C189.108 24.8382 189.685 24.6582 190.312 24.4625C190.941 24.2668 191.645 24.0845 192.431 23.9203C193.208 23.751 194.085 23.6137 195.049 23.5074C196.014 23.3988 197.113 23.3459 198.334 23.3459C201.923 23.3459 204.397 24.3815 205.763 26.4464C207.128 28.5113 207.364 31.3373 206.478 34.9192L203.348 47.8565H196.498L199.532 35.1915C199.717 34.4006 199.862 33.6362 199.97 32.8892C200.078 32.1489 200.072 31.4965 199.945 30.9317C199.824 30.3737 199.539 29.917 199.097 29.5632C198.648 29.215 197.97 29.0401 197.049 29.0401C196.162 29.0401 195.259 29.1346 194.338 29.3168L189.878 47.8559H183.025L188.591 24.9879Z" fill="white"/>
</svg>
