<svg width="96" height="38" viewBox="0 0 96 38" fill="none" xmlns="http://www.w3.org/2000/svg">
<path d="M12 31C18.6274 31 24 25.6274 24 19C24 12.3726 18.6274 7 12 7C5.37258 7 0 12.3726 0 19C0 25.6274 5.37258 31 12 31Z" fill="#F7931A"/>
<path fill-rule="evenodd" clip-rule="evenodd" d="M16.9919 17.1331C17.2271 15.5609 16.03 14.7157 14.3932 14.1519L14.9242 12.0222L13.6278 11.6991L13.1109 13.7727C12.7701 13.6878 12.4201 13.6076 12.0722 13.5283L12.5929 11.441L11.2972 11.1179L10.7659 13.2469C10.4838 13.1827 10.2069 13.1192 9.93808 13.0523L9.93956 13.0457L8.15174 12.5993L7.80688 13.9839C7.80688 13.9839 8.76873 14.2043 8.74842 14.218C9.27347 14.3491 9.36836 14.6965 9.35248 14.972L8.74768 17.3982C8.78387 17.4074 8.83076 17.4207 8.88245 17.4414L8.83854 17.4304L8.83848 17.4304C8.80843 17.4229 8.77728 17.415 8.74547 17.4074L7.89771 20.8062C7.83347 20.9657 7.67063 21.2049 7.30362 21.1141C7.31654 21.1329 6.36134 20.8789 6.36134 20.8789L5.71777 22.3628L7.40479 22.7834C7.5932 22.8306 7.77934 22.8792 7.96354 22.9272L7.9638 22.9273C8.08635 22.9592 8.20805 22.991 8.32897 23.0219L7.79248 25.176L9.08737 25.4991L9.6187 23.3679C9.97242 23.4639 10.3158 23.5525 10.6518 23.636L10.1223 25.7572L11.4187 26.0803L11.9552 23.9302C14.1658 24.3486 15.828 24.1798 16.5277 22.1804C17.0916 20.5706 16.4997 19.642 15.3366 19.0364C16.1836 18.8411 16.8217 18.284 16.9919 17.1331ZM14.0299 21.2865C13.6624 22.7635 11.3505 22.1529 10.2927 21.8735L10.2926 21.8735C10.1975 21.8483 10.1125 21.8259 10.04 21.8079L10.7519 18.9541C10.8402 18.9761 10.9481 19.0004 11.0704 19.0278L11.0704 19.0278C12.1644 19.2733 14.4065 19.7764 14.0299 21.2865ZM11.2902 17.7034C12.1721 17.9388 14.0958 18.4522 14.4309 17.1098C14.7731 15.7367 12.9034 15.3228 11.9903 15.1207C11.8875 15.098 11.7969 15.0779 11.7229 15.0595L11.0775 17.6478C11.1385 17.663 11.21 17.6821 11.2902 17.7034Z" fill="white"/>
<path d="M34.846 25V23.65H36.61V13.75H34.846V12.4H41.164C41.896 12.4 42.544 12.532 43.108 12.796C43.684 13.06 44.128 13.432 44.44 13.912C44.764 14.38 44.926 14.932 44.926 15.568V15.712C44.926 16.3 44.812 16.786 44.584 17.17C44.356 17.542 44.086 17.836 43.774 18.052C43.462 18.256 43.156 18.406 42.856 18.502V18.754C43.156 18.826 43.468 18.97 43.792 19.186C44.116 19.39 44.386 19.684 44.602 20.068C44.83 20.452 44.944 20.938 44.944 21.526V21.706C44.944 22.39 44.776 22.984 44.44 23.488C44.116 23.98 43.666 24.358 43.09 24.622C42.526 24.874 41.878 25 41.146 25H34.846ZM38.122 23.632H40.984C41.776 23.632 42.382 23.446 42.802 23.074C43.222 22.702 43.432 22.198 43.432 21.562V21.4C43.432 20.764 43.222 20.26 42.802 19.888C42.382 19.516 41.776 19.33 40.984 19.33H38.122V23.632ZM38.122 17.962H41.038C41.758 17.962 42.334 17.782 42.766 17.422C43.198 17.05 43.414 16.564 43.414 15.964V15.784C43.414 15.172 43.198 14.686 42.766 14.326C42.346 13.954 41.77 13.768 41.038 13.768H38.122V17.962ZM47.3944 25V16.198H48.8164V25H47.3944ZM48.1144 14.83C47.8024 14.83 47.5384 14.728 47.3224 14.524C47.1184 14.32 47.0164 14.062 47.0164 13.75C47.0164 13.426 47.1184 13.162 47.3224 12.958C47.5384 12.754 47.8024 12.652 48.1144 12.652C48.4264 12.652 48.6844 12.754 48.8884 12.958C49.0924 13.162 49.1944 13.426 49.1944 13.75C49.1944 14.062 49.0924 14.32 48.8884 14.524C48.6844 14.728 48.4264 14.83 48.1144 14.83ZM55.0465 25C54.5425 25 54.1525 24.862 53.8765 24.586C53.6125 24.31 53.4805 23.932 53.4805 23.452V17.44H50.8345V16.198H53.4805V13.066H54.9025V16.198H57.7825V17.44H54.9025V23.236C54.9025 23.596 55.0765 23.776 55.4245 23.776H57.3865V25H55.0465ZM63.8194 25.252C62.9674 25.252 62.1994 25.072 61.5154 24.712C60.8434 24.34 60.3094 23.812 59.9134 23.128C59.5294 22.444 59.3374 21.634 59.3374 20.698V20.5C59.3374 19.552 59.5294 18.742 59.9134 18.07C60.3094 17.386 60.8434 16.864 61.5154 16.504C62.1994 16.132 62.9674 15.946 63.8194 15.946C64.6594 15.946 65.3734 16.102 65.9614 16.414C66.5614 16.726 67.0294 17.14 67.3654 17.656C67.7134 18.172 67.9354 18.724 68.0314 19.312L66.6454 19.6C66.5854 19.168 66.4414 18.772 66.2134 18.412C65.9974 18.052 65.6914 17.764 65.2954 17.548C64.8994 17.332 64.4134 17.224 63.8374 17.224C63.2494 17.224 62.7214 17.356 62.2534 17.62C61.7974 17.884 61.4314 18.262 61.1554 18.754C60.8914 19.246 60.7594 19.834 60.7594 20.518V20.68C60.7594 21.364 60.8914 21.952 61.1554 22.444C61.4314 22.936 61.7974 23.314 62.2534 23.578C62.7214 23.842 63.2494 23.974 63.8374 23.974C64.7134 23.974 65.3794 23.746 65.8354 23.29C66.3034 22.834 66.5914 22.27 66.6994 21.598L68.1034 21.904C67.9714 22.48 67.7314 23.026 67.3834 23.542C67.0354 24.058 66.5614 24.472 65.9614 24.784C65.3734 25.096 64.6594 25.252 63.8194 25.252ZM74.5952 25.252C73.7072 25.252 72.9212 25.066 72.2372 24.694C71.5652 24.322 71.0372 23.8 70.6532 23.128C70.2812 22.444 70.0952 21.64 70.0952 20.716V20.482C70.0952 19.57 70.2812 18.772 70.6532 18.088C71.0372 17.404 71.5652 16.876 72.2372 16.504C72.9212 16.132 73.7072 15.946 74.5952 15.946C75.4832 15.946 76.2632 16.132 76.9352 16.504C77.6192 16.876 78.1472 17.404 78.5192 18.088C78.9032 18.772 79.0952 19.57 79.0952 20.482V20.716C79.0952 21.64 78.9032 22.444 78.5192 23.128C78.1472 23.8 77.6192 24.322 76.9352 24.694C76.2632 25.066 75.4832 25.252 74.5952 25.252ZM74.5952 23.974C75.5312 23.974 76.2752 23.68 76.8272 23.092C77.3912 22.492 77.6732 21.688 77.6732 20.68V20.518C77.6732 19.51 77.3912 18.712 76.8272 18.124C76.2752 17.524 75.5312 17.224 74.5952 17.224C73.6712 17.224 72.9272 17.524 72.3632 18.124C71.7992 18.712 71.5172 19.51 71.5172 20.518V20.68C71.5172 21.688 71.7992 22.492 72.3632 23.092C72.9272 23.68 73.6712 23.974 74.5952 23.974ZM81.6542 25V16.198H83.0762V25H81.6542ZM82.3742 14.83C82.0622 14.83 81.7982 14.728 81.5822 14.524C81.3782 14.32 81.2762 14.062 81.2762 13.75C81.2762 13.426 81.3782 13.162 81.5822 12.958C81.7982 12.754 82.0622 12.652 82.3742 12.652C82.6862 12.652 82.9442 12.754 83.1482 12.958C83.3522 13.162 83.4542 13.426 83.4542 13.75C83.4542 14.062 83.3522 14.32 83.1482 14.524C82.9442 14.728 82.6862 14.83 82.3742 14.83ZM86.0663 25V16.198H87.4523V17.692H87.7043C87.8963 17.272 88.2203 16.894 88.6763 16.558C89.1443 16.21 89.8283 16.036 90.7283 16.036C91.3883 16.036 91.9763 16.174 92.4923 16.45C93.0203 16.726 93.4403 17.134 93.7523 17.674C94.0643 18.214 94.2203 18.88 94.2203 19.672V25H92.7983V19.78C92.7983 18.904 92.5763 18.268 92.1323 17.872C91.7003 17.476 91.1123 17.278 90.3683 17.278C89.5163 17.278 88.8203 17.554 88.2803 18.106C87.7523 18.658 87.4883 19.48 87.4883 20.572V25H86.0663Z" fill="white"/>
</svg>
