<svg width="232" height="60" viewBox="0 0 232 60" fill="none" xmlns="http://www.w3.org/2000/svg">
<g clip-path="url(#clip0_152_2754)">
<path d="M66.1064 34.3725C66.103 34.5742 66.0201 34.7663 65.8758 34.9068C65.7315 35.0474 65.5376 35.125 65.3364 35.1227H51.1555C51.5191 38.6379 54.15 41.853 57.8716 41.853C60.4169 41.853 62.2991 40.8884 63.7108 38.8522C63.7765 38.7452 63.8675 38.6561 63.9756 38.5925C64.0838 38.529 64.2058 38.4931 64.3311 38.4878C64.4245 38.4852 64.5175 38.5017 64.6043 38.5363C64.6911 38.5709 64.77 38.6229 64.8361 38.6891C64.9022 38.7553 64.9541 38.8343 64.9886 38.9214C65.0231 39.0084 65.0396 39.1016 65.0369 39.1952C65.0374 39.3245 65.0002 39.4511 64.93 39.5595C63.4969 42.0459 60.6522 43.2676 57.8716 43.2676C53.1019 43.2676 49.6797 38.9808 49.6797 34.4154C49.6797 29.85 53.0805 25.5632 57.8716 25.5632C62.6627 25.5632 66.085 29.8071 66.1064 34.3725ZM64.5877 33.7081C64.2883 30.1929 61.5933 26.9779 57.8716 26.9779C54.15 26.9779 51.5191 30.1929 51.1555 33.7081H64.5877Z" fill="white"/>
<path d="M83.3462 25.9062C83.5317 25.9116 83.7081 25.9879 83.8393 26.1194C83.9705 26.2509 84.0466 26.4277 84.052 26.6136C84.0547 26.7072 84.0382 26.8003 84.0037 26.8874C83.9692 26.9744 83.9173 27.0534 83.8512 27.1196C83.7851 27.1859 83.7062 27.2379 83.6194 27.2725C83.5326 27.3071 83.4396 27.3235 83.3462 27.3209H79.5389V42.3031C79.5373 42.4902 79.4624 42.6691 79.3304 42.8014C79.1984 42.9337 79.0198 43.0088 78.8331 43.0105C78.6476 43.0051 78.4712 42.9288 78.34 42.7973C78.2088 42.6658 78.1327 42.489 78.1273 42.3031V27.3209H74.4698C74.3764 27.3235 74.2834 27.3071 74.1966 27.2725C74.1097 27.2379 74.0309 27.1859 73.9648 27.1196C73.8987 27.0534 73.8468 26.9744 73.8123 26.8874C73.7777 26.8003 73.7613 26.7072 73.7639 26.6136C73.7656 26.4265 73.8405 26.2476 73.9725 26.1153C74.1045 25.983 74.2831 25.9079 74.4698 25.9062H78.1273V20.4406C78.1276 20.2595 78.1925 20.0845 78.3101 19.947C78.4277 19.8094 78.5904 19.7185 78.7689 19.6904C78.8688 19.6771 78.9702 19.6856 79.0665 19.7152C79.1627 19.7449 79.2514 19.795 79.3266 19.8621C79.4017 19.9293 79.4615 20.0119 79.5018 20.1044C79.5422 20.1968 79.5621 20.2969 79.5603 20.3977V25.9062H83.3462Z" fill="white"/>
<path d="M106.553 33.1509V42.2174C106.548 42.4033 106.472 42.5801 106.34 42.7116C106.209 42.8431 106.033 42.9193 105.847 42.9247C105.754 42.9274 105.661 42.9109 105.574 42.8763C105.487 42.8417 105.408 42.7897 105.342 42.7235C105.276 42.6573 105.224 42.5782 105.19 42.4912C105.155 42.4042 105.139 42.311 105.142 42.2174V33.1509C105.142 30.0858 103.409 27.0422 100.008 27.0422C95.6449 27.0422 93.7626 30.8575 94.0193 34.7799C94.0193 34.887 94.0621 35.3371 94.0621 35.4014V42.196C94.0617 42.3771 93.9969 42.5521 93.8793 42.6896C93.7617 42.8271 93.599 42.9181 93.4204 42.9462C93.3206 42.9594 93.2191 42.951 93.1229 42.9213C93.0266 42.8917 92.9379 42.8416 92.8628 42.7744C92.7876 42.7073 92.7279 42.6247 92.6875 42.5322C92.6472 42.4398 92.6272 42.3397 92.629 42.2388V12.4244C92.6307 12.2373 92.7056 12.0583 92.8376 11.9261C92.9696 11.7938 93.1482 11.7187 93.3348 11.717C93.5203 11.7224 93.6968 11.7987 93.828 11.9302C93.9592 12.0617 94.0353 12.2385 94.0407 12.4244V29.2714C95.2598 27.0851 97.4415 25.6062 99.9868 25.6062C104.179 25.6062 106.553 29.2714 106.553 33.1509Z" fill="white"/>
<path d="M132.027 34.3725C132.024 34.5742 131.941 34.7663 131.797 34.9068C131.652 35.0474 131.458 35.125 131.257 35.1227H117.076C117.44 38.6379 120.071 41.853 123.793 41.853C126.338 41.853 128.22 40.8884 129.632 38.8522C129.697 38.7452 129.788 38.6561 129.897 38.5925C130.005 38.529 130.127 38.4931 130.252 38.4878C130.345 38.4852 130.438 38.5017 130.525 38.5363C130.612 38.5709 130.691 38.6229 130.757 38.6891C130.823 38.7553 130.875 38.8343 130.91 38.9214C130.944 39.0084 130.96 39.1016 130.958 39.1952C130.958 39.3245 130.921 39.4511 130.851 39.5595C129.418 42.0459 126.573 43.2676 123.793 43.2676C119.023 43.2676 115.601 38.9808 115.601 34.4154C115.601 29.85 119.001 25.5632 123.793 25.5632C128.541 25.5632 132.006 29.8071 132.027 34.3725ZM130.487 33.7081C130.188 30.1929 127.493 26.9779 123.771 26.9779C120.049 26.9779 117.419 30.1929 117.055 33.7081H130.487Z" fill="white"/>
<path d="M149.459 26.5707C149.472 26.761 149.41 26.9489 149.286 27.0935C149.162 27.2381 148.986 27.3275 148.796 27.3423C144.625 27.9639 142.743 31.3719 142.743 35.3371V42.1317C142.742 42.3128 142.678 42.4878 142.56 42.6253C142.442 42.7628 142.28 42.8538 142.101 42.8819C142.001 42.8951 141.9 42.8867 141.804 42.857C141.707 42.8274 141.619 42.7773 141.543 42.7101C141.468 42.643 141.409 42.5604 141.368 42.4679C141.328 42.3755 141.308 42.2754 141.31 42.1745V26.6779C141.31 26.4968 141.375 26.3217 141.492 26.1842C141.61 26.0467 141.773 25.9557 141.951 25.9277C142.051 25.9144 142.153 25.9229 142.249 25.9525C142.345 25.9821 142.434 26.0322 142.509 26.0994C142.584 26.1666 142.644 26.2492 142.684 26.3416C142.725 26.4341 142.745 26.5341 142.743 26.635V29.7858C143.919 27.7924 146.251 25.9062 148.689 25.9062C149.052 25.9063 149.459 26.1635 149.459 26.5707Z" fill="white"/>
<path d="M172.773 34.3725C172.769 34.5742 172.687 34.7663 172.542 34.9068C172.398 35.0474 172.204 35.125 172.003 35.1227H157.822C158.186 38.6379 160.816 41.853 164.538 41.853C167.083 41.853 168.966 40.8884 170.377 38.8522C170.443 38.7452 170.534 38.6561 170.642 38.5925C170.75 38.529 170.872 38.4931 170.998 38.4878C171.091 38.4852 171.184 38.5017 171.271 38.5363C171.358 38.5709 171.437 38.6229 171.503 38.6891C171.569 38.7553 171.621 38.8343 171.655 38.9214C171.69 39.0084 171.706 39.1016 171.703 39.1952C171.704 39.3245 171.667 39.4511 171.596 39.5595C170.163 42.0459 167.319 43.2676 164.538 43.2676C159.768 43.2676 156.346 38.9808 156.346 34.4154C156.346 29.85 159.747 25.5632 164.538 25.5632C169.329 25.5632 172.751 29.8071 172.773 34.3725ZM171.254 33.7081C170.955 30.1929 168.26 26.9779 164.538 26.9779C160.816 26.9779 158.186 30.1929 157.822 33.7081H171.254Z" fill="white"/>
<path d="M195.702 26.7419V42.3029C195.696 42.4888 195.62 42.6656 195.489 42.7971C195.358 42.9286 195.181 43.0048 194.996 43.0102C194.903 43.0129 194.81 42.9964 194.723 42.9618C194.636 42.9272 194.557 42.8752 194.491 42.809C194.425 42.7428 194.373 42.6637 194.338 42.5767C194.304 42.4897 194.287 42.3965 194.29 42.3029V39.345C193.114 41.6813 191.039 43.3746 188.387 43.3746C184.173 43.3746 181.842 39.7094 181.842 35.8299V26.7205C181.843 26.5334 181.918 26.3545 182.05 26.2222C182.182 26.0899 182.361 26.0149 182.548 26.0132C182.733 26.0186 182.91 26.0948 183.041 26.2263C183.172 26.3578 183.248 26.5346 183.253 26.7205V35.8299C183.253 38.8949 184.986 41.9385 188.387 41.9385C193.157 41.9385 194.29 37.4589 194.29 32.5076V26.6991C194.292 26.5844 194.321 26.4718 194.375 26.3706C194.429 26.2695 194.506 26.1828 194.6 26.1177C194.694 26.0526 194.803 26.0111 194.916 25.9967C195.03 25.9822 195.145 25.9952 195.253 26.0346C195.387 26.0972 195.501 26.1971 195.58 26.3225C195.66 26.4478 195.702 26.5934 195.702 26.7419Z" fill="white"/>
<path d="M231.614 33.0864V42.1958C231.608 42.3816 231.532 42.5584 231.401 42.6899C231.27 42.8214 231.093 42.8977 230.908 42.9031C230.815 42.9057 230.722 42.8893 230.635 42.8547C230.548 42.8201 230.469 42.7681 230.403 42.7018C230.337 42.6356 230.285 42.5566 230.25 42.4696C230.216 42.3825 230.199 42.2894 230.202 42.1958V33.0864C230.202 30.0213 228.47 27.0206 225.069 27.0206C220.791 27.0206 219.165 31.6074 219.165 35.1655V42.1958C219.16 42.3816 219.084 42.5584 218.953 42.6899C218.822 42.8214 218.645 42.8977 218.46 42.9031C218.366 42.9057 218.273 42.8893 218.186 42.8547C218.1 42.8201 218.021 42.7681 217.955 42.7018C217.889 42.6356 217.837 42.5566 217.802 42.4696C217.768 42.3825 217.751 42.2894 217.754 42.1958V33.0864C217.754 30.0213 216.021 27.0206 212.62 27.0206C208.3 27.0206 206.525 30.4286 206.674 34.9725C206.674 35.0797 206.717 35.2726 206.674 35.3369V42.1743C206.674 42.3554 206.609 42.5305 206.492 42.668C206.374 42.8055 206.211 42.8964 206.033 42.9245C205.933 42.9378 205.831 42.9293 205.735 42.8997C205.639 42.8701 205.55 42.8199 205.475 42.7528C205.4 42.6856 205.34 42.603 205.3 42.5106C205.259 42.4181 205.24 42.3181 205.241 42.2172V26.6776C205.242 26.4965 205.306 26.3215 205.424 26.184C205.542 26.0465 205.704 25.9555 205.883 25.9275C205.983 25.9142 206.084 25.9226 206.181 25.9523C206.277 25.9819 206.365 26.032 206.441 26.0992C206.516 26.1663 206.576 26.249 206.616 26.3414C206.656 26.4338 206.676 26.5339 206.674 26.6348V29.2283C207.894 27.042 210.075 25.606 212.62 25.606C215.508 25.606 217.754 27.4493 218.674 30.1285C219.85 27.4707 222.139 25.606 225.069 25.606C229.24 25.606 231.614 29.2283 231.614 33.0864Z" fill="white"/>
<path opacity="0.6" d="M18.3665 22.4553L0.61377 30.5359L18.3665 41.0599L36.1407 30.5359L18.3665 22.4553Z" fill="black"/>
<path opacity="0.45" d="M0.61377 30.5358L18.3665 41.0599V1L0.61377 30.5358Z" fill="white"/>
<path opacity="0.8" d="M18.3667 1V41.0599L36.1409 30.5358L18.3667 1Z" fill="white"/>
<path opacity="0.45" d="M0.61377 33.9224L18.3665 59V44.4249L0.61377 33.9224Z" fill="white"/>
<path opacity="0.8" d="M18.3667 44.4249V59L36.1409 33.9224L18.3667 44.4249Z" fill="white"/>
</g>
<defs>
<clipPath id="clip0_152_2754">
<rect width="231" height="58" fill="white" transform="translate(0.61377 1)"/>
</clipPath>
</defs>
</svg>
