<svg width="118" height="38" viewBox="0 0 118 38" fill="none" xmlns="http://www.w3.org/2000/svg">
<path d="M0 19C0 12.3726 5.37258 7 12 7C18.6274 7 24 12.3726 24 19C24 25.6274 18.6274 31 12 31C5.37258 31 0 25.6274 0 19Z" fill="white"/>
<path d="M12.0189 11.8L11.9224 12.1281V21.6476L12.0189 21.7439L16.4377 19.132L12.0189 11.8Z" fill="#343434"/>
<path d="M12.0189 11.8L7.6001 19.132L12.0189 21.744V17.1235V11.8Z" fill="#8C8C8C"/>
<path d="M12.0187 22.5806L11.9644 22.6469V26.038L12.0187 26.1968L16.4402 19.97L12.0187 22.5806Z" fill="#3C3C3B"/>
<path d="M12.0189 26.1968V22.5806L7.6001 19.97L12.0189 26.1968Z" fill="#8C8C8C"/>
<path d="M12.019 21.7439L16.4378 19.132L12.019 17.1235V21.7439Z" fill="#141414"/>
<path d="M7.6001 19.132L12.0189 21.7439V17.1235L7.6001 19.132Z" fill="#393939"/>
<path d="M35.44 25V12.4H43.198V13.768H36.952V17.98H42.694V19.348H36.952V23.632H43.288V25H35.44ZM48.8766 25C48.3726 25 47.9826 24.862 47.7066 24.586C47.4426 24.31 47.3106 23.932 47.3106 23.452V17.44H44.6646V16.198H47.3106V13.066H48.7326V16.198H51.6126V17.44H48.7326V23.236C48.7326 23.596 48.9066 23.776 49.2546 23.776H51.2166V25H48.8766ZM53.9159 25V12.4H55.3379V17.602H55.5899C55.7099 17.338 55.8899 17.092 56.1299 16.864C56.3819 16.624 56.6999 16.426 57.0839 16.27C57.4799 16.114 57.9779 16.036 58.5779 16.036C59.2379 16.036 59.8259 16.18 60.3419 16.468C60.8699 16.744 61.2899 17.152 61.6019 17.692C61.9139 18.22 62.0699 18.88 62.0699 19.672V25H60.6479V19.78C60.6479 18.904 60.4259 18.268 59.9819 17.872C59.5499 17.476 58.9619 17.278 58.2179 17.278C57.3659 17.278 56.6699 17.554 56.1299 18.106C55.6019 18.658 55.3379 19.48 55.3379 20.572V25H53.9159ZM68.9869 25.252C68.0989 25.252 67.3189 25.066 66.6469 24.694C65.9749 24.31 65.4529 23.776 65.0809 23.092C64.7089 22.408 64.5229 21.616 64.5229 20.716V20.5C64.5229 19.588 64.7089 18.79 65.0809 18.106C65.4529 17.422 65.9689 16.894 66.6289 16.522C67.2889 16.138 68.0449 15.946 68.8969 15.946C69.7249 15.946 70.4569 16.126 71.0929 16.486C71.7289 16.834 72.2269 17.338 72.5869 17.998C72.9469 18.658 73.1269 19.432 73.1269 20.32V20.968H65.9449C65.9809 21.916 66.2869 22.66 66.8629 23.2C67.4389 23.728 68.1589 23.992 69.0229 23.992C69.7789 23.992 70.3609 23.818 70.7689 23.47C71.1769 23.122 71.4889 22.708 71.7049 22.228L72.9289 22.822C72.7489 23.194 72.4969 23.566 72.1729 23.938C71.8609 24.31 71.4469 24.622 70.9309 24.874C70.4269 25.126 69.7789 25.252 68.9869 25.252ZM65.9629 19.798H71.6869C71.6389 18.982 71.3569 18.346 70.8409 17.89C70.3369 17.434 69.6889 17.206 68.8969 17.206C68.0929 17.206 67.4329 17.434 66.9169 17.89C66.4009 18.346 66.0829 18.982 65.9629 19.798ZM75.6073 25V16.198H76.9933V17.278H77.2453C77.4013 16.894 77.6413 16.612 77.9653 16.432C78.2893 16.252 78.7153 16.162 79.2433 16.162H80.2873V17.458H79.1533C78.5173 17.458 78.0013 17.638 77.6053 17.998C77.2213 18.346 77.0293 18.892 77.0293 19.636V25H75.6073ZM86.108 25.252C85.22 25.252 84.44 25.066 83.768 24.694C83.096 24.31 82.574 23.776 82.202 23.092C81.83 22.408 81.644 21.616 81.644 20.716V20.5C81.644 19.588 81.83 18.79 82.202 18.106C82.574 17.422 83.09 16.894 83.75 16.522C84.41 16.138 85.166 15.946 86.018 15.946C86.846 15.946 87.578 16.126 88.214 16.486C88.85 16.834 89.348 17.338 89.708 17.998C90.068 18.658 90.248 19.432 90.248 20.32V20.968H83.066C83.102 21.916 83.408 22.66 83.984 23.2C84.56 23.728 85.28 23.992 86.144 23.992C86.9 23.992 87.482 23.818 87.89 23.47C88.298 23.122 88.61 22.708 88.826 22.228L90.05 22.822C89.87 23.194 89.618 23.566 89.294 23.938C88.982 24.31 88.568 24.622 88.052 24.874C87.548 25.126 86.9 25.252 86.108 25.252ZM83.084 19.798H88.808C88.76 18.982 88.478 18.346 87.962 17.89C87.458 17.434 86.81 17.206 86.018 17.206C85.214 17.206 84.554 17.434 84.038 17.89C83.522 18.346 83.204 18.982 83.084 19.798ZM96.0944 25.162C95.4584 25.162 94.8704 25.024 94.3304 24.748C93.8024 24.472 93.3824 24.064 93.0704 23.524C92.7704 22.972 92.6204 22.306 92.6204 21.526V16.198H94.0424V21.418C94.0424 22.294 94.2584 22.93 94.6904 23.326C95.1344 23.722 95.7284 23.92 96.4724 23.92C97.3124 23.92 98.0024 23.644 98.5424 23.092C99.0824 22.54 99.3524 21.718 99.3524 20.626V16.198H100.774V25H99.3884V23.506H99.1364C98.9444 23.926 98.6144 24.31 98.1464 24.658C97.6784 24.994 96.9944 25.162 96.0944 25.162ZM103.75 25V16.198H105.136V17.296H105.388C105.556 16.984 105.832 16.696 106.216 16.432C106.6 16.168 107.14 16.036 107.836 16.036C108.52 16.036 109.072 16.186 109.492 16.486C109.924 16.786 110.236 17.152 110.428 17.584H110.68C110.884 17.152 111.19 16.786 111.598 16.486C112.018 16.186 112.6 16.036 113.344 16.036C113.932 16.036 114.448 16.156 114.892 16.396C115.336 16.636 115.684 16.984 115.936 17.44C116.2 17.884 116.332 18.418 116.332 19.042V25H114.91V19.168C114.91 18.58 114.736 18.118 114.388 17.782C114.052 17.434 113.578 17.26 112.966 17.26C112.318 17.26 111.784 17.47 111.364 17.89C110.956 18.31 110.752 18.916 110.752 19.708V25H109.33V19.168C109.33 18.58 109.156 18.118 108.808 17.782C108.472 17.434 107.998 17.26 107.386 17.26C106.738 17.26 106.204 17.47 105.784 17.89C105.376 18.31 105.172 18.916 105.172 19.708V25H103.75Z" fill="white"/>
</svg>
