<svg width="56" height="56" viewBox="0 0 56 56" fill="none" xmlns="http://www.w3.org/2000/svg">
<rect x="4" y="4" width="48" height="48" rx="24" fill="#EFE3FE"/>
<path opacity="0.4" d="M36.9001 24.4C36.4126 24.4 36.0251 24.7875 36.0251 25.275V27.25C36.0251 31.675 32.4251 35.275 28.0001 35.275C23.5751 35.275 19.9751 31.675 19.9751 27.25V25.2625C19.9751 24.775 19.5876 24.3875 19.1001 24.3875C18.6126 24.3875 18.2251 24.775 18.2251 25.2625V27.2375C18.2251 32.325 22.1376 36.5125 27.1251 36.9625V39.625C27.1251 40.1125 27.5126 40.5 28.0001 40.5C28.4876 40.5 28.8751 40.1125 28.8751 39.625V36.9625C33.8501 36.525 37.7751 32.325 37.7751 27.2375V25.2625C37.7626 24.7875 37.3751 24.4 36.9001 24.4Z" fill="url(#paint0_linear_134_38946)"/>
<path d="M28.0001 15.5C24.9501 15.5 22.4751 17.975 22.4751 21.025V27.425C22.4751 30.475 24.9501 32.95 28.0001 32.95C31.0501 32.95 33.5251 30.475 33.5251 27.425V21.025C33.5251 17.975 31.0501 15.5 28.0001 15.5ZM29.6376 24.1875C29.5501 24.5125 29.2626 24.725 28.9376 24.725C28.8751 24.725 28.8126 24.7125 28.7501 24.7C28.2626 24.5625 27.7501 24.5625 27.2626 24.7C26.8626 24.8125 26.4751 24.575 26.3751 24.1875C26.2626 23.8 26.5001 23.4 26.8876 23.3C27.6251 23.1 28.4001 23.1 29.1376 23.3C29.5126 23.4 29.7376 23.8 29.6376 24.1875ZM30.3001 21.7625C30.1876 22.0625 29.9126 22.2375 29.6126 22.2375C29.5251 22.2375 29.4501 22.225 29.3626 22.2C28.4876 21.875 27.5126 21.875 26.6376 22.2C26.2626 22.3375 25.8376 22.1375 25.7001 21.7625C25.5626 21.3875 25.7626 20.9625 26.1376 20.8375C27.3376 20.4 28.6626 20.4 29.8626 20.8375C30.2376 20.975 30.4376 21.3875 30.3001 21.7625Z" fill="url(#paint1_linear_134_38946)"/>
<rect x="4" y="4" width="48" height="48" rx="24" stroke="url(#paint2_linear_134_38946)" stroke-opacity="0.5" stroke-width="8"/>
<defs>
<linearGradient id="paint0_linear_134_38946" x1="18.2251" y1="32.4439" x2="37.7751" y2="32.4439" gradientUnits="userSpaceOnUse">
<stop stop-color="#430062"/>
<stop offset="0.14" stop-color="#420465"/>
<stop offset="0.28" stop-color="#40106F"/>
<stop offset="0.43" stop-color="#3D2580"/>
<stop offset="0.58" stop-color="#394298"/>
<stop offset="0.73" stop-color="#3468B7"/>
<stop offset="0.88" stop-color="#2E95DC"/>
<stop offset="1" stop-color="#29C0FF"/>
</linearGradient>
<linearGradient id="paint1_linear_134_38946" x1="23.4383" y1="24.2241" x2="33.7079" y2="24.2241" gradientUnits="userSpaceOnUse">
<stop stop-color="#CF7BBE"/>
<stop offset="0.557045" stop-color="#6244EB"/>
<stop offset="0.995282" stop-color="#60D0DF"/>
</linearGradient>
<linearGradient id="paint2_linear_134_38946" x1="8.18402" y1="27.9976" x2="52.7939" y2="27.9976" gradientUnits="userSpaceOnUse">
<stop stop-color="#CF7BBE"/>
<stop offset="0.557045" stop-color="#6244EB"/>
<stop offset="0.995282" stop-color="#60D0DF"/>
</linearGradient>
</defs>
</svg>
