<svg width="154" height="60" viewBox="0 0 154 60" fill="none" xmlns="http://www.w3.org/2000/svg">
<g clip-path="url(#clip0_156_2844)">
<path d="M77.209 18.352V41.693C77.209 41.8726 77.0735 42.0521 76.8476 42.0521H74.3855C73.2674 42.0521 72.1945 41.4686 71.562 40.5372L60.4713 23.514L60.8327 32.0088V41.7491C60.8327 41.9287 60.6972 42.1082 60.4713 42.1082H57.2525C57.0718 42.1082 56.8911 41.9736 56.8911 41.7491V18.3632C56.8911 18.1837 57.0266 18.0041 57.2525 18.0041H59.6694C60.7875 18.0041 61.8605 18.5764 62.4929 19.5191L73.5837 36.4974L73.2223 28.0026V18.352C73.2223 18.1725 73.3578 17.9929 73.5837 17.9929H76.8025C77.0735 17.9929 77.209 18.1276 77.209 18.352Z" fill="white"/>
<path d="M110.221 42.0072H106.822C106.596 42.0072 106.415 41.7828 106.506 41.5584L115.541 18.3071C115.631 18.1276 115.812 17.9929 115.993 17.9929H120.284C120.51 17.9929 120.691 18.1276 120.736 18.3071L129.817 41.5584C129.907 41.7828 129.726 42.0072 129.5 42.0072H126.101C125.965 42.0072 125.83 41.9175 125.785 41.7828L118.489 22.6723C118.398 22.403 117.958 22.403 117.867 22.6723L110.572 41.7828C110.481 41.9175 110.346 42.0072 110.21 42.0072H110.221Z" fill="white"/>
<path d="M153.523 41.4686L146.724 32.8504C150.575 32.1434 152.811 29.5624 152.811 25.6012C152.811 21.0677 149.863 18.0042 144.578 18.0042H135.091C134.82 18.0042 134.594 18.2286 134.594 18.4979C134.594 20.2709 136.028 21.6961 137.813 21.6961H144.205C147.379 21.6961 148.903 23.3008 148.903 25.6573C148.903 28.0139 147.424 29.6186 144.205 29.6186H135.17C134.899 29.6186 134.673 29.843 134.673 30.1123V41.6706C134.673 41.8502 134.808 42.0297 135.034 42.0297H138.253C138.434 42.0297 138.614 41.895 138.614 41.6706V33.0973H142.33L148.237 40.7392C148.858 41.5808 149.852 42.0297 150.925 42.0297H153.387C153.568 42.0297 153.703 41.7155 153.523 41.4911V41.4686Z" fill="white"/>
<path d="M100.023 18.0042H85.0357C84.7647 18.0042 84.584 18.1837 84.584 18.453C84.584 20.226 86.0635 21.6961 87.848 21.6961H100.012C100.192 21.6961 100.373 21.5614 100.373 21.337V18.3184C100.328 18.1388 100.192 18.0042 100.012 18.0042H100.023ZM100.023 38.3153H88.8418C88.6611 38.3153 88.4804 38.1807 88.4804 37.9562V31.9527C88.4804 31.7731 88.6159 31.5936 88.8418 31.5936H99.1758C99.3566 31.5936 99.5373 31.4589 99.5373 31.2345V28.2158C99.5373 28.0363 99.4017 27.8568 99.1758 27.8568H85.0809C84.8099 27.8568 84.584 28.0812 84.584 28.3505V41.4574C84.584 41.7267 84.8099 41.9511 85.0809 41.9511H100.023C100.204 41.9511 100.384 41.8165 100.384 41.5921V38.5734C100.339 38.4388 100.204 38.3041 100.023 38.3041V38.3153Z" fill="white"/>
<path d="M32.9141 12.0453L24.5001 24.4452C23.9241 25.2868 25.0422 26.308 25.844 25.601L34.1226 18.4416C34.3484 18.2621 34.6647 18.3967 34.6647 18.7109V41.0644C34.6647 41.3786 34.2581 41.5133 34.0774 41.2889L9.02726 11.5066C8.22538 10.5303 7.0621 9.9917 5.76329 9.9917H4.87106C2.54449 9.9917 0.624512 11.8994 0.624512 14.2559V45.7214C0.624512 48.078 2.54449 49.9857 4.91624 49.9857C6.39575 49.9857 7.78492 49.2338 8.58679 47.9433L17.0008 35.5434C17.5768 34.7018 16.4587 33.6806 15.6568 34.3876L7.37833 41.5021C7.15245 41.6816 6.83622 41.547 6.83622 41.2328V18.9241C6.83622 18.6099 7.2428 18.4753 7.41221 18.6997L32.4623 48.482C33.2642 49.4582 34.4727 49.9969 35.7263 49.9969H36.6185C38.9903 49.9969 40.9103 48.0892 40.9103 45.7326V14.2671C40.8651 11.9106 38.9451 10.0029 36.5734 10.0029C35.0938 10.0029 33.7047 10.7548 32.9028 12.0453H32.9141Z" fill="white"/>
</g>
<defs>
<clipPath id="clip0_156_2844">
<rect width="153" height="40" fill="white" transform="translate(0.613281 10)"/>
</clipPath>
</defs>
</svg>
