<svg width="189" height="60" viewBox="0 0 189 60" fill="none" xmlns="http://www.w3.org/2000/svg">
<g clip-path="url(#clip0_258_5439)">
<path d="M73.9408 22.3191C75.1003 23.0295 76.0814 24.0062 76.7058 25.3382C77.4193 26.6701 77.7761 28.2684 77.7761 30.0443C77.7761 31.8202 77.4193 33.3297 76.6166 34.6616C75.9031 35.9935 74.8327 36.9703 73.4948 37.5919C72.1569 38.3022 70.5515 38.6574 68.8568 38.6574C67.8757 38.6574 66.9837 38.4798 66.0918 38.1246C65.1999 37.8582 64.3972 37.3255 63.7728 36.7039V45.9386H58.5996V21.6088H63.0593L63.5052 23.5623C65.4675 21.9639 67.6081 21.1648 69.8379 21.1648C71.3542 21.1648 72.7813 21.52 73.9408 22.3191ZM71.0866 33.3297C71.9786 32.5305 72.4245 31.465 72.4245 30.1331C72.4245 28.8012 71.9786 27.7356 71.1758 26.8477C70.3731 25.9597 69.3028 25.6045 68.1433 25.6045C67.1621 25.6045 66.2702 25.7821 65.5567 26.2261C64.8431 26.5813 64.308 27.2029 63.862 28.002V31.9978C64.1296 32.7969 64.6647 33.4185 65.2891 33.8625C66.0026 34.3064 66.8054 34.5728 67.7865 34.5728C69.1244 34.5728 70.1947 34.1289 71.0866 33.3297Z" fill="#8247E5"/>
<path d="M80.8084 25.5159C81.6112 24.2728 82.6815 23.2072 84.1086 22.4969C85.5357 21.7865 87.1411 21.3425 88.925 21.3425C90.7089 21.3425 92.3143 21.6977 93.7414 22.4969C95.0793 23.2072 96.1496 24.2728 96.9524 25.6047C97.7551 26.9366 98.1119 28.3573 98.1119 30.0444C98.1119 31.7315 97.7551 33.1523 96.9524 34.4842C96.1496 35.8161 95.1685 36.8816 93.7414 37.592C92.4035 38.3024 90.7089 38.7463 88.925 38.7463C87.1411 38.7463 85.5357 38.3912 84.1086 37.6808C82.6815 36.9704 81.6112 35.9937 80.8084 34.6618C80.0949 33.3298 79.6489 31.8203 79.6489 30.0444C79.6489 28.2685 80.0949 26.8478 80.8084 25.5159ZM86.0708 33.241C86.7844 34.129 87.7655 34.4842 88.925 34.4842C90.0845 34.4842 91.0656 34.0402 91.7792 33.241C92.4927 32.4419 92.8495 31.2876 92.8495 30.0444C92.8495 28.7125 92.4927 27.647 91.7792 26.8478C90.9764 25.9599 90.0845 25.5159 88.8358 25.5159C87.6763 25.5159 86.7844 25.9599 85.9816 26.759C85.2681 27.647 84.9113 28.7125 84.9113 30.0444C84.9113 31.2876 85.2681 32.3531 86.0708 33.241Z" fill="#8247E5"/>
<path d="M106.496 9V38.2135H101.323V9H106.496Z" fill="#8247E5"/>
<path d="M127.724 22.1416L117.199 46.1162H112.204L116.129 37.5031L108.637 22.1416H114.523L118.805 31.7315L123.086 22.1416H127.724Z" fill="#8247E5"/>
<path d="M147.525 22.1417V38.3024C147.525 39.8119 147.079 41.2326 146.187 42.4757C145.295 43.7188 144.135 44.6956 142.619 45.406C141.103 46.1163 139.497 46.4715 137.714 46.4715C136.376 46.4715 135.216 46.2939 134.235 46.0275C133.254 45.6723 132.451 45.3172 131.827 44.962C131.113 44.518 130.4 43.9852 129.597 43.2749L132.63 39.7231C133.343 40.4334 134.146 40.9662 134.859 41.3214C135.573 41.6766 136.554 41.943 137.624 41.943C138.962 41.943 140.033 41.5878 140.925 40.9662C141.816 40.3446 142.262 39.3679 142.262 38.2136V35.9049C141.727 36.7041 141.014 37.4144 139.943 37.9472C138.873 38.4799 137.624 38.7463 136.197 38.7463C134.77 38.7463 133.343 38.3912 132.094 37.592C130.846 36.8816 129.865 35.8161 129.062 34.4842C128.348 33.1523 127.902 31.7315 127.902 30.1332C127.902 28.5349 128.259 27.0254 129.062 25.6935C129.865 24.3616 130.846 23.296 132.184 22.4969C133.432 21.6977 134.77 21.3425 136.197 21.3425C137.535 21.3425 138.695 21.5201 139.765 21.8753C140.835 22.2305 141.638 22.7632 142.173 23.3848L142.708 22.1417H147.525ZM142.262 32.0867V28.0909C141.906 27.2918 141.37 26.6702 140.568 26.2263C139.765 25.7823 138.873 25.5159 137.803 25.5159C136.554 25.5159 135.484 25.9599 134.592 26.759C133.7 27.5582 133.254 28.6237 133.254 29.9556C133.254 31.1988 133.7 32.3531 134.592 33.241C135.484 34.129 136.554 34.573 137.803 34.573C139.854 34.4842 141.37 33.685 142.262 32.0867Z" fill="#8247E5"/>
<path d="M151.806 25.5158C152.609 24.1839 153.68 23.2072 155.107 22.408C156.534 21.6976 158.139 21.2537 159.923 21.2537C161.707 21.2537 163.312 21.6088 164.739 22.408C166.077 23.1184 167.148 24.1839 167.95 25.5158C168.664 26.8477 169.11 28.2685 169.11 29.9556C169.11 31.6427 168.753 33.0634 167.95 34.3953C167.237 35.7272 166.167 36.7928 164.739 37.5031C163.402 38.2135 161.707 38.6575 159.923 38.6575C158.139 38.6575 156.534 38.3023 155.107 37.5919C153.68 36.8816 152.609 35.9048 151.806 34.5729C151.004 33.241 150.647 31.7315 150.647 29.8668C150.647 28.3573 151.004 26.8477 151.806 25.5158ZM156.98 33.241C157.693 34.1289 158.674 34.4841 159.834 34.4841C160.993 34.4841 161.974 34.0401 162.688 33.241C163.402 32.4418 163.758 31.2875 163.758 30.0444C163.758 28.7124 163.402 27.6469 162.688 26.8477C161.974 26.0486 160.993 25.6046 159.834 25.6046C158.674 25.6046 157.782 26.0486 156.98 26.8477C156.177 27.6469 155.82 28.8012 155.82 30.0444C155.82 31.2875 156.266 32.353 156.98 33.241Z" fill="#8247E5"/>
<path d="M187.394 22.5857C188.465 23.4736 188.911 24.6279 189 26.0487V38.2136H183.737V28.0021C183.648 26.4038 182.845 25.6047 181.329 25.6047C180.17 25.6047 179.189 26.1375 178.475 27.2918C177.761 28.4461 177.405 29.8668 177.405 31.5539V38.2136H172.231V22.1417H176.959L177.315 24.7167C177.94 23.6512 178.743 22.852 179.813 22.2305C180.883 21.6089 182.132 21.3425 183.559 21.3425C185.075 21.3425 186.413 21.7865 187.394 22.6745V22.5857Z" fill="#8247E5"/>
<path d="M36.4799 21.8752C35.588 21.3425 34.4285 21.3425 33.4474 21.8752L26.4903 25.9598L21.7631 28.6236L14.806 32.7082C13.9141 33.241 12.7546 33.241 11.7735 32.7082L6.24351 29.5116C5.35158 28.9788 4.72723 28.0021 4.72723 26.9365V20.6321C4.72723 19.5666 5.26239 18.5898 6.24351 18.057L11.6843 14.9492C12.5762 14.4165 13.7357 14.4165 14.7168 14.9492L20.1576 18.057C21.0495 18.5898 21.6739 19.5666 21.6739 20.6321V24.7167L26.4011 21.964V17.8795C26.4011 16.8139 25.866 15.8372 24.8848 15.3044L14.806 9.35514C13.9141 8.82237 12.7546 8.82237 11.7735 9.35514L1.51628 15.2156C0.535158 15.7484 0 16.7251 0 17.7907V29.6004C0 30.6659 0.535158 31.6427 1.51628 32.1754L11.7735 38.0359C12.6654 38.5687 13.8249 38.5687 14.806 38.0359L21.7631 34.0401L26.4903 31.2875L33.4474 27.2917C34.3393 26.7589 35.4988 26.7589 36.4799 27.2917L41.9207 30.3995C42.8126 30.9323 43.437 31.9091 43.437 32.9746V39.279C43.437 40.3446 42.9018 41.3213 41.9207 41.8541L36.4799 45.0507C35.588 45.5835 34.4285 45.5835 33.4474 45.0507L28.0066 41.9429C27.1147 41.4101 26.4903 40.4334 26.4903 39.3678V35.2833L21.7631 38.0359V42.1205C21.7631 43.186 22.2983 44.1628 23.2794 44.6955L33.5366 50.556C34.4285 51.0888 35.588 51.0888 36.5691 50.556L46.8263 44.6955C47.7183 44.1628 48.3426 43.186 48.3426 42.1205V30.3107C48.3426 29.2452 47.8074 28.2685 46.8263 27.7357L36.4799 21.7864V21.8752Z" fill="#8247E5"/>
</g>
<defs>
<clipPath id="clip0_258_5439">
<rect width="189" height="42" fill="white" transform="translate(0 9)"/>
</clipPath>
</defs>
</svg>
