<svg width="58" height="60" viewBox="0 0 58 60" fill="none" xmlns="http://www.w3.org/2000/svg">
<g clip-path="url(#clip0_258_5439)">
<path d="M43.6602 20.224C42.6211 19.627 41.2852 19.627 40.0977 20.224L31.7852 25.1493L26.1445 28.2837L17.9805 33.209C16.9414 33.8061 15.6055 33.8061 14.418 33.209L8.03516 29.3284C6.99609 28.7314 6.25391 27.5374 6.25391 26.1941V18.7314C6.25391 17.5374 6.84766 16.3434 8.03516 15.5971L14.418 11.8658C15.457 11.2687 16.793 11.2687 17.9805 11.8658L24.3633 15.7464C25.4023 16.3434 26.1445 17.5374 26.1445 18.8807V23.8061L31.7852 20.5225V15.4478C31.7852 14.2538 31.1914 13.0598 30.0039 12.3135L18.1289 5.29859C17.0898 4.70158 15.7539 4.70158 14.5664 5.29859L2.39453 12.4628C1.20703 13.0598 0.613281 14.2538 0.613281 15.4478V29.4777C0.613281 30.6717 1.20703 31.8658 2.39453 32.612L14.418 39.627C15.457 40.224 16.793 40.224 17.9805 39.627L26.1445 34.8508L31.7852 31.5672L39.9492 26.7911C40.9883 26.1941 42.3242 26.1941 43.5117 26.7911L49.8945 30.5225C50.9336 31.1195 51.6758 32.3135 51.6758 33.6568V41.1195C51.6758 42.3135 51.082 43.5075 49.8945 44.2538L43.6602 47.9852C42.6211 48.5822 41.2852 48.5822 40.0977 47.9852L33.7148 44.2538C32.6758 43.6568 31.9336 42.4628 31.9336 41.1195V36.3434L26.293 39.627V44.5523C26.293 45.7464 26.8867 46.9404 28.0742 47.6867L40.0977 54.7016C41.1367 55.2986 42.4727 55.2986 43.6602 54.7016L55.6836 47.6867C56.7226 47.0896 57.4648 45.8956 57.4648 44.5523V30.3732C57.4648 29.1792 56.8711 27.9852 55.6836 27.2389L43.6602 20.224Z" fill="#8247E5"/>
</g>
<defs>
<clipPath id="clip0_258_5439">
<rect width="57" height="50" fill="white" transform="translate(0.613281 5)"/>
</clipPath>
</defs>
</svg>
