<svg width="188" height="60" viewBox="0 0 188 60" fill="none" xmlns="http://www.w3.org/2000/svg">
<g clip-path="url(#clip0_316_5371)">
<path d="M55.0837 27.7138H41.3597V23.1391H58.6557V18.5645H41.3284C40.1377 18.5645 38.9784 19.0345 38.1324 19.8805C37.2864 20.7265 36.8164 21.8858 36.8164 23.0765V27.7138C36.8164 28.9045 37.2864 30.0638 38.1324 30.9098C38.9784 31.7558 40.1377 32.2258 41.3284 32.2258H55.0524V36.8005H37.0984V41.3751H55.0837C56.2744 41.3751 57.4337 40.9051 58.2797 40.0591C59.1257 39.2131 59.5957 38.0538 59.5957 36.8631V32.2258C59.5957 31.0351 59.1257 29.8758 58.2797 29.0298C57.4651 28.1838 56.3057 27.7138 55.0837 27.7138ZM81.7171 18.5645H67.9304C67.3351 18.5645 66.7397 18.6898 66.2071 18.9091C65.6431 19.1285 65.1417 19.4731 64.7344 19.8805C64.3271 20.2878 63.9824 20.7891 63.7631 21.3531C63.5437 21.9171 63.4184 22.4811 63.4184 23.0765V36.8945C63.4184 37.4898 63.5437 38.0851 63.7631 38.6178C63.9824 39.1818 64.3271 39.6831 64.7344 40.0905C65.1417 40.4978 65.6431 40.8425 66.2071 41.0618C66.7711 41.2811 67.3351 41.4065 67.9304 41.4065H81.7171C82.9077 41.4065 84.0671 40.9365 84.9131 40.0905C85.7591 39.2445 86.2291 38.0851 86.2291 36.8945V23.1078C86.2291 21.9171 85.7591 20.7578 84.9131 19.9118C84.0671 19.0658 82.9077 18.5645 81.7171 18.5645ZM81.6857 36.8631H67.9931V23.1705H81.6857V36.8631ZM129.97 18.5645H116.528C115.338 18.5645 114.178 19.0345 113.332 19.8805C112.486 20.7265 112.016 21.8858 112.016 23.0765V41.3751H116.56V33.8551H129.939V41.3751H134.514V23.1078C134.514 22.5125 134.388 21.9171 134.169 21.3845C133.95 20.8205 133.605 20.3191 133.198 19.9118C132.79 19.5044 132.289 19.1598 131.725 18.9405C131.161 18.6898 130.566 18.5645 129.97 18.5645ZM129.939 29.3431H116.56V23.1391H129.939V29.3431ZM183.456 18.5645H170.014C169.419 18.5645 168.824 18.6898 168.26 18.9091C167.696 19.1285 167.194 19.4731 166.787 19.8805C166.38 20.2878 166.035 20.7891 165.816 21.3531C165.596 21.9171 165.471 22.4811 165.471 23.0765V41.3751H170.046V33.8551H183.425V41.3751H188V23.1078C188 21.9171 187.53 20.7578 186.684 19.9118C185.806 19.0658 184.678 18.5645 183.456 18.5645ZM183.425 29.3431H170.046V23.1391H183.425V29.3431ZM156.854 36.8631H155.037L148.488 20.4758C148.269 19.9118 147.862 19.4418 147.392 19.0971C146.89 18.7525 146.295 18.5645 145.7 18.5645H141.626C140.812 18.5645 140.06 18.8778 139.496 19.4418C138.932 20.0058 138.618 20.7891 138.618 21.5725V41.4065H143.193V23.1391H145.01L151.559 39.5265C151.778 40.0905 152.154 40.5605 152.656 40.9051C153.157 41.2498 153.752 41.4378 154.348 41.4378H158.421C159.236 41.4378 159.988 41.1245 160.552 40.5605C161.116 39.9965 161.429 39.2131 161.429 38.4298V18.5958H156.854V36.8631ZM94.8457 18.5645H90.2711V36.8945C90.2711 38.0851 90.7411 39.2445 91.5871 40.0905C92.4331 40.9365 93.5924 41.4065 94.7831 41.4065H108.507V36.8318H94.8144V18.5645H94.8457Z" fill="white"/>
<path d="M4.35533 35.9857C4.44933 35.8917 4.54333 35.829 4.63733 35.7664C4.73133 35.7037 4.85667 35.7037 4.982 35.7037H24.91C25.004 35.7037 25.0667 35.735 25.1607 35.7664C25.2233 35.7977 25.286 35.8917 25.3173 35.9544C25.3487 36.017 25.3487 36.111 25.3487 36.205C25.3487 36.299 25.286 36.3617 25.2547 36.4244L21.0247 41.1244C20.9307 41.2184 20.8367 41.281 20.7427 41.3437C20.6487 41.4064 20.5233 41.4064 20.398 41.4064H0.438667C0.344667 41.4064 0.282 41.375 0.188 41.3437C0.125333 41.3124 0.0626668 41.2184 0.0313335 41.1557C1.1906e-07 41.093 0 40.999 0 40.905C0 40.811 0.0626664 40.7484 0.0939998 40.6857L4.35533 35.9857ZM25.2547 32.1004C25.3173 32.163 25.3487 32.2257 25.3487 32.3197C25.3487 32.4137 25.3487 32.4764 25.3173 32.5704C25.286 32.633 25.2233 32.727 25.1607 32.7584C25.098 32.7897 25.004 32.821 24.91 32.821L5.01333 32.8524C4.888 32.8524 4.76267 32.821 4.66867 32.7897C4.57467 32.7584 4.44933 32.6644 4.38667 32.5704L0.125333 27.9017C0.0626665 27.839 0.0313335 27.7764 0.0313335 27.6824C0.0313335 27.5884 0.0313336 27.5257 0.0626669 27.4317C0.0940002 27.369 0.156667 27.275 0.219334 27.2437C0.282 27.2124 0.376 27.181 0.47 27.181L20.4293 27.1497C20.5547 27.1497 20.68 27.181 20.774 27.2124C20.868 27.275 20.9933 27.3377 21.056 27.4317L25.2547 32.1004ZM4.35533 18.8777C4.44933 18.7837 4.54333 18.721 4.63733 18.6584C4.73133 18.5957 4.85667 18.5957 4.982 18.5957L24.9413 18.627C25.0353 18.627 25.098 18.6584 25.192 18.6897C25.2547 18.721 25.3173 18.815 25.3487 18.8777C25.38 18.9404 25.38 19.0344 25.38 19.1284C25.38 19.2224 25.3173 19.285 25.286 19.3477L21.056 24.0164C20.962 24.1104 20.868 24.173 20.774 24.2357C20.68 24.2984 20.5547 24.2984 20.4293 24.2984H0.438667C0.344667 24.2984 0.282 24.267 0.188 24.2357C0.125333 24.2044 0.0626668 24.1104 0.0313335 24.0477C1.1906e-07 23.985 0 23.891 0 23.797C0 23.703 0.0626664 23.6404 0.0939998 23.5777L4.35533 18.8777Z" fill="url(#paint0_linear_316_5371)"/>
</g>
<defs>
<linearGradient id="paint0_linear_316_5371" x1="0.765944" y1="41.9271" x2="24.6102" y2="18.0829" gradientUnits="userSpaceOnUse">
<stop stop-color="#9945FF"/>
<stop offset="0.14" stop-color="#8A53F4"/>
<stop offset="0.42" stop-color="#6377D6"/>
<stop offset="0.79" stop-color="#24B0A7"/>
<stop offset="0.99" stop-color="#00D18C"/>
<stop offset="1" stop-color="#00D18C"/>
</linearGradient>
<clipPath id="clip0_316_5371">
<rect width="188" height="22.871" fill="white" transform="translate(0 18.5645)"/>
</clipPath>
</defs>
</svg>
