<svg width="51" height="60" viewBox="0 0 51 60" fill="none" xmlns="http://www.w3.org/2000/svg">
<g clip-path="url(#clip0_152_2840)">
<path d="M25.3867 55C39.1938 55 50.3867 43.8071 50.3867 30C50.3867 16.1929 39.1938 5 25.3867 5C11.5796 5 0.386719 16.1929 0.386719 30C0.386719 43.8071 11.5796 55 25.3867 55Z" fill="#F89022"/>
<path fill-rule="evenodd" clip-rule="evenodd" d="M44.1367 34.6281H40.443L37.8227 32.3844L35.2117 34.6187H32.0898L30.5977 32.8062H25.4539L26.7555 31.1984H29.2852L27.3586 28.8422L20.632 37.0312H17.5117L19.4586 34.6531H16.207L14.4492 29.725L12.7055 34.6156H9.40703L6.63672 26.9391H9.16797L11.0305 32.1672L12.8867 26.9625H16.0117L17.8633 32.1562L19.7133 26.9609H22.2523L19.4586 34.6531L20.0805 33.8938L25.7867 26.9484H28.9273L33.6758 32.7422L35.9602 30.7781L28.7305 24.5312H32.4414L44.1367 34.6281ZM40.4727 29.9844L38.7305 28.4906L40.4695 27.0094L43.9852 27.0125L40.4727 29.9844Z" fill="white"/>
</g>
<defs>
<clipPath id="clip0_152_2840">
<rect width="50" height="50" fill="white" transform="translate(0.386719 5)"/>
</clipPath>
</defs>
</svg>
