<svg width="51" height="60" viewBox="0 0 51 60" fill="none" xmlns="http://www.w3.org/2000/svg">
<g clip-path="url(#clip0_156_2845)">
<path d="M25.6133 55C39.4204 55 50.6133 43.8071 50.6133 30C50.6133 16.1929 39.4204 5 25.6133 5C11.8062 5 0.613281 16.1929 0.613281 30C0.613281 43.8071 11.8062 55 25.6133 55Z" fill="#5546FF"/>
<path d="M35.8134 43.1727L30.4317 34.7247H38.1601V31.5332H12.8159V34.7247H20.5443L15.1626 43.1727H19.1676L25.488 33.2541L31.8084 43.1727H35.8134ZM38.1601 28.4356V25.2441H30.5881L35.9073 16.8899H31.871L25.488 26.965L19.105 16.8899H15.0687L20.3879 25.2441H12.8159V28.4669L38.1601 28.4356Z" fill="white"/>
</g>
<defs>
<clipPath id="clip0_156_2845">
<rect width="50" height="50" fill="white" transform="translate(0.613281 5)"/>
</clipPath>
</defs>
</svg>
