<svg width="235" height="60" viewBox="0 0 235 60" fill="none" xmlns="http://www.w3.org/2000/svg">
<g clip-path="url(#clip0_258_5444)">
<path d="M73.2147 12.4595C70.4777 12.4595 67.84 12.8034 66.7657 13.0941C65.2023 13.5337 64.8123 14.218 64.518 15.6361L58.3136 44.2648C58.2144 44.8497 58.1187 45.339 58.1187 45.8283C58.1187 47.2464 59.0475 48.1717 60.5614 48.1717C62.2242 48.1717 62.9084 47.0975 63.2488 45.4347L65.0073 37.2769C66.2269 37.4222 67.84 37.5711 70.1374 37.5711C80.2522 37.5711 86.5523 32.1007 86.5523 23.8436C86.5523 16.6111 81.5179 12.4595 73.2147 12.4595ZM69.8927 32.8807C68.3292 32.8807 67.1061 32.831 65.9858 32.6857L69.2581 17.4903C70.2827 17.345 71.8001 17.1464 73.3636 17.1464C78.7384 17.1464 81.4754 19.6884 81.4754 23.8897C81.4718 29.2644 77.5613 32.8807 69.8927 32.8807Z" fill="white"/>
<path d="M232.383 38.7409C231.553 38.7409 231.015 39.2302 229.99 40.3541C228.182 42.2118 227.058 43.2364 225.643 43.2364C224.374 43.2364 223.69 42.2118 223.69 40.5491C223.69 39.6202 223.885 38.4963 224.129 37.2767L225.938 28.775H231.362C233.071 28.775 234.099 27.7965 234.099 26.038C234.099 25.0595 233.464 24.3291 232 24.3291H226.913L227.792 20.3725C227.891 19.7875 227.987 19.2486 227.987 18.7594C227.987 17.3909 227.058 16.4124 225.544 16.4124C223.931 16.4124 223.201 17.4866 222.857 19.1494L221.733 24.3291H219.435C217.677 24.3291 216.652 25.3076 216.652 27.0661C216.652 28.0446 217.337 28.775 218.801 28.775H220.804L218.996 37.1774C218.801 38.1063 218.556 39.6202 218.556 41.1837C218.556 45.1403 220.609 48.0226 225.005 48.0226C227.547 48.0226 229.791 46.7534 231.504 45.236C233.167 43.7718 234.386 41.9637 234.386 40.7901C234.386 39.6698 233.507 38.7409 232.383 38.7409Z" fill="white"/>
<path d="M120.017 15.3419C120.017 13.9238 119.038 12.9949 117.524 12.9949C115.911 12.9949 115.181 14.0691 114.837 15.7319L108.732 44.1159C108.587 44.7009 108.487 45.1902 108.487 45.6794C108.487 47.0975 109.466 48.0229 110.93 48.0229C112.593 48.0229 113.323 46.9486 113.667 45.2859L119.772 16.9054C119.871 16.3169 120.017 15.8311 120.017 15.3419Z" fill="white"/>
<path d="M207.222 23.8399C199.404 23.8399 194.079 31.6077 194.079 38.9856C194.079 39.1238 194.083 39.2621 194.086 39.3968C192.86 41.2581 191.293 43.1868 190.218 43.1868C189.438 43.1868 189.144 42.4529 189.144 41.329C189.144 39.9605 189.534 37.6632 189.974 35.66L194.03 16.8981C194.129 16.3131 194.225 15.8238 194.225 15.3346C194.225 13.9164 193.296 12.9875 191.782 12.9875C190.119 12.9875 189.438 14.0618 189.094 15.7246L186.896 25.8855C185.723 24.6659 184.01 23.8328 181.422 23.8328C176.232 23.8328 171.01 27.8284 168.975 33.9583C166.734 39.7514 164.731 43.1797 163.15 43.1797C162.565 43.1797 162.221 42.6904 162.221 41.8608C162.221 39.4181 163.589 33.4584 164.174 30.576C164.369 29.5018 164.469 29.0621 164.469 28.4275C164.469 26.279 160.902 23.737 156.261 23.737C150.893 23.737 146.033 27.137 143.597 32.1856C139.977 38.5814 136.655 43.1797 135.01 43.1797C134.276 43.1797 134.032 42.2508 133.837 41.3716L132.621 34.639L140.094 28.5339C140.778 27.9489 141.658 27.1157 141.658 26.0415C141.658 24.7226 140.779 23.8434 139.46 23.8434C138.481 23.8434 137.652 24.4284 136.822 25.1126L125.587 34.3943L129.348 16.9052C129.448 16.3202 129.593 15.8309 129.593 15.3417C129.593 13.9235 128.614 12.9946 127.101 12.9946C125.487 12.9946 124.757 14.0689 124.413 15.7316L118.308 44.1157C118.163 44.7007 118.063 45.1899 118.063 45.6792C118.063 47.0973 119.042 48.0226 120.506 48.0226C122.169 48.0226 122.899 46.9484 123.243 45.2856L124.027 41.6233L128.618 37.9113L129.742 43.5768C130.181 45.8245 131.355 48.0226 134.383 48.0226C137.396 48.0226 139.768 45.2715 142.143 41.5524C142.863 45.4487 145.636 48.0226 149.482 48.0226C153.343 48.0226 155.981 45.7253 157.69 42.6479V42.7472C157.69 45.9238 159.303 48.0226 162.136 48.0226C164.699 48.0226 166.826 46.4769 168.726 43.1939C169.804 46.055 172.215 48.0226 175.569 48.0226C179.526 48.0226 182.358 45.6295 184.166 42.3076V42.6018C184.166 46.1188 185.925 48.0262 188.807 48.0262C191.353 48.0262 193.516 46.5478 195.363 44.144C196.767 46.5478 199.284 48.0262 202.684 48.0262C210.501 48.0262 215.826 40.2583 215.826 32.8308C215.823 27.6015 212.646 23.8399 207.222 23.8399ZM158.516 33.7597C157.098 39.8648 154.07 43.3357 150.649 43.3357C148.351 43.3357 147.082 41.5772 147.082 38.9395C147.082 33.7597 150.844 28.19 155.875 28.19C157.388 28.19 158.562 28.6296 159.587 29.2642L158.516 33.7597ZM185.726 31.1716C184.163 38.3545 180.596 43.3357 176.689 43.3357C174.541 43.3357 173.268 41.6729 173.268 38.9395C173.268 33.7136 176.884 28.2893 181.72 28.2893C183.578 28.2893 184.993 28.9239 186.021 29.7535L185.726 31.1716ZM203.265 43.3357C200.432 43.3357 199.259 41.2829 199.259 38.6948C199.259 33.9547 202.531 28.5339 206.637 28.5339C209.47 28.5339 210.643 30.5866 210.643 33.1747C210.643 37.961 207.371 43.3357 203.265 43.3357Z" fill="white"/>
<path d="M98.7163 23.8398C90.8988 23.8398 85.5737 31.6077 85.5737 38.9856C85.5737 44.261 88.7504 48.0226 94.1712 48.0226C101.989 48.0226 107.314 40.2548 107.314 32.8273C107.314 27.6015 104.137 23.8398 98.7163 23.8398ZM94.7597 43.3357C91.927 43.3357 90.7535 41.2829 90.7535 38.6948C90.7535 33.9547 94.0258 28.5339 98.1313 28.5339C100.964 28.5339 102.138 30.5866 102.138 33.1747C102.134 37.961 98.8617 43.3357 94.7597 43.3357Z" fill="white"/>
<path d="M24.1188 15.4871C29.0981 15.4871 33.1346 13.1395 33.1346 10.2436C33.1346 7.34762 29.0981 5 24.1188 5C19.1395 5 15.103 7.34762 15.103 10.2436C15.103 13.1395 19.1395 15.4871 24.1188 15.4871Z" fill="#E6007A"/>
<path d="M24.1188 54.9964C29.0981 54.9964 33.1346 52.6488 33.1346 49.7528C33.1346 46.8569 29.0981 44.5093 24.1188 44.5093C19.1395 44.5093 15.103 46.8569 15.103 49.7528C15.103 52.6488 19.1395 54.9964 24.1188 54.9964Z" fill="#E6007A"/>
<path d="M11.5549 22.7456C14.0445 18.4335 14.0284 13.7633 11.5188 12.3143C9.00921 10.8654 4.95654 13.1864 2.46689 17.4985C-0.0227575 21.8105 -0.00659851 26.4808 2.50298 27.9297C5.01256 29.3787 9.06524 27.0576 11.5549 22.7456Z" fill="#E6007A"/>
<path d="M45.767 42.4979C48.2567 38.1858 48.2419 33.5164 45.734 32.0684C43.2261 30.6204 39.1748 32.9422 36.6852 37.2543C34.1955 41.5664 34.2103 46.2358 36.7182 47.6838C39.2261 49.1318 43.2774 46.81 45.767 42.4979Z" fill="#E6007A"/>
<path d="M11.5198 47.6825C14.0294 46.2336 14.0455 41.5633 11.5559 37.2513C9.06621 32.9392 5.01354 30.6182 2.50396 32.0671C-0.00562195 33.5161 -0.0217812 38.1863 2.46787 42.4984C4.95751 46.8104 9.01019 49.1315 11.5198 47.6825Z" fill="#E6007A"/>
<path d="M45.7364 27.9309C48.2443 26.4829 48.2591 21.8135 45.7694 17.5014C43.2798 13.1893 39.2285 10.8675 36.7206 12.3155C34.2127 13.7634 34.1979 18.4329 36.6876 22.7449C39.1772 27.057 43.2285 29.3788 45.7364 27.9309Z" fill="#E6007A"/>
</g>
<defs>
<clipPath id="clip0_258_5444">
<rect width="233.773" height="50" fill="white" transform="translate(0.613281 5)"/>
</clipPath>
</defs>
</svg>
