<svg width="181" height="60" viewBox="0 0 181 60" fill="none" xmlns="http://www.w3.org/2000/svg">
<g clip-path="url(#clip0_258_5444)">
<path d="M56.2122 16.4192C54.093 16.4192 52.0507 16.6855 51.219 16.9105C50.0084 17.2509 49.7065 17.7807 49.4787 18.8787L44.6749 41.0446C44.598 41.4975 44.5239 41.8763 44.5239 42.2552C44.5239 43.3532 45.2431 44.0696 46.4152 44.0696C47.7026 44.0696 48.2324 43.2379 48.4959 41.9505L49.8575 35.6342C50.8017 35.7468 52.0507 35.862 53.8295 35.862C61.661 35.862 66.5389 31.6265 66.5389 25.2334C66.5389 19.6336 62.6409 16.4192 56.2122 16.4192ZM53.6401 32.2304C52.4295 32.2304 51.4825 32.192 50.6151 32.0794L53.1487 20.3143C53.942 20.2018 55.1169 20.0481 56.3274 20.0481C60.4889 20.0481 62.608 22.0163 62.608 25.2691C62.6053 29.4305 59.5775 32.2304 53.6401 32.2304Z" fill="white"/>
<path d="M179.449 36.7678C178.807 36.7678 178.39 37.1466 177.596 38.0167C176.196 39.4551 175.326 40.2484 174.231 40.2484C173.248 40.2484 172.718 39.4551 172.718 38.1677C172.718 37.4485 172.869 36.5784 173.059 35.6341L174.459 29.0516H178.659C179.982 29.0516 180.778 28.2939 180.778 26.9324C180.778 26.1748 180.286 25.6093 179.153 25.6093H175.214L175.894 22.5459C175.971 22.093 176.045 21.6757 176.045 21.2969C176.045 20.2374 175.326 19.4797 174.154 19.4797C172.905 19.4797 172.34 20.3115 172.073 21.5989L171.203 25.6093H169.424C168.063 25.6093 167.27 26.367 167.27 27.7285C167.27 28.4861 167.799 29.0516 168.933 29.0516H170.484L169.084 35.5572C168.933 36.2764 168.744 37.4485 168.744 38.6591C168.744 41.7225 170.333 43.9542 173.737 43.9542C175.705 43.9542 177.443 42.9715 178.768 41.7966C180.056 40.6629 181 39.263 181 38.3544C181 37.487 180.319 36.7678 179.449 36.7678Z" fill="white"/>
<path d="M92.4487 18.6509C92.4487 17.5529 91.6911 16.8337 90.519 16.8337C89.27 16.8337 88.7045 17.6655 88.4383 18.9529L83.7114 40.9294C83.5988 41.3823 83.522 41.7611 83.522 42.1399C83.522 43.2379 84.2796 43.9544 85.4133 43.9544C86.7007 43.9544 87.2662 43.1226 87.5324 41.8352L92.2593 19.8615C92.3362 19.4058 92.4487 19.0297 92.4487 18.6509Z" fill="white"/>
<path d="M159.968 25.2303C153.915 25.2303 149.792 31.2446 149.792 36.957C149.792 37.064 149.795 37.1711 149.798 37.2754C148.848 38.7165 147.635 40.2098 146.803 40.2098C146.199 40.2098 145.971 39.6416 145.971 38.7714C145.971 37.7119 146.273 35.9331 146.613 34.3822L149.754 19.8556C149.831 19.4027 149.905 19.0239 149.905 18.6451C149.905 17.5471 149.185 16.8279 148.013 16.8279C146.726 16.8279 146.199 17.6596 145.933 18.947L144.231 26.8142C143.322 25.8699 141.996 25.2248 139.992 25.2248C135.974 25.2248 131.93 28.3185 130.355 33.0646C128.62 37.5499 127.069 40.2043 125.845 40.2043C125.392 40.2043 125.126 39.8255 125.126 39.1832C125.126 37.2919 126.185 32.6775 126.638 30.4458C126.789 29.6141 126.866 29.2737 126.866 28.7824C126.866 27.1189 124.104 25.1507 120.511 25.1507C116.355 25.1507 112.592 27.7832 110.706 31.6921C107.903 36.6441 105.331 40.2043 104.058 40.2043C103.489 40.2043 103.3 39.4851 103.149 38.8044L102.208 33.5916L107.994 28.8647C108.524 28.4118 109.205 27.7667 109.205 26.935C109.205 25.9138 108.524 25.2331 107.503 25.2331C106.745 25.2331 106.103 25.686 105.46 26.2158L96.7614 33.4022L99.6739 19.8611C99.7507 19.4082 99.8633 19.0294 99.8633 18.6506C99.8633 17.5526 99.1056 16.8334 97.9335 16.8334C96.6846 16.8334 96.1191 17.6651 95.8528 18.9525L91.1259 40.929C91.0134 41.3819 90.9365 41.7607 90.9365 42.1396C90.9365 43.2376 91.6941 43.954 92.8278 43.954C94.1152 43.954 94.6807 43.1223 94.947 41.8349L95.5536 38.9993L99.1084 36.1253L99.9786 40.5118C100.319 42.2521 101.228 43.954 103.572 43.954C105.905 43.954 107.741 41.8239 109.581 38.9444C110.138 41.9611 112.284 43.954 115.263 43.954C118.252 43.954 120.294 42.1752 121.617 39.7926V39.8694C121.617 42.329 122.866 43.954 125.06 43.954C127.044 43.954 128.691 42.7572 130.163 40.2153C130.997 42.4305 132.864 43.954 135.46 43.954C138.524 43.954 140.717 42.1011 142.117 39.5291V39.7569C142.117 42.4799 143.479 43.9567 145.71 43.9567C147.681 43.9567 149.356 42.8121 150.786 40.951C151.873 42.8121 153.822 43.9567 156.454 43.9567C162.507 43.9567 166.63 37.9424 166.63 32.1917C166.627 28.1428 164.168 25.2303 159.968 25.2303ZM122.257 32.9109C121.159 37.6378 118.815 40.3251 116.166 40.3251C114.387 40.3251 113.404 38.9636 113.404 36.9213C113.404 32.9109 116.317 28.5985 120.212 28.5985C121.384 28.5985 122.293 28.9388 123.086 29.4302L122.257 32.9109ZM143.325 30.907C142.114 36.4684 139.353 40.3251 136.328 40.3251C134.664 40.3251 133.679 39.0377 133.679 36.9213C133.679 32.8752 136.479 28.6753 140.223 28.6753C141.661 28.6753 142.757 29.1667 143.553 29.809L143.325 30.907ZM156.904 40.3251C154.711 40.3251 153.803 38.7358 153.803 36.7319C153.803 33.0618 156.336 28.8647 159.515 28.8647C161.708 28.8647 162.617 30.4541 162.617 32.4579C162.617 36.1637 160.083 40.3251 156.904 40.3251Z" fill="white"/>
<path d="M75.957 25.2305C69.9042 25.2305 65.7812 31.2448 65.7812 36.9571C65.7812 41.0417 68.2408 43.9541 72.4379 43.9541C78.4906 43.9541 82.6136 37.9398 82.6136 32.1891C82.6136 28.1429 80.1541 25.2305 75.957 25.2305ZM72.8936 40.3252C70.7003 40.3252 69.7917 38.7359 69.7917 36.732C69.7917 33.062 72.3253 28.8649 75.5041 28.8649C77.6973 28.8649 78.6059 30.4542 78.6059 32.4581C78.6032 36.1638 76.0695 40.3252 72.8936 40.3252Z" fill="white"/>
<path d="M18.1993 18.7633C22.0545 18.7633 25.1798 16.9456 25.1798 14.7034C25.1798 12.4612 22.0545 10.6436 18.1993 10.6436C14.344 10.6436 11.2188 12.4612 11.2188 14.7034C11.2188 16.9456 14.344 18.7633 18.1993 18.7633Z" fill="#E6007A"/>
<path d="M18.1993 49.3536C22.0545 49.3536 25.1798 47.5359 25.1798 45.2937C25.1798 43.0515 22.0545 41.2339 18.1993 41.2339C14.344 41.2339 11.2188 43.0515 11.2188 45.2937C11.2188 47.5359 14.344 49.3536 18.1993 49.3536Z" fill="#E6007A"/>
<path d="M8.47153 24.3832C10.3991 21.0445 10.3866 17.4286 8.44358 16.3067C6.50053 15.1849 3.36272 16.9819 1.4351 20.3206C-0.492528 23.6592 -0.480017 27.2752 1.46304 28.397C3.4061 29.5189 6.5439 27.7218 8.47153 24.3832Z" fill="#E6007A"/>
<path d="M34.9604 39.6766C36.888 36.3379 36.8766 32.7226 34.9349 31.6015C32.9931 30.4804 29.8564 32.2781 27.9287 35.6167C26.0011 38.9554 26.0126 42.5707 27.9543 43.6918C29.8961 44.8129 33.0328 43.0152 34.9604 39.6766Z" fill="#E6007A"/>
<path d="M8.44456 43.6908C10.3876 42.569 10.4001 38.953 8.4725 35.6144C6.54488 32.2757 3.40707 30.4787 1.46402 31.6005C-0.479041 32.7224 -0.491552 36.3383 1.43607 39.677C3.3637 43.0156 6.5015 44.8127 8.44456 43.6908Z" fill="#E6007A"/>
<path d="M34.9368 28.398C36.8786 27.2769 36.89 23.6616 34.9624 20.3229C33.0348 16.9843 29.898 15.1866 27.9563 16.3077C26.0145 17.4288 26.0031 21.0442 27.9307 24.3828C29.8583 27.7214 32.9951 29.5191 34.9368 28.398Z" fill="#E6007A"/>
</g>
<defs>
<clipPath id="clip0_258_5444">
<rect width="181" height="38.7128" fill="white" transform="translate(0 10.6436)"/>
</clipPath>
</defs>
</svg>
