<svg width="231" height="60" viewBox="0 0 231 60" fill="none" xmlns="http://www.w3.org/2000/svg">
<g clip-path="url(#clip0_152_2823)">
<path d="M62.594 21.6274H65.0897L72.0846 38.3725H68.7739L67.2629 34.5405H60.217L58.7569 38.3725H55.5142L62.577 21.6274H62.594ZM66.2612 31.9859L63.7654 25.1794L61.2187 31.9859H66.2612Z" fill="white"/>
<path d="M75.1914 21.6274H78.5191L82.9503 34.2781L87.5174 21.6274H90.6413L84.0709 38.3725H81.5751L75.1914 21.6274Z" fill="white"/>
<path d="M100.964 21.6274H103.46L110.455 38.3725H107.144L105.633 34.5405H98.5873L97.1272 38.3725H93.9014L100.964 21.6274ZM104.631 31.9859L102.136 25.1794L99.589 31.9859H104.631Z" fill="white"/>
<path d="M116.855 21.6274H119.742V35.6779H126.652V38.3725H116.855V21.6274Z" fill="white"/>
<path d="M138.587 21.6274H141.083L148.078 38.3725H144.767L143.256 34.5405H136.21L134.75 38.3725H131.524L138.587 21.6274ZM142.254 31.9859L139.759 25.1794L137.212 31.9859H142.254Z" fill="white"/>
<path d="M154.479 21.6274H158.316L166.176 34.0681H166.227V21.6274H169.113V38.3725H165.446L157.416 25.5294H157.365V38.3725H154.479V21.6274Z" fill="white"/>
<path d="M188.468 25.547C187.874 24.8821 187.297 24.4446 186.719 24.2172C186.176 23.9897 185.616 23.8847 185.038 23.8847C184.19 23.8847 183.426 24.0422 182.746 24.3571C182.067 24.6546 181.49 25.0745 180.998 25.6344C180.505 26.1769 180.132 26.8068 179.843 27.5242C179.589 28.2416 179.453 29.0289 179.453 29.8688C179.453 30.7612 179.589 31.6011 179.843 32.3535C180.115 33.1058 180.505 33.7708 180.998 34.3132C181.49 34.8731 182.067 35.293 182.746 35.608C183.443 35.9229 184.207 36.0804 185.038 36.0804C185.701 36.0804 186.329 35.9229 186.94 35.608C187.568 35.2755 188.145 34.7506 188.689 34.0507L191.066 35.8005C190.336 36.8328 189.436 37.6027 188.383 38.0751C187.33 38.5475 186.21 38.7925 185.005 38.7925C183.748 38.7925 182.594 38.5825 181.541 38.1801C180.505 37.7602 179.606 37.1653 178.842 36.4129C178.095 35.643 177.5 34.7156 177.076 33.6483C176.651 32.5809 176.431 31.3911 176.431 30.0788C176.431 28.7315 176.651 27.5242 177.076 26.4393C177.5 25.337 178.095 24.3921 178.842 23.6222C179.606 22.8524 180.505 22.2574 181.541 21.855C182.594 21.4351 183.748 21.2251 185.005 21.2251C186.108 21.2251 187.127 21.4351 188.061 21.8375C189.011 22.2399 189.894 22.9049 190.692 23.8672L188.451 25.5645L188.468 25.547Z" fill="white"/>
<path d="M197.619 21.6274H200.505V28.294H208.095V21.6274H210.998V38.3725H208.095V30.9886H200.505V38.3725H197.619V21.6274Z" fill="white"/>
<path d="M219.215 21.6274H229.962V24.322H222.102V28.4339H229.555V31.1285H222.102V35.6779H230.387V38.3725H219.215V21.6274Z" fill="white"/>
<path fill-rule="evenodd" clip-rule="evenodd" d="M46.9741 30.0084C46.9741 43.2715 36.5497 54.0149 23.6804 54.0149C10.8112 54.0149 0.386719 43.2715 0.386719 30.0084C0.386719 16.7454 10.8112 6.00195 23.6804 6.00195C36.5497 6.00195 46.9741 16.7454 46.9741 30.0084ZM17.076 39.562H12.5599C11.6091 39.562 11.1337 39.562 10.8621 39.3695C10.5565 39.1596 10.3697 38.8271 10.3358 38.4422C10.3188 38.0922 10.5565 37.6723 11.0149 36.8149L22.1864 16.5354C22.6618 15.678 22.8995 15.2406 23.2051 15.0831C23.5276 14.9081 23.9181 14.9081 24.2407 15.0831C24.5463 15.2406 24.784 15.678 25.2594 16.5354L27.5514 20.6648L27.5684 20.6823C28.0777 21.6097 28.3494 22.0821 28.4512 22.572C28.5701 23.1144 28.5701 23.6744 28.4512 24.2168C28.3324 24.7067 28.0777 25.1791 27.5514 26.124L21.694 36.8149L21.677 36.8499C21.1677 37.7773 20.8961 38.2497 20.5395 38.6172C20.149 39.0021 19.6736 39.2821 19.1473 39.457C18.6719 39.597 18.1456 39.597 17.076 39.597V39.562ZM28.4852 39.562H34.9708C35.9215 39.562 36.4139 39.562 36.6855 39.3695C36.9911 39.1596 37.1949 38.8096 37.2118 38.4422C37.2288 38.1097 36.9911 37.6898 36.5497 36.9024C36.5327 36.8674 36.5157 36.8499 36.4988 36.8149L33.256 31.0933L33.222 31.0233C32.7636 30.2359 32.5429 29.8334 32.2373 29.676C31.9147 29.501 31.5242 29.501 31.2017 29.676C30.8961 29.8334 30.6584 30.2534 30.183 31.0933L26.9572 36.8149L26.9402 36.8324C26.4648 37.6723 26.2271 38.0922 26.2441 38.4422C26.2611 38.8271 26.4478 39.1596 26.7704 39.3695C27.059 39.562 27.5344 39.562 28.4852 39.562Z" fill="#E84142"/>
</g>
<defs>
<clipPath id="clip0_152_2823">
<rect width="230" height="48" fill="white" transform="translate(0.386719 6)"/>
</clipPath>
</defs>
</svg>
