<svg width="192" height="61" viewBox="0 0 192 61" fill="none" xmlns="http://www.w3.org/2000/svg">
<path d="M43.0797 35.3263C41.7132 34.5333 40.1718 34.3047 38.6448 34.2547C37.3639 34.2118 35.455 33.3903 35.455 31.0398C35.4624 30.1932 35.8001 29.383 36.3961 28.7822C36.9921 28.1816 37.7991 27.838 38.6448 27.825C40.1718 27.7714 41.7132 27.5428 43.0797 26.7533C44.3066 26.042 45.3251 25.02 46.0328 23.79C46.7405 22.5599 47.1124 21.1651 47.1114 19.7456C47.1103 18.3261 46.7363 16.9319 46.0268 15.7029C45.3173 14.4739 44.2973 13.4534 43.0692 12.7439C41.8411 12.0345 40.4483 11.661 39.0305 11.6609C37.6126 11.6608 36.2197 12.0342 34.9916 12.7436C33.7635 13.453 32.7434 14.4733 32.0338 15.7022C31.3242 16.9312 30.95 18.3254 30.9488 19.7449C30.9488 21.313 31.5054 22.7562 32.219 24.0957C32.8148 25.2209 33.1181 27.3106 31.0665 28.4929C30.325 28.906 29.4514 29.0117 28.6329 28.7873C27.8145 28.5629 27.1165 28.0264 26.6887 27.2927C25.8859 26.0068 24.9047 24.7922 23.5596 24.0171C22.3311 23.3076 20.9376 22.9343 19.5193 22.9348C18.101 22.9352 16.7078 23.3093 15.4797 24.0195C14.2516 24.7298 13.2317 25.7511 12.5227 26.9809C11.8137 28.2106 11.4404 29.6056 11.4404 31.0255C11.4404 32.4455 11.8137 33.8405 12.5227 35.0702C13.2317 36.3 14.2516 37.3214 15.4797 38.0316C16.7078 38.7418 18.101 39.1159 19.5193 39.1163C20.9376 39.1168 22.3311 38.7435 23.5596 38.034C24.9154 37.2481 25.8859 36.0443 26.6887 34.7584C27.3488 33.6868 28.9936 32.3579 31.0665 33.5582C31.7946 33.9948 32.3227 34.6999 32.5376 35.522C32.7524 36.3441 32.6367 37.2177 32.2154 37.9554C31.5018 39.2949 30.9488 40.7381 30.9488 42.3062C30.9488 43.7269 31.3224 45.1224 32.0319 46.3527C32.7414 47.5833 33.7619 48.6049 34.9907 49.3154C36.2195 50.0255 37.6135 50.3998 39.0325 50.3998C40.4515 50.4002 41.8455 50.0266 43.0746 49.3164C44.3036 48.6063 45.3243 47.585 46.0342 46.3548C46.744 45.1246 47.118 43.7292 47.1186 42.3086C47.1191 40.8879 46.7461 39.4921 46.0371 38.2615C45.3282 37.0309 44.3082 36.0087 43.0797 35.2978V35.3263Z" fill="#008CFF"/>
<path d="M58.2373 18.7406H63.8639V21.3983C64.6142 20.4843 65.5569 19.7475 66.6244 19.2406C67.6923 18.7336 68.8583 18.469 70.04 18.4656C70.8413 18.4355 71.6427 18.5283 72.4162 18.7406V25.1704C72.4162 25.1704 71.6384 24.8954 69.7652 24.8954C66.5541 24.8954 64.4134 27.0386 64.4134 30.2535V43.3809H58.2373V18.7406ZM88.4754 18.7406H94.102V21.1232C96.0229 19.4252 98.4933 18.4811 101.056 18.4656C107.232 18.4656 112.584 23.8237 112.584 31.0608C112.584 38.2978 107.232 43.656 101.056 43.656C98.696 43.662 96.4165 42.7987 94.6514 41.2305V52.2219H88.4754V18.7406ZM106.408 31.0608C106.408 27.0315 103.753 24.3738 100.278 24.3738C96.8029 24.3738 94.102 27.0207 94.102 31.0608C94.102 35.1008 96.7993 37.737 100.282 37.737C103.764 37.737 106.408 35.0937 106.408 31.0608ZM117.111 18.7406H122.738V21.1232C124.66 19.4261 127.129 18.4821 129.692 18.4656C135.868 18.4656 141.22 23.8237 141.22 31.0608C141.22 38.2978 135.868 43.656 129.692 43.656C127.332 43.66 125.054 42.7969 123.287 41.2305V52.2219H117.111V18.7406ZM135.047 31.0608C135.047 27.0315 132.393 24.3738 128.914 24.3738C125.435 24.3738 122.738 27.0207 122.738 31.0608C122.738 35.1008 125.439 37.737 128.914 37.737C132.389 37.737 135.047 35.0937 135.047 31.0608ZM145.751 9.62823H151.927V43.3809H145.751V9.62823ZM156.455 31.0608C156.455 24.1023 162.081 18.4656 168.761 18.4656C175.208 18.4656 180.56 23.5522 180.56 31.0608C180.534 31.8765 180.442 32.6889 180.285 33.4898H163.134C163.683 35.8724 165.574 37.737 168.761 37.737C171.643 37.737 172.789 36.4118 172.789 36.4118H179.468C178.23 39.6267 174.387 43.6453 168.764 43.6453C162.081 43.656 156.455 38.0228 156.455 31.0608ZM174.651 29.1854C174.37 27.8262 173.63 26.6055 172.555 25.729C171.48 24.8526 170.136 24.374 168.75 24.374C167.364 24.374 166.02 24.8526 164.945 25.729C163.87 26.6055 163.129 27.8262 162.848 29.1854H174.651ZM76.0198 12.2823C76.0198 11.3529 76.3887 10.4616 77.0448 9.80444C77.7013 9.14727 78.5915 8.77808 79.5199 8.77808C80.4483 8.77808 81.3385 9.14727 81.995 9.80444C82.6515 10.4616 83.02 11.3529 83.02 12.2823C83.02 13.2117 82.6515 14.103 81.995 14.7602C81.3385 15.4173 80.4483 15.7865 79.5199 15.7865C78.5915 15.7865 77.7013 15.4173 77.0448 14.7602C76.3887 14.103 76.0198 13.2117 76.0198 12.2823ZM76.4337 18.7406H82.6204V43.3881H76.4444L76.4337 18.7406Z" fill="white"/>
</svg>
