<svg width="242" height="61" viewBox="0 0 242 61" fill="none" xmlns="http://www.w3.org/2000/svg">
<path d="M40.6621 40.8839L34.0514 48.0089C33.9084 48.1637 33.7353 48.2872 33.5427 48.3717C33.3501 48.4562 33.1423 48.5 32.9322 48.5001H1.59474C1.44528 48.5001 1.29908 48.4562 1.17405 48.3738C1.04903 48.2915 0.950599 48.1743 0.890816 48.0366C0.831032 47.8989 0.812491 47.7467 0.837463 47.5986C0.862436 47.4505 0.929834 47.3129 1.03141 47.2026L7.63466 40.0776C7.77766 39.9229 7.9508 39.7994 8.14337 39.7149C8.33591 39.6304 8.54375 39.5866 8.75386 39.5864H40.0913C40.242 39.5833 40.3905 39.6251 40.5177 39.7065C40.6449 39.788 40.7457 39.9054 40.8065 40.0441C40.8677 40.1828 40.8863 40.3365 40.8606 40.486C40.8348 40.6354 40.7658 40.7739 40.6621 40.8839ZM34.0514 26.5326C33.9079 26.3786 33.7346 26.2556 33.5422 26.1711C33.3497 26.0867 33.1422 26.0425 32.9322 26.0414H1.59474C1.44528 26.0415 1.29908 26.0854 1.17405 26.1677C1.04903 26.25 0.950599 26.3672 0.890816 26.5049C0.831032 26.6426 0.812491 26.7948 0.837463 26.943C0.862436 27.0911 0.929834 27.2287 1.03141 27.3389L7.63466 34.4677C7.77818 34.6217 7.95147 34.7447 8.1439 34.8292C8.33632 34.9137 8.5439 34.9578 8.75386 34.9589H40.0913C40.2405 34.9581 40.386 34.9137 40.5106 34.8311C40.6353 34.7485 40.733 34.6313 40.7923 34.4937C40.8516 34.3562 40.8699 34.2042 40.8445 34.0564C40.8195 33.9086 40.7524 33.7714 40.6509 33.6614L34.0514 26.5326ZM1.59474 21.4139H32.9322C33.1423 21.4137 33.3501 21.3699 33.5427 21.2854C33.7353 21.2009 33.9084 21.0774 34.0514 20.9226L40.6621 13.7977C40.7658 13.6876 40.8348 13.5492 40.8606 13.3997C40.8863 13.2503 40.8677 13.0965 40.8065 12.9579C40.7457 12.8192 40.6449 12.7017 40.5177 12.6203C40.3905 12.5388 40.242 12.497 40.0913 12.5002H8.75386C8.54375 12.5004 8.33591 12.5441 8.14337 12.6286C7.9508 12.7132 7.77766 12.8367 7.63466 12.9914L1.03141 20.1164C0.929834 20.2266 0.862436 20.3642 0.837463 20.5124C0.812491 20.6605 0.831032 20.8127 0.890816 20.9504C0.950599 21.0881 1.04903 21.2053 1.17405 21.2876C1.29908 21.3699 1.44528 21.4138 1.59474 21.4139Z" fill="url(#paint0_linear_152_2823)"/>
<path d="M78.8679 27.7253H62.1023V22.1753H83.2253V16.6253H62.0464C61.3226 16.6214 60.6056 16.7607 59.9356 17.0354C59.2655 17.3102 58.6556 17.7148 58.1415 18.2264C57.627 18.7379 57.2178 19.3463 56.9372 20.0168C56.6567 20.6873 56.5101 21.4067 56.5063 22.1341V27.7591C56.5093 28.4871 56.6548 29.2074 56.935 29.8787C57.2152 30.55 57.6241 31.1593 58.1385 31.6716C58.6533 32.184 59.2633 32.5893 59.9337 32.8645C60.6041 33.1397 61.3222 33.2793 62.0464 33.2753H78.8343V38.8253H56.9055V44.3753H78.8679C79.5916 44.3793 80.3086 44.2399 80.9787 43.9652C81.6487 43.6905 82.2587 43.2858 82.7727 42.7743C83.2872 42.2628 83.6964 41.6544 83.977 40.9839C84.2575 40.3134 84.4041 39.5939 84.4079 38.8666V33.2416C84.4049 32.5136 84.2594 31.7933 83.9792 31.122C83.6991 30.4506 83.2902 29.8413 82.7757 29.329C82.2609 28.8167 81.6509 28.4114 80.9805 28.1362C80.3101 27.861 79.592 27.7214 78.8679 27.7253Z" fill="white"/>
<path d="M111.347 16.6252H94.5178C93.793 16.6193 93.0741 16.7571 92.4022 17.031C91.7307 17.3048 91.1192 17.7091 90.6033 18.2209C90.0869 18.7326 89.6766 19.3416 89.3953 20.0131C89.1136 20.6846 88.9666 21.4053 88.9629 22.1339V38.8664C88.9666 39.5951 89.1136 40.3158 89.3953 40.9872C89.6766 41.6587 90.0869 42.2678 90.6033 42.7795C91.1192 43.2912 91.7307 43.6956 92.4022 43.9694C93.0741 44.2432 93.793 44.3811 94.5178 44.3752H111.347C112.071 44.3791 112.788 44.2398 113.458 43.9651C114.128 43.6904 114.738 43.2857 115.252 42.7742C115.766 42.2626 116.175 41.6542 116.456 40.9838C116.736 40.3133 116.883 39.5938 116.887 38.8664V22.1339C116.883 21.4066 116.736 20.6871 116.456 20.0166C116.175 19.3461 115.766 18.7377 115.252 18.2262C114.738 17.7147 114.128 17.31 113.458 17.0353C112.788 16.7606 112.071 16.6212 111.347 16.6252ZM111.306 38.8252H94.5589V22.1752H111.298L111.306 38.8252Z" fill="white"/>
<path d="M170.291 16.6252H153.876C153.152 16.6212 152.435 16.7606 151.765 17.0353C151.095 17.31 150.485 17.7147 149.971 18.2262C149.457 18.7377 149.047 19.3461 148.767 20.0166C148.486 20.6871 148.34 21.4066 148.336 22.1339V44.3752H153.932V35.2589H170.272V44.3752H175.868V22.1339C175.864 21.4034 175.717 20.6808 175.434 20.0079C175.151 19.3349 174.739 18.7249 174.22 18.2128C173.702 17.7008 173.088 17.2969 172.413 17.0244C171.739 16.752 171.018 16.6163 170.291 16.6252ZM170.25 29.7089H153.91V22.1752H170.25V29.7089Z" fill="white"/>
<path d="M235.634 16.6253H219.219C218.495 16.6214 217.778 16.7607 217.108 17.0354C216.438 17.3102 215.828 17.7148 215.314 18.2264C214.799 18.7379 214.39 19.3463 214.11 20.0168C213.829 20.6873 213.682 21.4067 213.679 22.1341V44.3753H219.275V35.2591H235.578V44.3753H241.174V22.1341C241.17 21.4067 241.023 20.6873 240.743 20.0168C240.462 19.3463 240.053 18.7379 239.538 18.2264C239.024 17.7148 238.414 17.3102 237.744 17.0354C237.074 16.7607 236.357 16.6214 235.634 16.6253ZM235.578 29.7091H219.237V22.1753H235.578V29.7091Z" fill="white"/>
<path d="M203.121 38.8253H200.883L192.88 18.9503C192.606 18.2646 192.134 17.6769 191.525 17.2627C190.917 16.8485 190.198 16.6265 189.463 16.6253H184.498C184.015 16.6228 183.537 16.7159 183.09 16.8993C182.643 17.0826 182.237 17.3526 181.894 17.6939C181.551 18.0352 181.278 18.441 181.091 18.8882C180.904 19.3354 180.807 19.8152 180.804 20.3003V44.3753H186.4V22.1753H188.639L196.637 42.0503C196.916 42.7347 197.391 43.3199 198.003 43.7314C198.614 44.1429 199.334 44.3618 200.069 44.3603H205.035C205.518 44.3628 205.996 44.2697 206.442 44.0863C206.889 43.903 207.296 43.6329 207.639 43.2917C207.982 42.9504 208.254 42.5446 208.441 42.0974C208.628 41.6502 208.726 41.1704 208.728 40.6853V16.6253H203.121V38.8253Z" fill="white"/>
<path d="M127.426 16.6252H121.83V38.8665C121.834 39.5955 121.981 40.3165 122.263 40.9882C122.544 41.6599 122.955 42.2691 123.472 42.7809C123.988 43.2927 124.6 43.6969 125.272 43.9705C125.944 44.2441 126.664 44.3817 127.389 44.3752H144.177V38.8252H127.426V16.6252Z" fill="white"/>
<defs>
<linearGradient id="paint0_linear_152_2823" x1="4.20619" y1="49.3589" x2="37.2562" y2="12.2912" gradientUnits="userSpaceOnUse">
<stop offset="0.08" stop-color="#9945FF"/>
<stop offset="0.3" stop-color="#8752F3"/>
<stop offset="0.5" stop-color="#5497D5"/>
<stop offset="0.6" stop-color="#43B4CA"/>
<stop offset="0.72" stop-color="#28E0B9"/>
<stop offset="0.97" stop-color="#19FB9B"/>
</linearGradient>
</defs>
</svg>
