<svg width="93" height="38" viewBox="0 0 93 38" fill="none" xmlns="http://www.w3.org/2000/svg">
<rect y="7" width="24" height="24" rx="12" fill="white"/>
<path d="M7.40247 22.1484C7.45432 22.0989 7.50617 22.0659 7.55802 22.033C7.60988 22 7.67901 22 7.74815 22H18.7407C18.7926 22 18.8272 22.0165 18.879 22.033C18.9136 22.0495 18.9481 22.0989 18.9654 22.1319C18.9827 22.1648 18.9827 22.2143 18.9827 22.2637C18.9827 22.3132 18.9481 22.3462 18.9309 22.3791L16.5975 24.8517C16.5457 24.9011 16.4938 24.9341 16.442 24.967C16.3901 25 16.321 25 16.2519 25H5.24198C5.19012 25 5.15556 24.9835 5.1037 24.967C5.06914 24.9506 5.03457 24.9011 5.01728 24.8681C5 24.8352 5 24.7857 5 24.7363C5 24.6868 5.03457 24.6538 5.05185 24.6209L7.40247 22.1484ZM18.9309 20.1044C18.9654 20.1374 18.9827 20.1703 18.9827 20.2198C18.9827 20.2692 18.9827 20.3022 18.9654 20.3517C18.9481 20.3846 18.9136 20.4341 18.879 20.4505C18.8444 20.467 18.7926 20.4835 18.7407 20.4835L7.76543 20.5C7.6963 20.5 7.62716 20.4835 7.57531 20.467C7.52346 20.4505 7.45432 20.4011 7.41975 20.3517L5.06914 17.8956C5.03457 17.8626 5.01728 17.8297 5.01728 17.7802C5.01728 17.7308 5.01728 17.6978 5.03457 17.6483C5.05185 17.6154 5.08642 17.5659 5.12099 17.5495C5.15556 17.533 5.20741 17.5165 5.25926 17.5165L16.2691 17.5C16.3383 17.5 16.4074 17.5165 16.4593 17.533C16.5111 17.5659 16.5802 17.5989 16.6148 17.6483L18.9309 20.1044ZM7.40247 13.1484C7.45432 13.0989 7.50617 13.0659 7.55802 13.033C7.60988 13 7.67901 13 7.74815 13L18.758 13.0165C18.8099 13.0165 18.8444 13.033 18.8963 13.0494C18.9309 13.0659 18.9654 13.1154 18.9827 13.1484C19 13.1813 19 13.2308 19 13.2802C19 13.3297 18.9654 13.3626 18.9481 13.3956L16.6148 15.8516C16.563 15.9011 16.5111 15.9341 16.4593 15.967C16.4074 16 16.3383 16 16.2691 16H5.24198C5.19012 16 5.15556 15.9835 5.1037 15.967C5.06914 15.9506 5.03457 15.9011 5.01728 15.8681C5 15.8352 5 15.7857 5 15.7363C5 15.6868 5.03457 15.6538 5.05185 15.6209L7.40247 13.1484Z" fill="url(#paint0_linear_363_6187)"/>
<path d="M39.634 25.252C38.722 25.252 37.906 25.09 37.186 24.766C36.466 24.442 35.896 23.956 35.476 23.308C35.068 22.648 34.864 21.826 34.864 20.842V20.464H36.358V20.842C36.358 21.886 36.664 22.666 37.276 23.182C37.888 23.686 38.674 23.938 39.634 23.938C40.618 23.938 41.368 23.716 41.884 23.272C42.4 22.828 42.658 22.27 42.658 21.598C42.658 21.13 42.538 20.758 42.298 20.482C42.07 20.206 41.746 19.984 41.326 19.816C40.906 19.636 40.414 19.48 39.85 19.348L38.914 19.114C38.182 18.922 37.534 18.688 36.97 18.412C36.406 18.136 35.962 17.776 35.638 17.332C35.326 16.876 35.17 16.294 35.17 15.586C35.17 14.878 35.344 14.266 35.692 13.75C36.052 13.234 36.55 12.838 37.186 12.562C37.834 12.286 38.578 12.148 39.418 12.148C40.27 12.148 41.032 12.298 41.704 12.598C42.388 12.886 42.922 13.318 43.306 13.894C43.702 14.458 43.9 15.172 43.9 16.036V16.792H42.406V16.036C42.406 15.424 42.274 14.932 42.01 14.56C41.758 14.188 41.404 13.912 40.948 13.732C40.504 13.552 39.994 13.462 39.418 13.462C38.59 13.462 37.924 13.648 37.42 14.02C36.916 14.38 36.664 14.896 36.664 15.568C36.664 16.012 36.772 16.372 36.988 16.648C37.204 16.924 37.51 17.152 37.906 17.332C38.302 17.5 38.776 17.65 39.328 17.782L40.264 18.016C40.996 18.172 41.65 18.388 42.226 18.664C42.814 18.928 43.282 19.294 43.63 19.762C43.978 20.218 44.152 20.818 44.152 21.562C44.152 22.306 43.966 22.954 43.594 23.506C43.222 24.058 42.694 24.49 42.01 24.802C41.338 25.102 40.546 25.252 39.634 25.252ZM50.6011 25.252C49.7131 25.252 48.9271 25.066 48.2431 24.694C47.5711 24.322 47.0431 23.8 46.6591 23.128C46.2871 22.444 46.1011 21.64 46.1011 20.716V20.482C46.1011 19.57 46.2871 18.772 46.6591 18.088C47.0431 17.404 47.5711 16.876 48.2431 16.504C48.9271 16.132 49.7131 15.946 50.6011 15.946C51.4891 15.946 52.2691 16.132 52.9411 16.504C53.6251 16.876 54.1531 17.404 54.5251 18.088C54.9091 18.772 55.1011 19.57 55.1011 20.482V20.716C55.1011 21.64 54.9091 22.444 54.5251 23.128C54.1531 23.8 53.6251 24.322 52.9411 24.694C52.2691 25.066 51.4891 25.252 50.6011 25.252ZM50.6011 23.974C51.5371 23.974 52.2811 23.68 52.8331 23.092C53.3971 22.492 53.6791 21.688 53.6791 20.68V20.518C53.6791 19.51 53.3971 18.712 52.8331 18.124C52.2811 17.524 51.5371 17.224 50.6011 17.224C49.6771 17.224 48.9331 17.524 48.3691 18.124C47.8051 18.712 47.5231 19.51 47.5231 20.518V20.68C47.5231 21.688 47.8051 22.492 48.3691 23.092C48.9331 23.68 49.6771 23.974 50.6011 23.974ZM57.66 25V12.4H59.082V25H57.66ZM64.7721 25.252C64.1601 25.252 63.6021 25.144 63.0981 24.928C62.5941 24.712 62.1981 24.4 61.9101 23.992C61.6221 23.584 61.4781 23.086 61.4781 22.498C61.4781 21.898 61.6221 21.406 61.9101 21.022C62.1981 20.626 62.5941 20.332 63.0981 20.14C63.6021 19.936 64.1661 19.834 64.7901 19.834H67.7601V19.186C67.7601 18.562 67.5741 18.07 67.2021 17.71C66.8421 17.35 66.3021 17.17 65.5821 17.17C64.8741 17.17 64.3221 17.344 63.9261 17.692C63.5301 18.028 63.2601 18.484 63.1161 19.06L61.7841 18.628C61.9281 18.136 62.1561 17.692 62.4681 17.296C62.7801 16.888 63.1941 16.564 63.7101 16.324C64.2381 16.072 64.8681 15.946 65.6001 15.946C66.7281 15.946 67.6041 16.24 68.2281 16.828C68.8521 17.404 69.1641 18.22 69.1641 19.276V23.254C69.1641 23.614 69.3321 23.794 69.6681 23.794H70.4781V25H69.2361C68.8401 25 68.5221 24.892 68.2821 24.676C68.0421 24.448 67.9221 24.148 67.9221 23.776V23.686H67.7061C67.5741 23.914 67.3941 24.154 67.1661 24.406C66.9501 24.646 66.6501 24.844 66.2661 25C65.8821 25.168 65.3841 25.252 64.7721 25.252ZM64.9341 24.028C65.7741 24.028 66.4521 23.782 66.9681 23.29C67.4961 22.786 67.7601 22.084 67.7601 21.184V20.986H64.8441C64.2801 20.986 63.8121 21.112 63.4401 21.364C63.0801 21.604 62.9001 21.97 62.9001 22.462C62.9001 22.954 63.0861 23.338 63.4581 23.614C63.8421 23.89 64.3341 24.028 64.9341 24.028ZM72.4256 25V16.198H73.8116V17.692H74.0636C74.2556 17.272 74.5796 16.894 75.0356 16.558C75.5036 16.21 76.1876 16.036 77.0876 16.036C77.7476 16.036 78.3356 16.174 78.8516 16.45C79.3796 16.726 79.7996 17.134 80.1116 17.674C80.4236 18.214 80.5796 18.88 80.5796 19.672V25H79.1576V19.78C79.1576 18.904 78.9356 18.268 78.4916 17.872C78.0596 17.476 77.4716 17.278 76.7276 17.278C75.8756 17.278 75.1796 17.554 74.6396 18.106C74.1116 18.658 73.8476 19.48 73.8476 20.572V25H72.4256ZM86.1647 25.252C85.5527 25.252 84.9947 25.144 84.4907 24.928C83.9867 24.712 83.5907 24.4 83.3027 23.992C83.0147 23.584 82.8707 23.086 82.8707 22.498C82.8707 21.898 83.0147 21.406 83.3027 21.022C83.5907 20.626 83.9867 20.332 84.4907 20.14C84.9947 19.936 85.5587 19.834 86.1827 19.834H89.1527V19.186C89.1527 18.562 88.9667 18.07 88.5947 17.71C88.2347 17.35 87.6947 17.17 86.9747 17.17C86.2667 17.17 85.7147 17.344 85.3187 17.692C84.9227 18.028 84.6527 18.484 84.5087 19.06L83.1767 18.628C83.3207 18.136 83.5487 17.692 83.8607 17.296C84.1727 16.888 84.5867 16.564 85.1027 16.324C85.6307 16.072 86.2607 15.946 86.9927 15.946C88.1207 15.946 88.9967 16.24 89.6207 16.828C90.2447 17.404 90.5567 18.22 90.5567 19.276V23.254C90.5567 23.614 90.7247 23.794 91.0607 23.794H91.8707V25H90.6287C90.2327 25 89.9147 24.892 89.6747 24.676C89.4347 24.448 89.3147 24.148 89.3147 23.776V23.686H89.0987C88.9667 23.914 88.7867 24.154 88.5587 24.406C88.3427 24.646 88.0427 24.844 87.6587 25C87.2747 25.168 86.7767 25.252 86.1647 25.252ZM86.3267 24.028C87.1667 24.028 87.8447 23.782 88.3607 23.29C88.8887 22.786 89.1527 22.084 89.1527 21.184V20.986H86.2367C85.6727 20.986 85.2047 21.112 84.8327 21.364C84.4727 21.604 84.2927 21.97 84.2927 22.462C84.2927 22.954 84.4787 23.338 84.8507 23.614C85.2347 23.89 85.7267 24.028 86.3267 24.028Z" fill="white"/>
<defs>
<linearGradient id="paint0_linear_363_6187" x1="5.42251" y1="25.2739" x2="17.9522" y2="12.1359" gradientUnits="userSpaceOnUse">
<stop stop-color="#9945FF"/>
<stop offset="0.14" stop-color="#8A53F4"/>
<stop offset="0.42" stop-color="#6377D6"/>
<stop offset="0.79" stop-color="#24B0A7"/>
<stop offset="0.99" stop-color="#00D18C"/>
<stop offset="1" stop-color="#00D18C"/>
</linearGradient>
</defs>
</svg>
