<svg width="16" height="15" viewBox="0 0 16 15" fill="none" xmlns="http://www.w3.org/2000/svg">
<path d="M9.29768 1.13297L10.6177 3.77297C10.7977 4.14047 11.2777 4.49297 11.6827 4.56047L14.0752 4.95797C15.6052 5.21297 15.9652 6.32297 14.8627 7.41797L13.0027 9.27797C12.6877 9.59297 12.5152 10.2005 12.6127 10.6355L13.1452 12.938C13.5652 14.7605 12.5977 15.4655 10.9852 14.513L8.74268 13.1855C8.33768 12.9455 7.67018 12.9455 7.25768 13.1855L5.01518 14.513C3.41018 15.4655 2.43518 14.753 2.85518 12.938L3.38768 10.6355C3.48518 10.2005 3.31268 9.59297 2.99768 9.27797L1.13768 7.41797C0.0426759 6.32297 0.395176 5.21297 1.92518 4.95797L4.31768 4.56047C4.71518 4.49297 5.19518 4.14047 5.37518 3.77297L6.69518 1.13297C7.41518 -0.299531 8.58518 -0.299531 9.29768 1.13297Z" fill="url(#paint0_linear_645_3451)"/>
<defs>
<linearGradient id="paint0_linear_645_3451" x1="17.3084" y1="14.9373" x2="-2.92397" y2="12.1287" gradientUnits="userSpaceOnUse">
<stop stop-color="#FF4CD8"/>
<stop offset="1" stop-color="#FF0749"/>
</linearGradient>
</defs>
</svg>
