<svg width="270" height="25" viewBox="0 0 270 25" fill="none" xmlns="http://www.w3.org/2000/svg">
<path d="M2.41469 24.5192L0 7.48626H4.31195L5.82976 21.6003H6.45068L8.6584 7.48626H15.6265L17.8342 21.6003H18.4552L19.973 7.48626H24.2849L21.8702 24.5192H14.6606L12.4529 10.4052H11.832L9.62428 24.5192H2.41469Z" fill="url(#paint0_linear_134_39094)"/>
<path d="M35.8143 25C34.1125 25 32.6062 24.6451 31.2954 23.9354C30.0075 23.2028 28.9956 22.1841 28.2597 20.8791C27.5468 19.5513 27.1904 17.9945 27.1904 16.2088V15.7967C27.1904 14.011 27.5468 12.4657 28.2597 11.1607C28.9726 9.83287 29.973 8.8141 31.2609 8.10439C32.5487 7.37179 34.0435 7.00549 35.7453 7.00549C37.4241 7.00549 38.8844 7.38324 40.1262 8.13874C41.3681 8.87134 42.334 9.90156 43.0239 11.2294C43.7138 12.5343 44.0587 14.0568 44.0587 15.7967V17.2734H31.6058C31.6518 18.4409 32.0887 19.391 32.9166 20.1236C33.7445 20.8562 34.7564 21.2225 35.9523 21.2225C37.1711 21.2225 38.068 20.9592 38.6429 20.4327C39.2178 19.9061 39.6548 19.3223 39.9538 18.6813L43.5068 20.5357C43.1848 21.131 42.7134 21.7834 42.0925 22.4931C41.4946 23.1799 40.6897 23.7752 39.6778 24.2788C38.6659 24.7596 37.3781 25 35.8143 25ZM31.6403 14.0453H39.6433C39.5513 13.0609 39.1489 12.2711 38.4359 11.6758C37.746 11.0806 36.8377 10.783 35.7108 10.783C34.5379 10.783 33.6066 11.0806 32.9166 11.6758C32.2267 12.2711 31.8013 13.0609 31.6403 14.0453Z" fill="url(#paint1_linear_134_39094)"/>
<path d="M58.2071 25C56.6663 25 55.4819 24.7367 54.654 24.2102C53.8261 23.6836 53.2167 23.0998 52.8257 22.4588H52.2048V24.5192H47.9274V0.480769H52.2738V9.44368H52.8947C53.1477 9.03159 53.4812 8.6424 53.8951 8.2761C54.3321 7.9098 54.8955 7.61218 55.5854 7.38324C56.2983 7.13141 57.1722 7.00549 58.2071 7.00549C59.5869 7.00549 60.8632 7.3489 62.0361 8.03571C63.2089 8.69963 64.1518 9.68406 64.8647 10.989C65.5776 12.294 65.9341 13.8736 65.9341 15.728V16.2775C65.9341 18.1319 65.5776 19.7115 64.8647 21.0165C64.1518 22.3214 63.2089 23.3173 62.0361 24.0041C60.8632 24.668 59.5869 25 58.2071 25ZM56.8962 21.2225C58.2301 21.2225 59.3454 20.799 60.2423 19.9519C61.1392 19.082 61.5876 17.8228 61.5876 16.1744V15.831C61.5876 14.1827 61.1392 12.935 60.2423 12.0879C59.3684 11.2179 58.2531 10.783 56.8962 10.783C55.5624 10.783 54.447 11.2179 53.5502 12.0879C52.6533 12.935 52.2048 14.1827 52.2048 15.831V16.1744C52.2048 17.8228 52.6533 19.082 53.5502 19.9519C54.447 20.799 55.5624 21.2225 56.8962 21.2225Z" fill="url(#paint2_linear_134_39094)"/>
<path d="M77.997 25C76.1803 25 74.5705 24.6795 73.1677 24.0385C71.7648 23.3974 70.661 22.4817 69.8561 21.2912C69.0742 20.0778 68.6832 18.647 68.6832 16.9986V16.3805H73.0987V16.8613C73.0987 18.1433 73.5471 19.1735 74.444 19.9519C75.3409 20.7074 76.5252 21.0852 77.997 21.0852C79.4919 21.0852 80.6417 20.7303 81.4466 20.0206C82.2745 19.3109 82.6885 18.418 82.6885 17.342V16.9986C82.6885 16.266 82.5045 15.6708 82.1365 15.2129C81.7686 14.755 81.2741 14.4231 80.6532 14.217C80.0323 13.9881 79.3309 13.8736 78.549 13.8736H73.7196V9.06593L81.5156 4.94505V4.3956H69.3041V0.480769H86.414V6.31868L79.1354 10.1648V10.7143H80.4117C81.4926 10.7143 82.539 10.9318 83.5508 11.3668C84.5857 11.8017 85.4366 12.4771 86.1035 13.3929C86.7704 14.2857 87.1039 15.4533 87.1039 16.8956V17.3077C87.1039 18.8645 86.7244 20.2266 85.9655 21.3942C85.2066 22.5389 84.1373 23.4318 82.7574 24.0728C81.4006 24.6909 79.8138 25 77.997 25Z" fill="url(#paint3_linear_134_39094)"/>
<path d="M97.8113 25C96.4545 25 95.1781 24.668 93.9823 24.0041C92.8094 23.3173 91.8665 22.3214 91.1536 21.0165C90.4407 19.7115 90.0843 18.1319 90.0843 16.2775V15.728C90.0843 13.8736 90.4407 12.294 91.1536 10.989C91.8665 9.68406 92.8094 8.69963 93.9823 8.03571C95.1551 7.3489 96.4314 7.00549 97.8113 7.00549C98.8461 7.00549 99.7085 7.13141 100.398 7.38324C101.111 7.61218 101.686 7.9098 102.123 8.2761C102.56 8.6424 102.894 9.03159 103.124 9.44368H103.745V0.480769H108.091V24.5192H103.814V22.4588H103.193C102.802 23.0998 102.192 23.6836 101.364 24.2102C100.559 24.7367 99.3751 25 97.8113 25ZM99.1221 21.2225C100.456 21.2225 101.571 20.799 102.468 19.9519C103.365 19.082 103.814 17.8228 103.814 16.1744V15.831C103.814 14.1827 103.365 12.935 102.468 12.0879C101.594 11.2179 100.479 10.783 99.1221 10.783C97.7883 10.783 96.6729 11.2179 95.776 12.0879C94.8792 12.935 94.4307 14.1827 94.4307 15.831V16.1744C94.4307 17.8228 94.8792 19.082 95.776 19.9519C96.6729 20.799 97.7883 21.2225 99.1221 21.2225Z" fill="url(#paint4_linear_134_39094)"/>
<path d="M120.706 25C119.004 25 117.498 24.6451 116.187 23.9354C114.899 23.2028 113.887 22.1841 113.151 20.8791C112.438 19.5513 112.082 17.9945 112.082 16.2088V15.7967C112.082 14.011 112.438 12.4657 113.151 11.1607C113.864 9.83287 114.865 8.8141 116.152 8.10439C117.44 7.37179 118.935 7.00549 120.637 7.00549C122.316 7.00549 123.776 7.38324 125.018 8.13874C126.26 8.87134 127.226 9.90156 127.915 11.2294C128.605 12.5343 128.95 14.0568 128.95 15.7967V17.2734H116.497C116.543 18.4409 116.98 19.391 117.808 20.1236C118.636 20.8562 119.648 21.2225 120.844 21.2225C122.063 21.2225 122.96 20.9592 123.535 20.4327C124.109 19.9061 124.546 19.3223 124.845 18.6813L128.398 20.5357C128.076 21.131 127.605 21.7834 126.984 22.4931C126.386 23.1799 125.581 23.7752 124.569 24.2788C123.558 24.7596 122.27 25 120.706 25ZM116.532 14.0453H124.535C124.443 13.0609 124.04 12.2711 123.328 11.6758C122.638 11.0806 121.729 10.783 120.602 10.783C119.43 10.783 118.498 11.0806 117.808 11.6758C117.118 12.2711 116.693 13.0609 116.532 14.0453Z" fill="url(#paint5_linear_134_39094)"/>
<path d="M135.901 24.5192L130.451 7.48626H135.073L139.04 21.3599H139.661L143.628 7.48626H148.251L142.8 24.5192H135.901Z" fill="url(#paint6_linear_134_39094)"/>
<path d="M157.914 25C155.683 25 153.855 24.5192 152.429 23.5577C151.003 22.5962 150.141 21.2225 149.842 19.4368L153.843 18.4066C154.004 19.2079 154.269 19.8375 154.637 20.2953C155.028 20.7532 155.499 21.0852 156.051 21.2912C156.626 21.4744 157.247 21.5659 157.914 21.5659C158.926 21.5659 159.673 21.3942 160.156 21.0508C160.639 20.6845 160.881 20.2381 160.881 19.7115C160.881 19.185 160.651 18.7843 160.191 18.5096C159.731 18.212 158.995 17.9716 157.983 17.7885L157.017 17.6168C155.821 17.3878 154.729 17.0788 153.74 16.6896C152.751 16.2775 151.958 15.7166 151.36 15.0069C150.762 14.2972 150.463 13.3814 150.463 12.2596C150.463 10.5655 151.084 9.27198 152.326 8.37912C153.568 7.46337 155.2 7.00549 157.224 7.00549C159.133 7.00549 160.72 7.42903 161.984 8.2761C163.249 9.12317 164.077 10.2335 164.468 11.6071L160.432 12.8434C160.248 11.9734 159.869 11.3553 159.294 10.989C158.742 10.6227 158.052 10.4396 157.224 10.4396C156.396 10.4396 155.764 10.5884 155.327 10.886C154.89 11.1607 154.671 11.5499 154.671 12.0536C154.671 12.603 154.901 13.0151 155.361 13.2898C155.821 13.5417 156.442 13.7363 157.224 13.8736L158.19 14.0453C159.478 14.2743 160.639 14.5833 161.674 14.9725C162.732 15.3388 163.56 15.8768 164.158 16.5865C164.779 17.2734 165.089 18.212 165.089 19.4025C165.089 21.1882 164.434 22.5733 163.123 23.5577C161.835 24.5192 160.099 25 157.914 25Z" fill="url(#paint7_linear_134_39094)"/>
<path d="M175.418 24.794C174.084 24.794 172.911 24.4963 171.899 23.9011C170.91 23.283 170.14 22.4359 169.588 21.3599C169.036 20.2839 168.76 19.0476 168.76 17.6511V7.48626H173.106V17.3077C173.106 18.5897 173.417 19.5513 174.038 20.1923C174.682 20.8333 175.59 21.1538 176.763 21.1538C178.097 21.1538 179.132 20.7189 179.867 19.8489C180.603 18.956 180.971 17.7198 180.971 16.1401V7.48626H185.318V24.5192H181.04V22.2871H180.419C180.143 22.8594 179.626 23.4203 178.867 23.9698C178.108 24.5192 176.958 24.794 175.418 24.794Z" fill="url(#paint8_linear_134_39094)"/>
<path d="M190.154 24.5192V7.48626H194.432V9.34066H195.053C195.352 8.76832 195.846 8.2761 196.536 7.86401C197.226 7.42903 198.134 7.21154 199.261 7.21154C200.48 7.21154 201.458 7.45192 202.193 7.93269C202.929 8.39057 203.493 8.99725 203.884 9.75275H204.505C204.896 9.02015 205.448 8.41346 206.16 7.93269C206.873 7.45192 207.885 7.21154 209.196 7.21154C210.254 7.21154 211.208 7.44048 212.059 7.89835C212.933 8.33333 213.623 9.0087 214.129 9.92445C214.658 10.8173 214.922 11.9506 214.922 13.3242V24.5192H210.576V13.6332C210.576 12.6946 210.334 11.9963 209.851 11.5385C209.369 11.0577 208.69 10.8173 207.816 10.8173C206.827 10.8173 206.057 11.1378 205.505 11.7788C204.976 12.397 204.712 13.2898 204.712 14.4574V24.5192H200.365V13.6332C200.365 12.6946 200.124 11.9963 199.641 11.5385C199.158 11.0577 198.479 10.8173 197.606 10.8173C196.617 10.8173 195.846 11.1378 195.294 11.7788C194.765 12.397 194.501 13.2898 194.501 14.4574V24.5192H190.154Z" fill="url(#paint9_linear_134_39094)"/>
<path d="M219.597 24.5192V7.48626H223.874V9.34066H224.495C224.794 8.76832 225.289 8.2761 225.979 7.86401C226.669 7.42903 227.577 7.21154 228.704 7.21154C229.923 7.21154 230.9 7.45192 231.636 7.93269C232.372 8.39057 232.935 8.99725 233.326 9.75275H233.947C234.338 9.02015 234.89 8.41346 235.603 7.93269C236.316 7.45192 237.328 7.21154 238.639 7.21154C239.696 7.21154 240.651 7.44048 241.502 7.89835C242.376 8.33333 243.066 9.0087 243.571 9.92445C244.1 10.8173 244.365 11.9506 244.365 13.3242V24.5192H240.018V13.6332C240.018 12.6946 239.777 11.9963 239.294 11.5385C238.811 11.0577 238.133 10.8173 237.259 10.8173C236.27 10.8173 235.499 11.1378 234.948 11.7788C234.419 12.397 234.154 13.2898 234.154 14.4574V24.5192H229.808V13.6332C229.808 12.6946 229.566 11.9963 229.083 11.5385C228.6 11.0577 227.922 10.8173 227.048 10.8173C226.059 10.8173 225.289 11.1378 224.737 11.7788C224.208 12.397 223.943 13.2898 223.943 14.4574V24.5192H219.597Z" fill="url(#paint10_linear_134_39094)"/>
<path d="M249.04 24.5192V7.48626H253.386V24.5192H249.04ZM251.213 5.49451C250.431 5.49451 249.764 5.24267 249.212 4.73901C248.683 4.23535 248.419 3.57143 248.419 2.74725C248.419 1.92308 248.683 1.25916 249.212 0.755495C249.764 0.251832 250.431 0 251.213 0C252.018 0 252.685 0.251832 253.214 0.755495C253.742 1.25916 254.007 1.92308 254.007 2.74725C254.007 3.57143 253.742 4.23535 253.214 4.73901C252.685 5.24267 252.018 5.49451 251.213 5.49451Z" fill="url(#paint11_linear_134_39094)"/>
<path d="M264.757 24.5192C263.63 24.5192 262.71 24.1758 261.997 23.489C261.307 22.7793 260.962 21.8407 260.962 20.6731V11.0577H256.685V7.48626H260.962V2.1978H265.309V7.48626H270V11.0577H265.309V19.9176C265.309 20.6044 265.631 20.9478 266.274 20.9478H269.586V24.5192H264.757Z" fill="url(#paint12_linear_134_39094)"/>
<defs>
<linearGradient id="paint0_linear_134_39094" x1="23.5351" y1="12.4987" x2="274.466" y2="12.4987" gradientUnits="userSpaceOnUse">
<stop stop-color="#CF7BBE"/>
<stop offset="0.557045" stop-color="#6244EB"/>
<stop offset="0.995282" stop-color="#60D0DF"/>
</linearGradient>
<linearGradient id="paint1_linear_134_39094" x1="23.5351" y1="12.4987" x2="274.466" y2="12.4987" gradientUnits="userSpaceOnUse">
<stop stop-color="#CF7BBE"/>
<stop offset="0.557045" stop-color="#6244EB"/>
<stop offset="0.995282" stop-color="#60D0DF"/>
</linearGradient>
<linearGradient id="paint2_linear_134_39094" x1="23.5351" y1="12.4987" x2="274.466" y2="12.4987" gradientUnits="userSpaceOnUse">
<stop stop-color="#CF7BBE"/>
<stop offset="0.557045" stop-color="#6244EB"/>
<stop offset="0.995282" stop-color="#60D0DF"/>
</linearGradient>
<linearGradient id="paint3_linear_134_39094" x1="23.5351" y1="12.4987" x2="274.466" y2="12.4987" gradientUnits="userSpaceOnUse">
<stop stop-color="#CF7BBE"/>
<stop offset="0.557045" stop-color="#6244EB"/>
<stop offset="0.995282" stop-color="#60D0DF"/>
</linearGradient>
<linearGradient id="paint4_linear_134_39094" x1="23.5351" y1="12.4987" x2="274.466" y2="12.4987" gradientUnits="userSpaceOnUse">
<stop stop-color="#CF7BBE"/>
<stop offset="0.557045" stop-color="#6244EB"/>
<stop offset="0.995282" stop-color="#60D0DF"/>
</linearGradient>
<linearGradient id="paint5_linear_134_39094" x1="23.5351" y1="12.4987" x2="274.466" y2="12.4987" gradientUnits="userSpaceOnUse">
<stop stop-color="#CF7BBE"/>
<stop offset="0.557045" stop-color="#6244EB"/>
<stop offset="0.995282" stop-color="#60D0DF"/>
</linearGradient>
<linearGradient id="paint6_linear_134_39094" x1="23.5351" y1="12.4987" x2="274.466" y2="12.4987" gradientUnits="userSpaceOnUse">
<stop stop-color="#CF7BBE"/>
<stop offset="0.557045" stop-color="#6244EB"/>
<stop offset="0.995282" stop-color="#60D0DF"/>
</linearGradient>
<linearGradient id="paint7_linear_134_39094" x1="23.5351" y1="12.4987" x2="274.466" y2="12.4987" gradientUnits="userSpaceOnUse">
<stop stop-color="#CF7BBE"/>
<stop offset="0.557045" stop-color="#6244EB"/>
<stop offset="0.995282" stop-color="#60D0DF"/>
</linearGradient>
<linearGradient id="paint8_linear_134_39094" x1="23.5351" y1="12.4987" x2="274.466" y2="12.4987" gradientUnits="userSpaceOnUse">
<stop stop-color="#CF7BBE"/>
<stop offset="0.557045" stop-color="#6244EB"/>
<stop offset="0.995282" stop-color="#60D0DF"/>
</linearGradient>
<linearGradient id="paint9_linear_134_39094" x1="23.5351" y1="12.4987" x2="274.466" y2="12.4987" gradientUnits="userSpaceOnUse">
<stop stop-color="#CF7BBE"/>
<stop offset="0.557045" stop-color="#6244EB"/>
<stop offset="0.995282" stop-color="#60D0DF"/>
</linearGradient>
<linearGradient id="paint10_linear_134_39094" x1="23.5351" y1="12.4987" x2="274.466" y2="12.4987" gradientUnits="userSpaceOnUse">
<stop stop-color="#CF7BBE"/>
<stop offset="0.557045" stop-color="#6244EB"/>
<stop offset="0.995282" stop-color="#60D0DF"/>
</linearGradient>
<linearGradient id="paint11_linear_134_39094" x1="23.5351" y1="12.4987" x2="274.466" y2="12.4987" gradientUnits="userSpaceOnUse">
<stop stop-color="#CF7BBE"/>
<stop offset="0.557045" stop-color="#6244EB"/>
<stop offset="0.995282" stop-color="#60D0DF"/>
</linearGradient>
<linearGradient id="paint12_linear_134_39094" x1="23.5351" y1="12.4987" x2="274.466" y2="12.4987" gradientUnits="userSpaceOnUse">
<stop stop-color="#CF7BBE"/>
<stop offset="0.557045" stop-color="#6244EB"/>
<stop offset="0.995282" stop-color="#60D0DF"/>
</linearGradient>
</defs>
</svg>
