<svg width="22" height="24" viewBox="0 0 22 24" fill="none" xmlns="http://www.w3.org/2000/svg">
<path fill-rule="evenodd" clip-rule="evenodd" d="M3.35161 8.65601C4.2448 4.73035 7.58669 2.74769 11.0035 2.75C14.4204 2.75231 17.7602 4.73971 18.6487 8.66556L18.6487 8.6656C19.7059 13.3354 16.8127 17.3756 14.0807 19.999L14.0794 20.0004C12.3607 21.6591 9.64036 21.661 7.90988 19.9992C5.18794 17.3757 2.29467 13.3259 3.35161 8.65601ZM11.0045 1.25C14.985 1.25269 19.0402 3.60029 20.1117 8.33441C21.3544 13.8239 17.9285 18.3834 15.1207 21.08C12.8193 23.3008 9.18009 23.2989 6.8707 21.0809L6.86975 21.08C4.072 18.3836 0.646014 13.8139 1.88872 8.32441L1.88889 8.32364C2.96582 3.58953 7.02383 1.24731 11.0045 1.25ZM8.63021 10.31C8.63021 9.0011 9.69129 7.94001 11.0002 7.94001C12.3091 7.94001 13.3702 9.0011 13.3702 10.31C13.3702 11.6189 12.3091 12.68 11.0002 12.68C9.69129 12.68 8.63021 11.6189 8.63021 10.31ZM11.0002 6.44001C8.86286 6.44001 7.13021 8.17267 7.13021 10.31C7.13021 12.4474 8.86286 14.18 11.0002 14.18C13.1375 14.18 14.8702 12.4474 14.8702 10.31C14.8702 8.17267 13.1375 6.44001 11.0002 6.44001Z" fill="url(#paint0_linear_594_4248)"/>
<defs>
<linearGradient id="paint0_linear_594_4248" x1="0.875488" y1="12.0352" x2="21.1249" y2="12.0352" gradientUnits="userSpaceOnUse">
<stop stop-color="#90ECFF"/>
<stop offset="0.26" stop-color="#4B79FF"/>
<stop offset="0.52" stop-color="#8848FB"/>
<stop offset="0.79" stop-color="#D343FF"/>
<stop offset="1" stop-color="#FFA7FF"/>
</linearGradient>
</defs>
</svg>
