<svg width="32" height="32" viewBox="0 0 32 32" fill="none" xmlns="http://www.w3.org/2000/svg">
<g opacity="0.9">
<g filter="url(#filter0_b_486_5857)">
<path fill-rule="evenodd" clip-rule="evenodd" d="M0 16C0 7.16344 7.16344 0 16 0C24.8366 0 32 7.16344 32 16C32 24.8366 24.8366 32 16 32C7.16344 32 0 24.8366 0 16ZM15.5208 13.005C15.5383 13.2931 15.2903 13.5266 15.0037 13.4919L14.9948 13.4908C12.9579 13.231 11.1784 12.3497 9.66756 10.8695L9.33648 10.5404C9.1474 10.3524 8.82691 10.4259 8.73865 10.6775C8.33575 11.8864 8.59316 13.1632 9.43253 14.0219C9.8802 14.4964 9.77948 14.5642 9.00725 14.2818C8.66243 14.1657 8.4614 14.3407 8.5486 14.6939C8.63232 15.033 8.76676 15.4469 8.88414 15.6715C9.17513 16.2364 9.76828 16.7901 10.4174 17.1177C10.5531 17.182 10.5092 17.3855 10.359 17.3882L10.3167 17.3889C9.68994 17.3889 9.66756 17.4002 9.73471 17.6375C9.95854 18.3719 10.8427 19.1515 11.8276 19.4905L11.8551 19.4999C12.1182 19.5898 12.1557 19.9465 11.9171 20.0893C11.0218 20.609 9.96973 20.9028 8.91772 20.9254C8.41409 20.9367 8 20.9819 8 21.0158C8 21.1288 9.36538 21.7615 10.16 22.0101C12.5438 22.7445 15.3753 22.4281 17.5017 21.174C19.0126 20.2814 20.5235 18.5075 21.2286 16.7901C21.6091 15.8749 21.9896 14.2027 21.9896 13.4005C21.9896 12.8807 22.0232 12.8129 22.6499 12.1915C23.0192 11.8299 23.3662 11.4345 23.4333 11.3215C23.5452 11.1068 23.534 11.1068 22.9633 11.2989C22.012 11.6379 21.8777 11.5927 22.3477 11.0842C22.6947 10.7227 23.1088 10.0673 23.1088 9.87526C23.1088 9.84137 22.9409 9.89786 22.7506 9.99955C22.5492 10.1125 22.1015 10.282 21.7658 10.3837C21.3842 10.505 20.9681 10.4443 20.637 10.2192L20.613 10.2029C20.3108 9.99955 19.8856 9.77357 19.6617 9.70578C19.0909 9.5476 18.218 9.5702 17.7032 9.75098C16.3042 10.2594 15.4201 11.5701 15.5208 13.005Z" fill="url(#paint0_linear_486_5857)"/>
</g>
</g>
<defs>
<filter id="filter0_b_486_5857" x="-24" y="-24" width="80" height="80" filterUnits="userSpaceOnUse" color-interpolation-filters="sRGB">
<feFlood flood-opacity="0" result="BackgroundImageFix"/>
<feGaussianBlur in="BackgroundImageFix" stdDeviation="12"/>
<feComposite in2="SourceAlpha" operator="in" result="effect1_backgroundBlur_486_5857"/>
<feBlend mode="normal" in="SourceGraphic" in2="effect1_backgroundBlur_486_5857" result="shape"/>
</filter>
<linearGradient id="paint0_linear_486_5857" x1="0.510667" y1="2.99995" x2="28.4838" y2="32.5886" gradientUnits="userSpaceOnUse">
<stop stop-color="#90ECFF"/>
<stop offset="0.26" stop-color="#4B79FF"/>
<stop offset="0.52" stop-color="#8848FB"/>
<stop offset="0.79" stop-color="#D343FF"/>
<stop offset="1" stop-color="#FFA7FF"/>
</linearGradient>
</defs>
</svg>
