<svg width="224" height="90" viewBox="0 0 224 90" fill="none" xmlns="http://www.w3.org/2000/svg">
<path d="M56.7627 79.7206L63.3627 78.4766C63.4397 78.462 63.5191 78.4648 63.5949 78.4847C63.6707 78.5046 63.741 78.5413 63.8009 78.5918C63.8608 78.6424 63.9086 78.7057 63.9409 78.7771C63.9732 78.8485 63.9893 78.9262 63.9877 79.0046L63.8648 85.4966C63.8626 85.6155 63.8207 85.7303 63.7457 85.8226C62.0685 87.86 59.7468 89.2646 57.1637 89.8046C56.1792 90.0324 55.159 90.0598 54.1637 89.8852C53.1684 89.7107 52.2184 89.3376 51.3702 88.7884C50.522 88.2391 49.7929 87.5249 49.2264 86.6881C48.66 85.8513 48.2676 84.9091 48.0727 83.9176C47.0487 78.4856 51.5597 72.8466 57.0167 71.8176C58.1356 71.5892 59.2898 71.5969 60.4055 71.8404C61.5212 72.0839 62.5738 72.5578 63.4957 73.2316C63.5539 73.2769 63.6019 73.3338 63.6366 73.3988C63.6714 73.4638 63.6921 73.5354 63.6975 73.6089C63.7028 73.6824 63.6927 73.7562 63.6678 73.8256C63.6429 73.895 63.6037 73.9583 63.5527 74.0116L61.3527 76.3266C61.2617 76.4253 61.1367 76.486 61.0029 76.4966C60.869 76.5071 60.7361 76.4668 60.6307 76.3836C60.1819 76.038 59.6629 75.7946 59.1102 75.6704C58.5575 75.5463 57.9843 75.5443 57.4307 75.6646C55.8257 76.0441 54.4162 77.0002 53.4702 78.3511C52.5241 79.702 52.1076 81.3536 52.2997 82.9916C52.3873 83.482 52.5729 83.9496 52.8455 84.3665C53.1181 84.7834 53.4721 85.1409 53.8862 85.4177C54.3004 85.6945 54.7662 85.8848 55.2556 85.9772C55.7451 86.0696 56.2482 86.0623 56.7347 85.9556C57.8318 85.713 58.8399 85.1705 59.6467 84.3886C59.6975 84.3405 59.7381 84.2827 59.7661 84.2186C59.7941 84.1545 59.8089 84.0855 59.8097 84.0156L59.8407 82.4056L56.9057 82.9586C56.8287 82.9732 56.7494 82.9704 56.6736 82.9505C56.5978 82.9305 56.5274 82.8939 56.4675 82.8434C56.4077 82.7928 56.3598 82.7295 56.3275 82.6581C56.2952 82.5866 56.2792 82.5089 56.2807 82.4306L56.3247 80.2306C56.3269 80.1079 56.3719 79.9898 56.4518 79.8967C56.5318 79.8036 56.6417 79.7413 56.7627 79.7206Z" fill="#00C4B3"/>
<path d="M71.0395 73.7925V75.4305C71.0396 75.5079 71.0567 75.5844 71.0898 75.6545C71.1228 75.7245 71.1709 75.7864 71.2306 75.8357C71.2902 75.8851 71.36 75.9207 71.435 75.9401C71.51 75.9594 71.5884 75.9619 71.6645 75.9475L78.5755 74.6475C78.6526 74.6329 78.732 74.6356 78.8078 74.6556C78.8837 74.6756 78.9541 74.7123 79.014 74.763C79.0739 74.8137 79.1218 74.8771 79.154 74.9487C79.1863 75.0202 79.2021 75.0981 79.2005 75.1765L79.1444 77.9905C79.142 78.1116 79.0979 78.2283 79.0196 78.3208C78.9413 78.4133 78.8335 78.476 78.7145 78.4985L71.3395 79.8885C71.2196 79.9112 71.1114 79.9747 71.0332 80.0682C70.955 80.1618 70.9116 80.2795 70.9104 80.4015L70.8915 82.4015C70.8907 82.4794 70.9072 82.5566 70.9399 82.6274C70.9725 82.6982 71.0205 82.7608 71.0802 82.8108C71.14 82.8609 71.2101 82.897 71.2856 82.9167C71.361 82.9363 71.4399 82.939 71.5165 82.9245L79.2765 81.4615C79.3536 81.4469 79.4329 81.4497 79.5088 81.4697C79.5847 81.4896 79.6552 81.5263 79.7151 81.577C79.775 81.6277 79.8228 81.6912 79.855 81.7627C79.8873 81.8342 79.9031 81.912 79.9015 81.9905L79.8454 84.8045C79.8432 84.9256 79.7993 85.0422 79.7212 85.1347C79.643 85.2272 79.5355 85.29 79.4165 85.3125L67.2364 87.6125C67.1594 87.6271 67.0802 87.6243 67.0044 87.6044C66.9286 87.5844 66.8581 87.5478 66.7983 87.4972C66.7384 87.4467 66.6906 87.3834 66.6582 87.312C66.6259 87.2406 66.6099 87.1628 66.6114 87.0845L66.9215 70.6915C66.9238 70.5702 66.9678 70.4536 67.0461 70.361C67.1244 70.2685 67.2323 70.2058 67.3515 70.1835L79.5304 67.8835C79.6074 67.8689 79.6867 67.8717 79.7626 67.8916C79.8384 67.9115 79.9088 67.9481 79.9687 67.9987C80.0285 68.0493 80.0764 68.1126 80.1087 68.184C80.141 68.2554 80.157 68.3331 80.1554 68.4115L80.0995 71.2265C80.0972 71.3476 80.0533 71.4642 79.9752 71.5567C79.8971 71.6492 79.7894 71.712 79.6704 71.7345L71.4704 73.2805C71.3504 73.3027 71.2419 73.3659 71.1632 73.4593C71.0846 73.5527 71.0409 73.6704 71.0395 73.7925Z" fill="#00C4B3"/>
<path d="M94.6817 79.1976L94.6257 82.0116C94.6234 82.1329 94.5793 82.2496 94.501 82.3421C94.4227 82.4346 94.3149 82.4973 94.1957 82.5196L82.9957 84.6316C82.9187 84.6462 82.8394 84.6435 82.7636 84.6235C82.6878 84.6036 82.6174 84.567 82.5575 84.5164C82.4977 84.4658 82.4498 84.4025 82.4175 84.3311C82.3851 84.2597 82.3692 84.182 82.3707 84.1036L82.6807 67.7106C82.683 67.5895 82.7268 67.4729 82.805 67.3804C82.8831 67.2879 82.9907 67.2251 83.1097 67.2026L86.2097 66.6176C86.2865 66.6031 86.3657 66.6058 86.4413 66.6256C86.517 66.6454 86.5873 66.6819 86.6471 66.7322C86.707 66.7826 86.7548 66.8456 86.7873 66.9168C86.8197 66.988 86.8359 67.0654 86.8347 67.1436L86.6497 79.4216C86.6485 79.4998 86.6647 79.5773 86.6971 79.6485C86.7296 79.7196 86.7775 79.7827 86.8373 79.8331C86.8972 79.8834 86.9674 79.9198 87.0431 79.9396C87.1187 79.9594 87.1979 79.9622 87.2747 79.9476L94.0527 78.6696C94.13 78.6543 94.2097 78.6566 94.286 78.6763C94.3624 78.6959 94.4333 78.7324 94.4936 78.783C94.554 78.8337 94.6022 78.8972 94.6347 78.969C94.6673 79.0407 94.6833 79.1188 94.6817 79.1976Z" fill="#00C4B3"/>
<path d="M101.261 68.0955V69.7335C101.261 69.8109 101.278 69.8873 101.311 69.9574C101.344 70.0274 101.392 70.0894 101.452 70.1387C101.511 70.1881 101.581 70.2237 101.656 70.243C101.731 70.2623 101.81 70.2649 101.886 70.2505L108.797 68.9505C108.874 68.9359 108.953 68.9386 109.029 68.9586C109.105 68.9786 109.175 69.0153 109.235 69.066C109.295 69.1167 109.343 69.1801 109.375 69.2516C109.407 69.3232 109.423 69.401 109.422 69.4795L109.366 72.2934C109.363 72.4145 109.32 72.5311 109.241 72.6236C109.163 72.7162 109.056 72.7789 108.937 72.8014L101.562 74.1915C101.442 74.2141 101.333 74.2776 101.255 74.3711C101.177 74.4647 101.133 74.5824 101.132 74.7045L101.113 76.7045C101.112 76.7824 101.128 76.8596 101.161 76.9304C101.194 77.0011 101.242 77.0638 101.301 77.1138C101.361 77.1638 101.431 77.2 101.507 77.2197C101.582 77.2393 101.661 77.242 101.738 77.2275L109.498 75.7645C109.575 75.7499 109.654 75.7526 109.73 75.7726C109.806 75.7925 109.876 75.8291 109.936 75.8797C109.996 75.9303 110.044 75.9936 110.076 76.065C110.108 76.1364 110.124 76.2141 110.123 76.2925L110.067 79.1064C110.064 79.2277 110.02 79.3444 109.942 79.4369C109.864 79.5295 109.756 79.5922 109.637 79.6145L97.4566 81.9145C97.3796 81.9291 97.3003 81.9263 97.2245 81.9064C97.1487 81.8864 97.0783 81.8498 97.0185 81.7992C96.9586 81.7487 96.9108 81.6854 96.8785 81.6139C96.8461 81.5425 96.8301 81.4648 96.8316 81.3865L97.1416 64.9935C97.1439 64.8724 97.1878 64.7558 97.2659 64.6633C97.344 64.5707 97.4517 64.508 97.5707 64.4855L109.749 62.1855C109.826 62.1709 109.905 62.1737 109.981 62.1936C110.057 62.2135 110.127 62.2501 110.187 62.3007C110.247 62.3512 110.295 62.4145 110.327 62.486C110.359 62.5574 110.375 62.6351 110.374 62.7135L110.318 65.5285C110.315 65.6497 110.271 65.7663 110.193 65.8588C110.114 65.9513 110.007 66.014 109.888 66.0365L101.688 67.5825C101.568 67.6055 101.46 67.6692 101.383 67.7627C101.305 67.8563 101.262 67.9738 101.261 68.0955Z" fill="#00C4B3"/>
<path d="M112.303 71.6535C111.316 66.4175 115.475 60.7935 120.981 59.7535C122.106 59.5314 123.265 59.5417 124.386 59.7836C125.507 60.0256 126.567 60.4941 127.501 61.1605C127.56 61.2054 127.609 61.2623 127.644 61.3274C127.68 61.3925 127.701 61.4644 127.707 61.5383C127.713 61.6123 127.703 61.6866 127.678 61.7564C127.653 61.8262 127.613 61.89 127.562 61.9435L125.35 64.2735C125.261 64.3684 125.14 64.4268 125.011 64.4372C124.881 64.4476 124.752 64.4092 124.65 64.3295C124.201 63.9835 123.683 63.7385 123.13 63.6113C122.578 63.4841 122.005 63.4777 121.45 63.5925C119.88 63.9544 118.503 64.8912 117.59 66.2183C116.678 67.5454 116.295 69.1664 116.519 70.7615C116.598 71.2553 116.775 71.7283 117.04 72.1527C117.305 72.5771 117.651 72.9445 118.06 73.2332C118.468 73.5219 118.93 73.7262 119.418 73.8341C119.907 73.942 120.412 73.9513 120.904 73.8615C122.28 73.5055 123.498 72.7016 124.367 71.5765C124.452 71.466 124.577 71.3935 124.715 71.3748C124.853 71.356 124.993 71.3926 125.104 71.4765L127.437 73.2715C127.494 73.3157 127.542 73.3712 127.577 73.4348C127.612 73.4983 127.634 73.5684 127.641 73.6406C127.648 73.7129 127.64 73.7858 127.617 73.8547C127.595 73.9237 127.558 73.9873 127.51 74.0415C125.849 75.8788 123.664 77.1629 121.251 77.7205C119.26 78.098 117.201 77.6716 115.524 76.5345C113.847 75.3975 112.689 73.6425 112.303 71.6535Z" fill="#00C4B3"/>
<path d="M134.319 61.8636V63.5016C134.319 63.579 134.336 63.6555 134.369 63.7255C134.402 63.7956 134.45 63.8575 134.51 63.9069C134.569 63.9562 134.639 63.9918 134.714 64.0111C134.789 64.0304 134.868 64.033 134.944 64.0185L141.855 62.7186C141.932 62.704 142.011 62.7067 142.087 62.7267C142.163 62.7466 142.233 62.7832 142.293 62.8338C142.353 62.8844 142.401 62.9477 142.433 63.0191C142.465 63.0905 142.481 63.1682 142.48 63.2466L142.424 66.0616C142.421 66.1827 142.378 66.2993 142.299 66.3918C142.221 66.4843 142.114 66.5471 141.995 66.5696L134.62 67.9596C134.5 67.9824 134.392 68.046 134.314 68.1395C134.235 68.233 134.192 68.3507 134.191 68.4726L134.172 70.4726C134.171 70.5505 134.187 70.6276 134.22 70.6984C134.253 70.7692 134.301 70.8319 134.36 70.882C134.42 70.932 134.49 70.9681 134.566 70.9877C134.641 71.0074 134.72 71.01 134.797 70.9955L142.557 69.5326C142.634 69.518 142.713 69.5208 142.789 69.5407C142.865 69.5606 142.935 69.5972 142.995 69.6478C143.055 69.6983 143.103 69.7617 143.135 69.8331C143.167 69.9045 143.183 69.9822 143.182 70.0605L143.126 72.8746C143.123 72.9958 143.079 73.1125 143.001 73.205C142.923 73.2975 142.815 73.3603 142.696 73.3826L130.517 75.6826C130.44 75.6971 130.36 75.6944 130.285 75.6744C130.209 75.6545 130.138 75.618 130.078 75.5674C130.019 75.5168 129.971 75.4535 129.938 75.3821C129.906 75.3107 129.89 75.2329 129.892 75.1545L130.201 58.7616C130.203 58.6406 130.247 58.5241 130.325 58.4316C130.403 58.3391 130.511 58.2762 130.63 58.2535L142.809 55.9535C142.886 55.9389 142.965 55.9417 143.041 55.9617C143.117 55.9817 143.187 56.0184 143.247 56.0691C143.307 56.1198 143.355 56.1832 143.387 56.2548C143.419 56.3263 143.435 56.4041 143.434 56.4825L143.378 59.2975C143.375 59.4186 143.331 59.5351 143.253 59.6276C143.175 59.72 143.068 59.7829 142.949 59.8055L134.749 61.3516C134.629 61.374 134.521 61.4373 134.442 61.5306C134.364 61.624 134.32 61.7417 134.319 61.8636Z" fill="#00C4B3"/>
<path d="M146.49 55.2556L149.614 54.6666C149.691 54.652 149.77 54.6548 149.846 54.6748C149.922 54.6949 149.993 54.7316 150.053 54.7824C150.113 54.8332 150.16 54.8968 150.192 54.9685C150.225 55.0401 150.24 55.1181 150.239 55.1966L150.139 59.7966C150.136 59.9081 150.169 60.0175 150.232 60.1092C150.295 60.2009 150.386 60.2702 150.492 60.307C150.597 60.3438 150.711 60.3462 150.818 60.314C150.924 60.2818 151.018 60.2165 151.086 60.1276L156.052 53.5946C156.13 53.4904 156.245 53.4191 156.374 53.3946L160.186 52.6766C160.29 52.6569 160.398 52.6693 160.496 52.7124C160.593 52.7554 160.676 52.8269 160.732 52.9176C160.788 53.0082 160.815 53.1136 160.81 53.22C160.804 53.3265 160.767 53.4288 160.703 53.5136L155.116 60.8586C155.046 60.9503 155.008 61.0623 155.008 61.1776C155.008 61.2928 155.046 61.4049 155.116 61.4966L160.955 69.1616C161.009 69.2331 161.045 69.3175 161.057 69.4066C161.07 69.4957 161.06 69.5865 161.028 69.6705C160.996 69.7546 160.942 69.829 160.873 69.8866C160.804 69.9441 160.721 69.9831 160.633 69.9996L156.973 70.6896C156.876 70.7078 156.777 70.6987 156.685 70.6633C156.594 70.628 156.514 70.5678 156.455 70.4896L152.505 65.2616C152.456 65.1973 152.394 65.1449 152.322 65.1085C152.25 65.0722 152.171 65.0528 152.09 65.0518C152.01 65.0509 151.93 65.0684 151.857 65.103C151.784 65.1376 151.721 65.1885 151.671 65.2516L150.196 67.1136C150.126 67.2018 150.086 67.31 150.082 67.4226L149.938 71.5966C149.934 71.7163 149.889 71.831 149.811 71.9219C149.733 72.0128 149.626 72.0744 149.509 72.0966L146.376 72.6866C146.299 72.7012 146.219 72.6984 146.144 72.6785C146.068 72.6586 145.997 72.622 145.937 72.5714C145.877 72.5208 145.83 72.4575 145.797 72.3861C145.765 72.3147 145.749 72.237 145.751 72.1586L146.061 55.7656C146.062 55.6442 146.106 55.5271 146.184 55.4342C146.262 55.3412 146.37 55.2781 146.49 55.2556Z" fill="#00C4B3"/>
<path d="M39.0254 47.8436V49.4816C39.0256 49.559 39.0428 49.6355 39.0758 49.7055C39.1088 49.7756 39.1569 49.8375 39.2165 49.8868C39.2762 49.9362 39.346 49.9718 39.421 49.9911C39.496 50.0104 39.5743 50.013 39.6504 49.9986L46.5614 48.6986C46.6385 48.6839 46.7179 48.6867 46.7938 48.7067C46.8697 48.7267 46.9402 48.7634 47 48.8141C47.0599 48.8648 47.1077 48.9282 47.14 48.9998C47.1722 49.0713 47.1881 49.1491 47.1864 49.2276L47.1304 52.0416C47.1281 52.1628 47.0841 52.2795 47.0058 52.3721C46.9275 52.4646 46.8196 52.5273 46.7004 52.5496L39.3254 53.9396C39.2055 53.9622 39.0972 54.0257 39.0188 54.1192C38.9404 54.2127 38.8968 54.3305 38.8954 54.4526L38.8764 56.4526C38.8757 56.5305 38.8922 56.6077 38.9249 56.6784C38.9575 56.7492 39.0055 56.8119 39.0652 56.8619C39.125 56.9119 39.1951 56.9481 39.2706 56.9678C39.346 56.9874 39.4249 56.9901 39.5014 56.9756L47.2615 55.5126C47.3385 55.498 47.4178 55.5007 47.4936 55.5207C47.5694 55.5406 47.6398 55.5772 47.6996 55.6278C47.7595 55.6784 47.8073 55.7417 47.8396 55.8131C47.872 55.8845 47.888 55.9622 47.8865 56.0406L47.8304 58.8546C47.8282 58.9756 47.7843 59.0922 47.7062 59.1848C47.628 59.2773 47.5205 59.3401 47.4015 59.3626L35.2214 61.6626C35.1444 61.6772 35.0652 61.6744 34.9894 61.6545C34.9136 61.6345 34.8431 61.5979 34.7832 61.5473C34.7234 61.4968 34.6756 61.4335 34.6432 61.3621C34.6109 61.2907 34.5949 61.2129 34.5964 61.1346L34.9054 44.7416C34.9079 44.6204 34.952 44.5038 35.0303 44.4113C35.1086 44.3188 35.2163 44.256 35.3354 44.2336L47.5135 41.9336C47.5905 41.919 47.6697 41.9218 47.7455 41.9417C47.8213 41.9616 47.8918 41.9982 47.9516 42.0488C48.0115 42.0994 48.0593 42.1627 48.0917 42.2341C48.124 42.3055 48.14 42.3832 48.1385 42.4616L48.0824 45.2756C48.08 45.3967 48.0359 45.5133 47.9576 45.6058C47.8793 45.6983 47.7715 45.7611 47.6525 45.7836L39.4524 47.3296C39.3328 47.3527 39.2249 47.4165 39.1471 47.5102C39.0692 47.6039 39.0262 47.7218 39.0254 47.8436ZM61.5544 51.3066L65.0624 55.2126C65.1249 55.2821 65.1677 55.367 65.1866 55.4585C65.2054 55.55 65.1996 55.6449 65.1697 55.7335C65.1397 55.822 65.0868 55.901 65.0163 55.9624C64.9458 56.0237 64.8602 56.0652 64.7684 56.0826L61.3304 56.7306C61.2416 56.7472 61.1501 56.7408 61.0644 56.7119C60.9788 56.683 60.9021 56.6326 60.8415 56.5656L57.0414 52.3486C56.9809 52.2815 56.9042 52.231 56.8185 52.2021C56.7329 52.1732 56.6413 52.1668 56.5525 52.1836L55.1114 52.4556C54.9924 52.4778 54.8848 52.5404 54.8064 52.6327C54.7281 52.725 54.684 52.8415 54.6814 52.9626L54.5895 57.5746C54.5872 57.6956 54.5433 57.8122 54.4652 57.9048C54.3871 57.9973 54.2794 58.0601 54.1604 58.0826L51.0345 58.6716C50.9575 58.6862 50.8782 58.6834 50.8024 58.6635C50.7265 58.6435 50.6561 58.6069 50.5962 58.5563C50.5364 58.5058 50.4885 58.4425 50.4562 58.3711C50.4239 58.2997 50.408 58.2219 50.4095 58.1436L50.7195 41.7506C50.7217 41.6295 50.7656 41.5129 50.8437 41.4204C50.9219 41.3278 51.0294 41.2651 51.1484 41.2426L58.3854 39.8786C61.6154 39.2696 64.1625 40.8166 64.7015 43.6786C64.9318 44.9915 64.7653 46.3432 64.2232 47.561C63.6811 48.7787 62.7881 49.8071 61.6584 50.5146C61.5949 50.5561 61.5411 50.6108 61.5007 50.6749C61.4603 50.7391 61.4343 50.8113 61.4243 50.8865C61.4143 50.9617 61.4207 51.0381 61.443 51.1106C61.4653 51.1831 61.503 51.25 61.5535 51.3066H61.5544ZM54.7674 47.9206C54.7656 47.9991 54.7814 48.077 54.8136 48.1487C54.8458 48.2204 54.8936 48.2839 54.9535 48.3347C55.0134 48.3855 55.0839 48.4223 55.1598 48.4423C55.2358 48.4624 55.3153 48.4652 55.3924 48.4506L57.9335 47.9716C58.6731 47.8438 59.3413 47.4519 59.8139 46.8687C60.2866 46.2856 60.5316 45.5507 60.5035 44.8006C60.3515 43.9926 59.4954 43.6226 58.2474 43.8576L55.2665 44.4196C55.1478 44.442 55.0404 44.5045 54.9623 44.5966C54.8842 44.6887 54.8402 44.8049 54.8374 44.9256L54.7674 47.9206ZM68.4955 37.9736L71.6194 37.3846C71.6965 37.37 71.7759 37.3728 71.8518 37.3927C71.9277 37.4127 71.9981 37.4494 72.058 37.5001C72.1179 37.5508 72.1657 37.6142 72.198 37.6857C72.2302 37.7573 72.2461 37.8351 72.2444 37.9136L72.1445 42.5136C72.1417 42.625 72.1744 42.7345 72.2378 42.8262C72.3013 42.9179 72.3922 42.9871 72.4974 43.0239C72.6027 43.0607 72.7169 43.0632 72.8237 43.031C72.9304 42.9987 73.0242 42.9335 73.0915 42.8446L78.0574 36.3116C78.1362 36.2072 78.251 36.1359 78.3794 36.1116L82.1915 35.3926C82.2961 35.3728 82.4044 35.3853 82.5018 35.4283C82.5993 35.4713 82.6814 35.5429 82.7374 35.6335C82.7934 35.7241 82.8206 35.8296 82.8154 35.936C82.8102 36.0425 82.7729 36.1448 82.7084 36.2296L77.1214 43.5746C77.0516 43.6664 77.0138 43.7787 77.0138 43.8941C77.0138 44.0095 77.0516 44.1217 77.1214 44.2136L82.9604 51.8776C83.0148 51.9491 83.05 52.0333 83.0627 52.1223C83.0754 52.2113 83.0651 52.302 83.0329 52.3859C83.0006 52.4697 82.9474 52.544 82.8784 52.6015C82.8094 52.659 82.7268 52.698 82.6385 52.7146L78.9784 53.4046C78.882 53.4229 78.7824 53.4138 78.6909 53.3785C78.5994 53.3431 78.5195 53.2829 78.4604 53.2046L74.5104 47.9766C74.4619 47.9123 74.3994 47.8599 74.3276 47.8235C74.2557 47.7872 74.1765 47.7678 74.0959 47.7668C74.0154 47.7658 73.9357 47.7833 73.863 47.818C73.7902 47.8526 73.7264 47.9034 73.6764 47.9666L72.2015 49.8286C72.1315 49.9168 72.0915 50.0251 72.0874 50.1376L71.9424 54.3116C71.9384 54.4312 71.8937 54.546 71.8157 54.6369C71.7377 54.7278 71.6311 54.7894 71.5135 54.8116L68.3804 55.4016C68.3034 55.4162 68.2242 55.4134 68.1484 55.3934C68.0726 55.3735 68.0021 55.3369 67.9422 55.2864C67.8824 55.2358 67.8345 55.1725 67.8022 55.1011C67.7699 55.0296 67.7539 54.9519 67.7554 54.8736L68.0655 38.4806C68.068 38.3595 68.1121 38.243 68.1904 38.1507C68.2687 38.0584 68.3765 37.9958 68.4955 37.9736ZM89.3835 38.3506V39.9886C89.3836 40.066 89.4007 40.1425 89.4338 40.2125C89.4668 40.2826 89.5149 40.3445 89.5746 40.3938C89.6342 40.4432 89.704 40.4788 89.779 40.4981C89.854 40.5174 89.9324 40.52 90.0085 40.5056L96.9194 39.2056C96.9965 39.191 97.0759 39.1937 97.1518 39.2137C97.2277 39.2337 97.2981 39.2704 97.358 39.3211C97.4179 39.3718 97.4657 39.4352 97.498 39.5068C97.5302 39.5783 97.5461 39.6561 97.5444 39.7346L97.4884 42.5486C97.4862 42.6696 97.4423 42.7862 97.3642 42.8788C97.286 42.9713 97.1784 43.0341 97.0594 43.0566L89.6844 44.4466C89.5644 44.469 89.456 44.5325 89.3775 44.626C89.2991 44.7196 89.2556 44.8375 89.2544 44.9596L89.2355 46.9596C89.2347 47.0375 89.2512 47.1147 89.2839 47.1855C89.3165 47.2563 89.3645 47.3189 89.4242 47.3689C89.484 47.419 89.5541 47.4551 89.6296 47.4747C89.705 47.4944 89.7839 47.4971 89.8605 47.4826L97.6205 46.0196C97.6975 46.005 97.7768 46.0078 97.8526 46.0277C97.9284 46.0476 97.9988 46.0842 98.0586 46.1348C98.1185 46.1854 98.1663 46.2487 98.1987 46.3201C98.231 46.3915 98.247 46.4692 98.2455 46.5476L98.1894 49.3616C98.1872 49.4827 98.1433 49.5992 98.0652 49.6918C97.987 49.7843 97.8794 49.8471 97.7604 49.8696L85.5815 52.1696C85.5045 52.1842 85.4252 52.1814 85.3493 52.1614C85.2735 52.1415 85.2031 52.1049 85.1432 52.0544C85.0834 52.0038 85.0355 51.9405 85.0032 51.8691C84.9709 51.7977 84.9549 51.7199 84.9565 51.6416L85.2665 35.2486C85.2687 35.1275 85.3126 35.0109 85.3907 34.9184C85.4689 34.8259 85.5764 34.7631 85.6954 34.7406L97.8735 32.4406C97.9505 32.426 98.0298 32.4287 98.1056 32.4487C98.1814 32.4686 98.2518 32.5052 98.3116 32.5558C98.3715 32.6064 98.4193 32.6697 98.4516 32.7411C98.484 32.8125 98.5 32.8902 98.4985 32.9686L98.4424 35.7826C98.4402 35.9036 98.3963 36.0203 98.3182 36.1128C98.24 36.2053 98.1325 36.2681 98.0135 36.2906L89.8135 37.8366C89.6933 37.8591 89.5847 37.9227 89.5062 38.0164C89.4278 38.1102 89.3844 38.2283 89.3835 38.3506ZM100.411 46.0006L108.136 35.3006C108.198 35.2151 108.233 35.113 108.236 35.0075C108.24 34.902 108.211 34.798 108.155 34.7089C108.098 34.6198 108.016 34.5497 107.919 34.5078C107.822 34.4658 107.715 34.4539 107.611 34.4736L101.375 35.6486C101.298 35.6632 101.219 35.6604 101.143 35.6405C101.068 35.6205 100.997 35.584 100.937 35.5334C100.877 35.4828 100.83 35.4195 100.797 35.3481C100.765 35.2767 100.749 35.1989 100.75 35.1206L100.806 32.3066C100.809 32.1855 100.853 32.0689 100.931 31.9764C101.009 31.8838 101.116 31.8211 101.235 31.7986L114.135 29.3676C114.212 29.3531 114.291 29.3557 114.366 29.3753C114.441 29.3948 114.511 29.4308 114.571 29.4806C114.631 29.5304 114.679 29.5928 114.711 29.6633C114.744 29.7339 114.761 29.8108 114.76 29.8886L114.744 32.3286C114.743 32.4364 114.708 32.5412 114.644 32.6286L106.981 43.3186C106.92 43.4041 106.886 43.5061 106.883 43.6113C106.88 43.7166 106.909 43.8203 106.965 43.909C107.022 43.9978 107.104 44.0676 107.2 44.1094C107.297 44.1512 107.404 44.1631 107.507 44.1436L113.994 42.9206C114.071 42.906 114.151 42.9088 114.227 42.9287C114.302 42.9486 114.373 42.9852 114.433 43.0358C114.493 43.0864 114.54 43.1497 114.573 43.2211C114.605 43.2925 114.621 43.3702 114.619 43.4486L114.563 46.2626C114.561 46.3837 114.517 46.5002 114.439 46.5928C114.361 46.6853 114.253 46.7481 114.134 46.7706L100.958 49.2546C100.883 49.2689 100.805 49.2664 100.73 49.2474C100.655 49.2283 100.586 49.193 100.526 49.1441C100.466 49.0952 100.418 49.0338 100.385 48.9642C100.352 48.8947 100.334 48.8187 100.333 48.7416L100.312 46.3066C100.312 46.1964 100.347 46.089 100.411 45.9996V46.0006ZM117.721 28.6946L120.987 28.0786C121.054 28.0659 121.123 28.0683 121.189 28.0856C121.255 28.1029 121.316 28.1346 121.367 28.1785C121.419 28.2224 121.461 28.2773 121.489 28.3392C121.517 28.4012 121.531 28.4686 121.529 28.5366L121.217 45.0716C121.216 45.1766 121.178 45.2779 121.11 45.3582C121.042 45.4385 120.949 45.4931 120.845 45.5126L117.579 46.1286C117.513 46.1412 117.444 46.1388 117.378 46.1215C117.312 46.1042 117.251 46.0725 117.199 46.0286C117.147 45.9848 117.106 45.9298 117.078 45.8679C117.05 45.806 117.036 45.7385 117.037 45.6706L117.349 29.1356C117.351 29.0304 117.389 28.929 117.457 28.8485C117.525 28.768 117.618 28.7133 117.721 28.6936V28.6946ZM129.356 37.7536L123.535 28.3266C123.49 28.2538 123.464 28.1712 123.458 28.0858C123.452 28.0004 123.467 27.9149 123.502 27.8366C123.536 27.7584 123.589 27.6897 123.656 27.6365C123.723 27.5834 123.802 27.5474 123.886 27.5316L126.692 27.0026C126.797 26.9827 126.905 26.9951 127.003 27.0379C127.1 27.0808 127.182 27.1521 127.238 27.2426L130.81 32.9916C130.86 33.0711 130.929 33.1361 131.012 33.1799C131.095 33.2236 131.187 33.2446 131.281 33.2406C131.374 33.2366 131.465 33.2079 131.544 33.1573C131.622 33.1066 131.686 33.036 131.728 32.9526L135.495 25.5526C135.532 25.4807 135.585 25.4182 135.649 25.3698C135.714 25.3215 135.788 25.2885 135.867 25.2736L139.282 24.6296C139.38 24.6112 139.481 24.6208 139.573 24.6571C139.665 24.6935 139.746 24.7552 139.804 24.8351C139.863 24.915 139.898 25.01 139.906 25.1089C139.913 25.2079 139.892 25.3069 139.845 25.3946L133.681 36.9846C133.644 37.0562 133.623 37.1356 133.62 37.2166L133.457 42.7086C133.453 42.8283 133.409 42.943 133.331 43.0339C133.253 43.1247 133.146 43.1864 133.028 43.2086L129.905 43.7976C129.828 43.8123 129.748 43.8094 129.672 43.7891C129.596 43.7689 129.525 43.7317 129.465 43.6805C129.405 43.6292 129.357 43.5652 129.325 43.493C129.293 43.4208 129.278 43.3424 129.28 43.2636L129.435 38.0386C129.437 37.9376 129.41 37.8384 129.356 37.7526V37.7536ZM145.982 27.6846V29.3226C145.983 29.4 146 29.4765 146.033 29.5465C146.066 29.6166 146.114 29.6785 146.174 29.7278C146.233 29.7772 146.303 29.8128 146.378 29.8321C146.453 29.8514 146.531 29.854 146.607 29.8396L153.518 28.5396C153.595 28.525 153.675 28.5277 153.751 28.5477C153.826 28.5676 153.897 28.6042 153.957 28.6548C154.017 28.7054 154.064 28.7687 154.097 28.8401C154.129 28.9115 154.145 28.9892 154.143 29.0676L154.087 31.8826C154.085 32.0036 154.041 32.1201 153.963 32.2126C153.885 32.305 153.777 32.3679 153.658 32.3906L146.283 33.7806C146.164 33.8032 146.055 33.8668 145.977 33.9603C145.899 34.0539 145.856 34.1716 145.854 34.2936L145.835 36.2936C145.835 36.3715 145.851 36.4487 145.884 36.5195C145.916 36.5902 145.964 36.6529 146.024 36.7029C146.084 36.7529 146.154 36.7891 146.23 36.8088C146.305 36.8284 146.384 36.8311 146.46 36.8166L154.22 35.3536C154.297 35.339 154.377 35.3417 154.453 35.3617C154.528 35.3816 154.599 35.4182 154.659 35.4688C154.718 35.5194 154.766 35.5827 154.799 35.6541C154.831 35.7255 154.847 35.8032 154.845 35.8816L154.789 38.6956C154.787 38.8166 154.743 38.9333 154.665 39.0258C154.587 39.1183 154.479 39.1811 154.36 39.2036L142.181 41.5036C142.104 41.5182 142.025 41.5154 141.949 41.4955C141.874 41.4755 141.803 41.4389 141.743 41.3883C141.683 41.3378 141.636 41.2745 141.603 41.2031C141.571 41.1317 141.555 41.0539 141.556 40.9756L141.866 24.5826C141.869 24.4615 141.913 24.3449 141.991 24.2524C142.069 24.1598 142.176 24.0971 142.295 24.0746L154.473 21.7746C154.55 21.76 154.63 21.7628 154.706 21.7827C154.781 21.8026 154.852 21.8392 154.912 21.8898C154.972 21.9404 155.019 22.0037 155.052 22.0751C155.084 22.1465 155.1 22.2242 155.098 22.3026L155.042 25.1166C155.04 25.2376 154.996 25.3542 154.918 25.4468C154.84 25.5393 154.732 25.6021 154.613 25.6246L146.413 27.1706C146.293 27.1929 146.184 27.2563 146.106 27.3501C146.027 27.4439 145.983 27.5622 145.982 27.6846ZM161.177 24.3846L157.358 25.1046C157.282 25.1191 157.203 25.1164 157.127 25.0966C157.051 25.0769 156.981 25.0406 156.921 24.9903C156.862 24.9401 156.814 24.8771 156.781 24.8061C156.749 24.7351 156.732 24.6577 156.733 24.5796L156.771 21.7686C156.773 21.647 156.817 21.5297 156.895 21.4365C156.973 21.3434 157.081 21.2802 157.2 21.2576L170.535 18.7386C170.612 18.724 170.691 18.7267 170.767 18.7465C170.842 18.7663 170.913 18.8026 170.972 18.8529C171.032 18.9031 171.08 18.966 171.113 19.037C171.145 19.1081 171.162 19.1854 171.16 19.2636L171.122 22.0746C171.121 22.1963 171.077 22.3137 170.999 22.4069C170.92 22.5 170.812 22.5632 170.692 22.5856L166.423 23.3856C166.304 23.408 166.197 23.4708 166.118 23.5633C166.04 23.6558 165.996 23.7724 165.993 23.8936L165.756 36.6146C165.754 36.7356 165.71 36.8523 165.632 36.9448C165.554 37.0373 165.446 37.1001 165.327 37.1226L162.201 37.7116C162.124 37.7262 162.045 37.7234 161.969 37.7034C161.894 37.6835 161.823 37.6469 161.763 37.5964C161.703 37.5458 161.656 37.4825 161.623 37.4111C161.591 37.3396 161.575 37.2619 161.576 37.1836L161.805 24.9016C161.806 24.8233 161.79 24.7459 161.757 24.6748C161.724 24.6038 161.676 24.5409 161.616 24.4908C161.556 24.4407 161.485 24.4047 161.409 24.3853C161.333 24.3658 161.254 24.3636 161.177 24.3786V24.3846ZM172.252 32.7356L173.913 30.4356C173.99 30.3294 174.104 30.2558 174.233 30.2293C174.361 30.2029 174.495 30.2254 174.607 30.2926C176.056 31.1372 177.756 31.4428 179.407 31.1556C181.487 30.7636 182.394 29.5276 182.207 28.5246C182.082 27.8636 181.458 27.7786 179.282 27.6566C175.875 27.4626 173.457 27.1336 172.913 24.2456C172.267 20.8206 174.783 17.6346 179.285 16.7856C181.441 16.3411 183.684 16.6633 185.627 17.6966C185.69 17.7318 185.744 17.7792 185.788 17.836C185.831 17.8928 185.863 17.9579 185.88 18.0272C185.898 18.0965 185.901 18.1687 185.89 18.2394C185.88 18.3101 185.854 18.3779 185.816 18.4386L184.323 20.8306C184.253 20.9426 184.144 21.0241 184.016 21.0588C183.889 21.0934 183.753 21.0787 183.635 21.0176C182.379 20.3732 180.95 20.1426 179.554 20.3586C177.719 20.7046 176.885 21.9256 177.069 22.9046C177.203 23.6136 177.954 23.7046 180.053 23.8116C184.036 23.9726 185.884 24.6376 186.364 27.1826C187.051 30.8276 184.132 33.8826 179.752 34.7126C177.233 35.2255 174.613 34.7881 172.396 33.4846C172.336 33.4459 172.284 33.3952 172.243 33.3357C172.203 33.2761 172.175 33.209 172.161 33.1383C172.148 33.0676 172.149 32.9949 172.164 32.9246C172.18 32.8544 172.209 32.788 172.251 32.7296L172.252 32.7356ZM189.492 15.1706L192.758 14.5546C192.825 14.5419 192.894 14.5443 192.96 14.5616C193.026 14.5789 193.087 14.6106 193.138 14.6545C193.19 14.6984 193.232 14.7533 193.26 14.8153C193.288 14.8772 193.302 14.9446 193.3 15.0126L192.988 31.5476C192.987 31.6528 192.948 31.7541 192.88 31.8345C192.813 31.9148 192.719 31.9692 192.615 31.9886L189.349 32.6046C189.283 32.6172 189.214 32.6148 189.148 32.5975C189.082 32.5803 189.021 32.5485 188.969 32.5046C188.917 32.4607 188.876 32.4058 188.848 32.3439C188.82 32.2819 188.806 32.2145 188.807 32.1466L189.119 15.6116C189.12 15.5054 189.157 15.4026 189.225 15.3208C189.293 15.2391 189.387 15.1835 189.491 15.1636L189.492 15.1706ZM195.819 28.0206L203.544 17.3206C203.606 17.2351 203.641 17.133 203.644 17.0275C203.648 16.922 203.619 16.818 203.563 16.7289C203.506 16.6398 203.424 16.5697 203.327 16.5278C203.23 16.4858 203.123 16.4739 203.019 16.4936L196.783 17.6696C196.706 17.6842 196.627 17.6814 196.551 17.6614C196.476 17.6415 196.405 17.6049 196.345 17.5544C196.285 17.5038 196.238 17.4405 196.205 17.3691C196.173 17.2976 196.157 17.2199 196.158 17.1416L196.214 14.3276C196.217 14.2064 196.261 14.0898 196.339 13.9973C196.418 13.9048 196.525 13.842 196.644 13.8196L209.535 11.3846C209.612 11.3701 209.691 11.3727 209.766 11.3923C209.841 11.4119 209.912 11.448 209.971 11.4979C210.031 11.5478 210.079 11.6103 210.112 11.681C210.144 11.7517 210.161 11.8287 210.16 11.9066L210.144 14.3466C210.143 14.4545 210.108 14.5592 210.044 14.6466L202.382 25.3366C202.321 25.4221 202.287 25.5241 202.284 25.6293C202.281 25.7346 202.31 25.8383 202.366 25.927C202.423 26.0158 202.505 26.0856 202.601 26.1274C202.698 26.1692 202.805 26.1811 202.908 26.1616L209.395 24.9386C209.472 24.924 209.552 24.9268 209.628 24.9467C209.703 24.9666 209.774 25.0032 209.834 25.0538C209.894 25.1044 209.941 25.1677 209.974 25.2391C210.006 25.3105 210.022 25.3882 210.02 25.4666L209.964 28.2806C209.962 28.4017 209.918 28.5183 209.84 28.6108C209.761 28.7034 209.654 28.7661 209.534 28.7886L196.358 31.2726C196.283 31.2867 196.205 31.2841 196.13 31.2649C196.055 31.2457 195.986 31.2104 195.926 31.1614C195.867 31.1124 195.818 31.0509 195.785 30.9813C195.752 30.9117 195.734 30.8357 195.733 30.7586L195.712 28.3236C195.715 28.2118 195.752 28.1036 195.819 28.0146V28.0206ZM5.12444 72.1426V44.7636L116.157 23.9466C115.764 23.4099 115.499 22.7905 115.381 22.1356C115.23 21.3415 115.299 20.5211 115.581 19.7636L2.62746 40.9416C2.14401 41.0323 1.70748 41.2892 1.39339 41.6677C1.0793 42.0463 0.907413 42.5227 0.907456 43.0146V74.6546C0.902277 75.0098 0.984697 75.3608 1.14745 75.6766C1.35867 76.0774 1.69312 76.3997 2.10149 76.596C2.50985 76.7922 2.97051 76.8521 3.41545 76.7666L18.7754 73.8076C19.3192 73.7029 19.8371 73.4922 20.2995 73.1874C20.7618 72.8826 21.1596 72.4897 21.4701 72.0311C21.7807 71.5726 21.9978 71.0574 22.1092 70.5149C22.2206 69.9725 22.2241 69.4134 22.1194 68.8696L5.12444 72.1426ZM123.324 22.6036L187.805 10.5146C187.369 9.95801 187.075 9.30294 186.949 8.60658C186.805 7.85569 186.857 7.08023 187.101 6.35557L122.875 18.3966C123.234 18.9024 123.478 19.4801 123.591 20.0896C123.75 20.9354 123.658 21.809 123.327 22.6036H123.324ZM222.849 1.16957C222.639 0.770467 222.306 0.449198 221.9 0.252726C221.493 0.0562536 221.035 -0.00513077 220.591 0.0775548L194.509 4.96757C194.83 5.4496 195.05 5.99141 195.156 6.56056C195.324 7.45015 195.215 8.3696 194.844 9.19557L218.871 4.69557V32.0846L40.9855 65.2356C40.4385 65.3373 39.954 65.6511 39.6374 66.1086L31.3865 78.0296V64.6756L31.7004 45.5536C31.7016 45.4754 31.6854 45.3979 31.653 45.3267C31.6206 45.2556 31.5727 45.1925 31.5129 45.1422C31.453 45.0918 31.3827 45.0554 31.3071 45.0356C31.2314 45.0157 31.1523 45.013 31.0754 45.0276L27.7334 45.6576C27.6539 45.6726 27.5788 45.7058 27.5141 45.7545C27.4495 45.8032 27.3969 45.8662 27.3605 45.9386L22.4244 55.7296L17.9734 47.8616C17.9192 47.766 17.8365 47.6897 17.7368 47.6434C17.6371 47.5972 17.5255 47.5832 17.4175 47.6036L14.0744 48.2336C13.9554 48.256 13.8476 48.3188 13.7693 48.4113C13.691 48.5038 13.6469 48.6204 13.6445 48.7416L13.3354 65.1336C13.3339 65.2119 13.3499 65.2896 13.3822 65.3611C13.4146 65.4325 13.4624 65.4958 13.5223 65.5464C13.5821 65.5969 13.6525 65.6335 13.7283 65.6535C13.8041 65.6734 13.8834 65.6762 13.9604 65.6616L17.0884 65.0716C17.2069 65.0492 17.3142 64.9868 17.3923 64.8949C17.4703 64.803 17.5145 64.6871 17.5174 64.5666L17.7515 54.8666L21.2344 60.9186C21.3534 61.1251 21.5261 61.2956 21.7342 61.4118C21.9424 61.528 22.1781 61.5856 22.4164 61.5784C22.6546 61.5712 22.8865 61.4995 23.0873 61.371C23.288 61.2425 23.4502 61.062 23.5564 60.8486L27.4405 53.0406L27.2405 63.4546L27.1675 84.7866C27.1672 85.2361 27.3106 85.6739 27.5768 86.0361C27.8429 86.3983 28.2179 86.666 28.647 86.8C29.076 86.934 29.5367 86.9274 29.9617 86.781C30.3867 86.6347 30.7538 86.3563 31.0094 85.9866L42.6094 69.2276L221.368 35.9096C221.852 35.8194 222.289 35.5628 222.604 35.1842C222.919 34.8056 223.091 34.3288 223.09 33.8366V2.18458C223.096 1.8316 223.015 1.48265 222.853 1.16856L222.849 1.16957Z" fill="white"/>
<path d="M117.609 21.5785C117.511 21.0362 117.632 20.4772 117.946 20.024C118.259 19.5707 118.739 19.2602 119.281 19.1605C119.516 19.1173 119.756 19.1217 119.989 19.1735C120.221 19.2252 120.441 19.3231 120.635 19.4615C120.829 19.5998 120.993 19.7758 121.117 19.9788C121.242 20.1819 121.324 20.4079 121.359 20.6435C121.454 21.1771 121.338 21.7267 121.035 22.1762C120.732 22.6257 120.267 22.9399 119.736 23.0525C119.499 23.1058 119.253 23.1093 119.015 23.0628C118.776 23.0163 118.549 22.9208 118.349 22.7823C118.15 22.6437 117.981 22.4652 117.853 22.258C117.726 22.0508 117.643 21.8194 117.609 21.5785Z" fill="#00C4B3"/>
<path d="M189.379 8.04847C189.281 7.50595 189.402 6.94667 189.716 6.49324C190.03 6.0398 190.51 5.7292 191.052 5.62947C191.287 5.58633 191.527 5.59076 191.76 5.64247C191.992 5.69418 192.212 5.79213 192.406 5.93049C192.6 6.06885 192.764 6.24477 192.888 6.44783C193.013 6.65089 193.095 6.87693 193.13 7.11247C193.225 7.64611 193.109 8.19571 192.806 8.64521C192.503 9.09472 192.038 9.40892 191.507 9.52147C191.27 9.57498 191.024 9.57865 190.786 9.53227C190.547 9.48589 190.32 9.39048 190.12 9.25203C189.92 9.11358 189.751 8.93511 189.624 8.72795C189.496 8.52078 189.413 8.28942 189.379 8.04847Z" fill="#00C4B3"/>
</svg>
